{
.appVersion = "3151";
.formatVersion = 3;
customParameters = (
{
name = blueScale;
value = 0.01627;
}
);
date = "2023-05-13 22:00:00 +0000";
familyName = "ET Book";
featurePrefixes = (
{
automatic = 1;
code = "languagesystem DFLT dflt;

languagesystem latn dflt;
";
name = Languagesystems;
}
);
features = (
{
automatic = 1;
code = "feature sups;
feature frac;
feature ordn;
";
tag = aalt;
},
{
automatic = 1;
code = "lookup ccmp_latn_1 {
	sub fi by f i;
	sub fl by f l;
} ccmp_latn_1;

script latn;
lookup ccmp_latn_1;
";
tag = ccmp;
},
{
automatic = 1;
code = "sub one by onesuperior;
sub two by twosuperior;
sub three by threesuperior;
";
tag = sups;
},
{
automatic = 1;
code = "sub one slash four by onequarter;
sub one slash two by onehalf;
sub three slash four by threequarters;
";
tag = frac;
},
{
automatic = 1;
code = "sub [zero one two three four five six seven eight nine] [A a]' by ordfeminine;
sub [zero one two three four five six seven eight nine] [O o]' by ordmasculine;
";
tag = ordn;
},
{
automatic = 1;
code = "lookupflag IgnoreMarks;
sub f f i by f_f_i;
sub f f l by f_f_l;
sub f f by f_f;
sub f i by fi;
sub f l by fl;
";
tag = liga;
}
);
fontMaster = (
{
customParameters = (
{
name = underlinePosition;
value = -111;
},
{
name = "Alignment Zones";
value = (
{
pos = "-4";
size = "-8";
},
{
pos = 376;
size = 62;
},
{
pos = 593;
size = 19;
},
{
pos = 679;
size = 9;
},
{
pos = "-249";
size = "-11";
}
);
}
);
id = m01;
metricValues = (
{
over = 15;
pos = 800;
},
{
over = 15;
pos = 650;
},
{
over = 15;
pos = 415;
},
{
over = -15;
},
{
over = -15;
pos = -200;
}
);
name = SemiBold;
stemValues = (
38,
39,
80,
96
);
}
);
glyphs = (
{
glyphname = A;
lastChange = "2023-05-15 06:39:53 +0000";
layers = (
{
layerId = m01;
shapes = (
{
closed = 1;
nodes = (
(697,-5,o),
(695,42,o),
(677,42,c),
(670,42,l),
(628,42,o),
(621,51,o),
(605,95,c),
(596,120,o),
(587,146,o),
(578,172,c),
(556,229,o),
(510,353,o),
(393,659,c),
(383,674,o),
(362,672,o),
(346,672,c),
(344,672,o),
(323,672,o),
(314,672,c),
(301,671,o),
(292,664,o),
(294,657,c),
(300,633,l),
(116,132,l),
(112,121,o),
(106,107,o),
(100,92,c),
(81,47,o),
(76,45,o),
(28,45,c),
(24,45,o),
(16,42,o),
(14,33,c),
(12,22,o),
(13,0,o),
(28,-3,c),
(32,-3,o),
(35,-3,o),
(39,-3,c),
(92,0,o),
(194,-2,o),
(253,-3,c),
(257,-3,o),
(264,8,o),
(265,19,c),
(265,30,o),
(260,43,o),
(253,44,c),
(245,45,o),
(239,45,o),
(233,44,c),
(214,42,o),
(169,42,o),
(169,65,c),
(169,73,o),
(170,83,o),
(174,95,c),
(189,135,o),
(218,212,o),
(236,265,c),
(240,271,o),
(246,279,o),
(256,278,c),
(292,278,o),
(360,279,o),
(405,278,c),
(414,278,o),
(424,273,o),
(426,269,c),
(449,206,o),
(469,152,o),
(493,89,c),
(503,61,o),
(495,48,o),
(463,46,c),
(452,46,o),
(440,45,o),
(422,45,c),
(410,45,o),
(396,42,o),
(396,22,c),
(396,10,o),
(397,-3,o),
(413,-3,c),
(483,-1,o),
(613,-1,o),
(676,-4,c)
);
},
{
closed = 1;
nodes = (
(272,347,o),
(267,348,o),
(268,353,c),
(283,393,o),
(309,460,o),
(326,512,c),
(332,531,o),
(335,528,o),
(338,521,c),
(353,471,o),
(377,398,o),
(392,358,c),
(394,353,o),
(390,345,o),
(387,345,c),
(358,346,o),
(310,346,o),
(275,345,c)
);
}
);
width = 711;
}
);
unicode = 65;
},
{
glyphname = Aacute;
lastChange = "2023-05-15 06:06:27 +0000";
layers = (
{
layerId = m01;
shapes = (
{
closed = 1;
nodes = (
(697,-5,o),
(695,42,o),
(677,42,c),
(670,42,l),
(628,42,o),
(621,51,o),
(605,95,c),
(596,120,o),
(587,146,o),
(578,172,c),
(556,229,o),
(510,353,o),
(393,659,c),
(383,674,o),
(362,672,o),
(346,672,c),
(344,672,o),
(323,672,o),
(314,672,c),
(301,671,o),
(292,664,o),
(294,657,c),
(300,633,l),
(116,132,l),
(112,121,o),
(106,107,o),
(100,92,c),
(81,47,o),
(76,45,o),
(28,45,c),
(24,45,o),
(16,42,o),
(14,33,c),
(12,22,o),
(13,0,o),
(28,-3,c),
(32,-3,o),
(35,-3,o),
(39,-3,c),
(92,0,o),
(194,-2,o),
(253,-3,c),
(257,-3,o),
(264,8,o),
(265,19,c),
(265,30,o),
(260,43,o),
(253,44,c),
(245,45,o),
(239,45,o),
(233,44,c),
(214,42,o),
(169,42,o),
(169,65,c),
(169,73,o),
(170,83,o),
(174,95,c),
(189,135,o),
(218,212,o),
(236,265,c),
(240,271,o),
(246,279,o),
(256,278,c),
(292,278,o),
(360,279,o),
(405,278,c),
(414,278,o),
(424,273,o),
(426,269,c),
(449,206,o),
(469,152,o),
(493,89,c),
(503,61,o),
(495,48,o),
(463,46,c),
(452,46,o),
(440,46,o),
(422,46,c),
(410,46,o),
(396,42,o),
(396,22,c),
(396,10,o),
(397,-3,o),
(413,-3,c),
(483,-1,o),
(613,-1,o),
(676,-4,c)
);
},
{
closed = 1;
nodes = (
(272,347,o),
(267,348,o),
(268,353,c),
(283,393,o),
(309,460,o),
(326,512,c),
(332,531,o),
(335,528,o),
(338,521,c),
(353,471,o),
(377,398,o),
(392,358,c),
(394,353,o),
(390,345,o),
(387,345,c),
(358,346,o),
(310,346,o),
(275,345,c)
);
},
{
closed = 1;
nodes = (
(472,890,l),
(474,892,o),
(474,895,o),
(475,898,c),
(479,921,o),
(441,914,o),
(369,913,c),
(360,913,o),
(349,907,o),
(346,896,c),
(297,734,l),
(290,713,o),
(324,711,o),
(332,720,c)
);
}
);
width = 711;
}
);
unicode = 193;
},
{
glyphname = Acircumflex;
lastChange = "2023-05-15 06:06:27 +0000";
layers = (
{
layerId = m01;
shapes = (
{
closed = 1;
nodes = (
(697,-5,o),
(695,42,o),
(677,42,c),
(670,42,l),
(628,42,o),
(621,51,o),
(605,95,c),
(596,120,o),
(587,146,o),
(578,172,c),
(556,229,o),
(510,353,o),
(393,659,c),
(383,674,o),
(362,672,o),
(346,672,c),
(344,672,o),
(323,672,o),
(314,672,c),
(301,671,o),
(292,664,o),
(294,657,c),
(300,633,l),
(116,132,l),
(112,121,o),
(106,107,o),
(100,92,c),
(81,47,o),
(76,45,o),
(28,45,c),
(24,45,o),
(16,42,o),
(14,33,c),
(12,22,o),
(13,0,o),
(28,-3,c),
(32,-3,o),
(35,-3,o),
(39,-3,c),
(92,0,o),
(194,-2,o),
(253,-3,c),
(257,-3,o),
(264,8,o),
(265,19,c),
(265,30,o),
(260,43,o),
(253,44,c),
(245,45,o),
(239,45,o),
(233,44,c),
(214,42,o),
(169,42,o),
(169,65,c),
(169,73,o),
(170,83,o),
(174,95,c),
(189,135,o),
(218,212,o),
(236,265,c),
(240,271,o),
(246,279,o),
(256,278,c),
(292,278,o),
(360,279,o),
(405,278,c),
(414,278,o),
(424,273,o),
(426,269,c),
(449,206,o),
(469,152,o),
(493,89,c),
(503,61,o),
(495,48,o),
(463,46,c),
(452,46,o),
(440,45,o),
(422,45,c),
(410,45,o),
(396,42,o),
(396,22,c),
(396,10,o),
(397,-3,o),
(413,-3,c),
(483,-1,o),
(613,-1,o),
(676,-4,c)
);
},
{
closed = 1;
nodes = (
(272,347,o),
(267,348,o),
(268,353,c),
(283,393,o),
(309,460,o),
(326,512,c),
(332,531,o),
(335,528,o),
(338,521,c),
(353,471,o),
(377,398,o),
(392,358,c),
(394,353,o),
(390,345,o),
(387,345,c),
(358,346,o),
(310,346,o),
(275,345,c)
);
},
{
closed = 1;
nodes = (
(495,695,o),
(495,705,o),
(490,713,c),
(404,863,l),
(398,873,o),
(394,875,o),
(383,876,c),
(370,877,o),
(316,876,o),
(307,875,c),
(301,872,o),
(295,869,o),
(291,862,c),
(204,708,l),
(196,694,o),
(223,685,o),
(235,696,c),
(345,795,l),
(462,696,l),
(467,691,o),
(478,691,o),
(486,693,c)
);
}
);
width = 711;
}
);
unicode = 194;
},
{
glyphname = Adieresis;
lastChange = "2023-05-15 06:06:27 +0000";
layers = (
{
layerId = m01;
shapes = (
{
closed = 1;
nodes = (
(697,-5,o),
(695,42,o),
(677,42,c),
(670,42,l),
(628,42,o),
(621,51,o),
(605,95,c),
(596,120,o),
(587,146,o),
(578,172,c),
(556,229,o),
(510,353,o),
(393,659,c),
(383,674,o),
(362,672,o),
(346,672,c),
(344,672,o),
(323,672,o),
(314,672,c),
(301,671,o),
(292,664,o),
(294,657,c),
(300,633,l),
(116,132,l),
(112,121,o),
(106,107,o),
(100,92,c),
(81,47,o),
(76,45,o),
(28,45,c),
(24,45,o),
(16,42,o),
(14,33,c),
(12,22,o),
(13,0,o),
(28,-3,c),
(32,-3,o),
(35,-3,o),
(39,-3,c),
(92,0,o),
(194,-2,o),
(253,-3,c),
(257,-3,o),
(264,8,o),
(265,19,c),
(265,30,o),
(260,43,o),
(253,44,c),
(245,45,o),
(239,45,o),
(233,44,c),
(214,42,o),
(169,42,o),
(169,65,c),
(169,73,o),
(170,83,o),
(174,95,c),
(189,135,o),
(218,212,o),
(236,265,c),
(240,271,o),
(246,279,o),
(256,278,c),
(292,278,o),
(360,279,o),
(405,278,c),
(414,278,o),
(424,273,o),
(426,269,c),
(449,206,o),
(469,152,o),
(493,89,c),
(503,61,o),
(495,48,o),
(463,46,c),
(452,46,o),
(440,45,o),
(422,45,c),
(410,45,o),
(396,42,o),
(396,22,c),
(396,10,o),
(397,-3,o),
(413,-3,c),
(483,-1,o),
(613,-1,o),
(676,-4,c)
);
},
{
closed = 1;
nodes = (
(272,347,o),
(267,348,o),
(268,353,c),
(283,393,o),
(309,460,o),
(326,512,c),
(332,531,o),
(335,528,o),
(338,521,c),
(353,471,o),
(377,398,o),
(392,358,c),
(394,353,o),
(390,345,o),
(387,345,c),
(358,346,o),
(310,346,o),
(275,345,c)
);
},
{
closed = 1;
nodes = (
(303,722,o),
(333,750,o),
(333,786,c),
(333,822,o),
(303,851,o),
(267,851,c),
(232,851,o),
(203,822,o),
(203,786,c),
(203,750,o),
(232,722,o),
(267,722,c)
);
},
{
closed = 1;
nodes = (
(479,722,o),
(507,751,o),
(507,786,c),
(507,822,o),
(479,851,o),
(442,851,c),
(406,851,o),
(377,822,o),
(377,786,c),
(377,751,o),
(406,722,o),
(442,722,c)
);
}
);
width = 711;
}
);
unicode = 196;
},
{
glyphname = Agrave;
lastChange = "2023-05-15 06:06:27 +0000";
layers = (
{
layerId = m01;
shapes = (
{
closed = 1;
nodes = (
(697,-5,o),
(695,42,o),
(677,42,c),
(670,42,l),
(628,42,o),
(621,51,o),
(605,95,c),
(596,120,o),
(587,146,o),
(578,172,c),
(556,229,o),
(510,353,o),
(393,659,c),
(383,674,o),
(362,672,o),
(346,672,c),
(344,672,o),
(323,672,o),
(314,672,c),
(301,671,o),
(292,664,o),
(294,657,c),
(300,633,l),
(116,132,l),
(112,121,o),
(106,107,o),
(100,92,c),
(81,47,o),
(76,45,o),
(28,45,c),
(24,45,o),
(16,42,o),
(14,33,c),
(12,22,o),
(13,0,o),
(28,-3,c),
(32,-3,o),
(35,-3,o),
(39,-3,c),
(92,0,o),
(194,-2,o),
(253,-3,c),
(257,-3,o),
(264,8,o),
(265,19,c),
(265,30,o),
(260,43,o),
(253,44,c),
(245,45,o),
(239,45,o),
(233,44,c),
(214,42,o),
(169,42,o),
(169,65,c),
(169,73,o),
(170,83,o),
(174,95,c),
(189,135,o),
(218,212,o),
(236,265,c),
(240,271,o),
(246,279,o),
(256,278,c),
(292,278,o),
(360,279,o),
(405,278,c),
(414,278,o),
(424,273,o),
(426,269,c),
(449,206,o),
(469,152,o),
(493,89,c),
(503,61,o),
(495,48,o),
(463,46,c),
(452,46,o),
(440,45,o),
(422,45,c),
(410,45,o),
(396,42,o),
(396,22,c),
(396,10,o),
(397,-3,o),
(413,-3,c),
(483,-1,o),
(613,-1,o),
(676,-4,c)
);
},
{
closed = 1;
nodes = (
(272,347,o),
(267,348,o),
(268,353,c),
(283,393,o),
(309,460,o),
(326,512,c),
(332,531,o),
(335,528,o),
(338,521,c),
(353,471,o),
(377,398,o),
(392,358,c),
(394,353,o),
(390,345,o),
(387,345,c),
(358,346,o),
(310,346,o),
(275,345,c)
);
},
{
closed = 1;
nodes = (
(387,689,o),
(414,685,o),
(414,707,c),
(402,751,o),
(381,825,o),
(364,870,c),
(359,880,o),
(351,881,o),
(340,881,c),
(265,880,l),
(252,880,o),
(235,864,o),
(247,852,c),
(289,806,o),
(347,738,o),
(379,696,c)
);
}
);
width = 711;
}
);
unicode = 192;
},
{
glyphname = Aring;
lastChange = "2023-05-15 06:06:27 +0000";
layers = (
{
layerId = m01;
shapes = (
{
closed = 1;
nodes = (
(697,-5,o),
(695,42,o),
(677,42,c),
(670,42,l),
(628,42,o),
(621,51,o),
(605,95,c),
(596,120,o),
(587,146,o),
(578,172,c),
(556,229,o),
(510,353,o),
(393,659,c),
(383,674,o),
(362,672,o),
(346,672,c),
(344,672,o),
(323,672,o),
(314,672,c),
(301,671,o),
(292,664,o),
(294,657,c),
(300,633,l),
(116,132,l),
(112,121,o),
(106,107,o),
(100,92,c),
(81,47,o),
(76,45,o),
(28,45,c),
(24,45,o),
(16,42,o),
(14,33,c),
(12,22,o),
(13,0,o),
(28,-3,c),
(32,-3,o),
(35,-3,o),
(39,-3,c),
(92,0,o),
(194,-2,o),
(253,-3,c),
(257,-3,o),
(264,8,o),
(265,19,c),
(265,30,o),
(260,43,o),
(253,44,c),
(245,45,o),
(239,45,o),
(233,44,c),
(214,42,o),
(169,42,o),
(169,65,c),
(169,73,o),
(170,83,o),
(174,95,c),
(189,135,o),
(218,212,o),
(236,265,c),
(240,271,o),
(246,279,o),
(256,278,c),
(292,278,o),
(360,279,o),
(405,278,c),
(414,278,o),
(424,273,o),
(426,269,c),
(449,206,o),
(469,152,o),
(493,89,c),
(503,61,o),
(495,48,o),
(463,46,c),
(452,46,o),
(440,45,o),
(422,45,c),
(410,45,o),
(396,42,o),
(396,22,c),
(396,10,o),
(397,-3,o),
(413,-3,c),
(483,-1,o),
(613,-1,o),
(676,-4,c)
);
},
{
closed = 1;
nodes = (
(272,347,o),
(267,348,o),
(268,353,c),
(283,393,o),
(309,460,o),
(326,512,c),
(332,531,o),
(335,528,o),
(338,521,c),
(353,471,o),
(377,398,o),
(392,358,c),
(394,353,o),
(390,345,o),
(387,345,c),
(358,346,o),
(310,346,o),
(275,345,c)
);
},
{
closed = 1;
nodes = (
(402,722,o),
(448,768,o),
(448,825,c),
(448,882,o),
(402,928,o),
(347,928,c),
(290,928,o),
(244,882,o),
(244,825,c),
(244,768,o),
(290,722,o),
(347,722,c)
);
},
{
closed = 1;
nodes = (
(320,777,o),
(299,798,o),
(299,825,c),
(299,852,o),
(320,873,o),
(347,873,c),
(371,873,o),
(393,852,o),
(393,825,c),
(393,798,o),
(371,777,o),
(347,777,c)
);
}
);
width = 711;
}
);
unicode = 197;
},
{
glyphname = Atilde;
lastChange = "2023-05-15 06:06:27 +0000";
layers = (
{
layerId = m01;
shapes = (
{
closed = 1;
nodes = (
(697,-5,o),
(695,42,o),
(677,42,c),
(670,42,l),
(628,42,o),
(621,51,o),
(605,95,c),
(596,120,o),
(587,146,o),
(578,172,c),
(556,229,o),
(510,353,o),
(393,659,c),
(383,674,o),
(362,672,o),
(346,672,c),
(344,672,o),
(323,672,o),
(314,672,c),
(301,671,o),
(292,664,o),
(294,657,c),
(300,633,l),
(116,132,l),
(112,121,o),
(106,107,o),
(100,92,c),
(81,47,o),
(76,45,o),
(28,45,c),
(24,45,o),
(16,42,o),
(14,33,c),
(12,22,o),
(13,0,o),
(28,-3,c),
(32,-3,o),
(35,-3,o),
(39,-3,c),
(92,0,o),
(194,-2,o),
(253,-3,c),
(257,-3,o),
(264,8,o),
(265,19,c),
(265,30,o),
(260,43,o),
(253,44,c),
(245,45,o),
(239,45,o),
(233,44,c),
(214,42,o),
(169,42,o),
(169,65,c),
(169,73,o),
(170,83,o),
(174,95,c),
(189,135,o),
(218,212,o),
(236,265,c),
(240,271,o),
(246,279,o),
(256,278,c),
(292,278,o),
(360,279,o),
(405,278,c),
(414,278,o),
(424,273,o),
(426,269,c),
(449,206,o),
(469,152,o),
(493,89,c),
(503,61,o),
(495,48,o),
(463,46,c),
(452,46,o),
(440,45,o),
(422,45,c),
(410,45,o),
(396,42,o),
(396,22,c),
(396,10,o),
(397,-3,o),
(413,-3,c),
(483,-1,o),
(613,-1,o),
(676,-4,c)
);
},
{
closed = 1;
nodes = (
(272,347,o),
(267,348,o),
(268,353,c),
(283,393,o),
(309,460,o),
(326,512,c),
(332,531,o),
(335,528,o),
(338,521,c),
(353,471,o),
(377,398,o),
(392,358,c),
(394,353,o),
(390,345,o),
(387,345,c),
(358,346,o),
(310,346,o),
(275,345,c)
);
},
{
closed = 1;
nodes = (
(467,732,o),
(508,787,o),
(508,859,c),
(508,862,o),
(508,866,o),
(506,873,c),
(506,881,o),
(495,884,o),
(489,883,c),
(481,883,o),
(472,878,o),
(471,872,c),
(464,819,o),
(453,812,o),
(438,812,c),
(428,812,o),
(413,817,o),
(383,838,c),
(339,868,o),
(315,878,o),
(284,878,c),
(220,878,o),
(187,826,o),
(183,740,c),
(186,722,o),
(214,727,o),
(220,739,c),
(221,745,o),
(223,751,o),
(223,757,c),
(231,792,o),
(239,799,o),
(254,799,c),
(265,799,o),
(272,796,o),
(308,771,c),
(346,745,o),
(378,732,o),
(406,732,c)
);
}
);
width = 711;
}
);
unicode = 195;
},
{
glyphname = AE;
lastChange = "2023-05-15 06:06:27 +0000";
layers = (
{
layerId = m01;
shapes = (
{
closed = 1;
nodes = (
(13,-2,o),
(119,-6,o),
(171,-6,c),
(183,-6,o),
(189,-1,o),
(188,11,c),
(187,25,o),
(189,38,o),
(170,38,c),
(118,38,o),
(112,50,o),
(112,60,c),
(112,67,o),
(112,74,o),
(134,110,c),
(214,241,l),
(218,248,o),
(220,250,o),
(229,250,c),
(410,250,l),
(416,250,o),
(428,245,o),
(428,237,c),
(428,138,l),
(427,103,l),
(426,44,o),
(374,41,o),
(325,42,c),
(311,43,o),
(296,39,o),
(296,22,c),
(296,12,l),
(296,-3,o),
(311,-4,o),
(316,-4,c),
(465,-4,o),
(742,-1,o),
(827,-4,c),
(839,-4,o),
(859,-1,o),
(861,19,c),
(864,45,o),
(870,64,o),
(874,147,c),
(874,157,o),
(874,171,o),
(859,171,c),
(846,171,l),
(833,171,o),
(833,167,o),
(831,157,c),
(824,131,o),
(814,105,o),
(797,83,c),
(779,60,o),
(769,57,o),
(705,55,c),
(669,54,o),
(632,52,o),
(603,55,c),
(546,55,o),
(535,56,o),
(535,122,c),
(535,287,l),
(535,298,o),
(540,307,o),
(548,307,c),
(668,309,l),
(729,310,o),
(737,306,o),
(745,244,c),
(746,234,o),
(750,227,o),
(758,227,c),
(765,226,o),
(770,226,o),
(777,228,c),
(788,228,o),
(790,233,o),
(789,248,c),
(787,293,o),
(788,379,o),
(788,424,c),
(788,435,o),
(782,445,o),
(774,445,c),
(769,445,o),
(765,444,o),
(760,445,c),
(748,445,o),
(745,438,o),
(744,429,c),
(737,397,o),
(732,384,o),
(723,378,c),
(712,370,o),
(679,370,o),
(666,370,c),
(551,368,l),
(537,368,o),
(535,382,o),
(535,388,c),
(535,587,l),
(535,595,o),
(542,599,o),
(554,599,c),
(710,599,l),
(738,599,l),
(761,599,o),
(775,588,o),
(789,524,c),
(792,512,o),
(793,496,o),
(809,496,c),
(824,496,l),
(830,496,o),
(834,498,o),
(834,504,c),
(835,506,o),
(835,508,o),
(835,510,c),
(832,553,o),
(828,598,o),
(826,641,c),
(825,650,o),
(809,658,o),
(796,658,c),
(716,661,o),
(424,654,o),
(298,658,c),
(286,658,o),
(282,653,o),
(280,644,c),
(279,630,l),
(278,620,o),
(285,617,o),
(298,617,c),
(344,617,o),
(344,610,o),
(344,598,c),
(344,587,o),
(337,577,o),
(331,568,c),
(244,422,o),
(155,274,o),
(67,129,c),
(25,59,o),
(6,44,o),
(-35,39,c),
(-49,38,o),
(-58,35,o),
(-56,21,c),
(-54,10,o),
(-53,-7,o),
(-37,-6,c)
);
},
{
closed = 1;
nodes = (
(261,310,o),
(255,311,o),
(258,315,c),
(311,408,o),
(373,513,o),
(419,582,c),
(428,597,o),
(428,581,o),
(428,579,c),
(428,331,l),
(428,323,o),
(417,310,o),
(407,310,c),
(270,310,l)
);
}
);
width = 915;
}
);
unicode = 198;
},
{
glyphname = B;
lastChange = "2023-05-15 06:06:27 +0000";
layers = (
{
layerId = m01;
shapes = (
{
closed = 1;
nodes = (
(119,-2,o),
(228,-2,o),
(325,-4,c),
(408,-6,o),
(426,0,o),
(458,6,c),
(546,23,o),
(615,108,o),
(615,201,c),
(615,272,o),
(569,328,o),
(499,362,c),
(491,366,o),
(485,373,o),
(497,379,c),
(544,404,o),
(577,449,o),
(577,500,c),
(577,557,o),
(541,607,o),
(486,632,c),
(439,653,o),
(418,660,o),
(331,660,c),
(228,660,o),
(144,663,o),
(42,651,c),
(31,650,o),
(28,606,o),
(42,606,c),
(65,606,l),
(127,606,o),
(142,606,o),
(142,512,c),
(142,136,l),
(142,57,o),
(133,45,o),
(58,45,c),
(50,47,o),
(40,45,o),
(32,44,c),
(23,41,o),
(11,-2,o),
(34,-4,c)
);
},
{
closed = 1;
nodes = (
(289,49,o),
(264,66,o),
(258,101,c),
(255,116,o),
(253,144,o),
(253,178,c),
(253,320,l),
(253,328,o),
(260,342,o),
(270,344,c),
(326,344,o),
(374,353,o),
(424,323,c),
(469,297,o),
(496,248,o),
(496,195,c),
(496,113,o),
(440,49,o),
(357,49,c)
);
},
{
closed = 1;
nodes = (
(271,390,o),
(253,394,o),
(253,404,c),
(253,600,l),
(253,610,o),
(259,616,o),
(266,618,c),
(320,622,o),
(375,628,o),
(421,590,c),
(447,568,o),
(461,534,o),
(461,494,c),
(461,449,o),
(443,417,o),
(413,404,c),
(369,385,o),
(319,390,o),
(272,390,c)
);
}
);
width = 656;
}
);
unicode = 66;
},
{
glyphname = C;
lastChange = "2023-05-15 06:39:53 +0000";
layers = (
{
layerId = m01;
shapes = (
{
closed = 1;
nodes = (
(450,-19,o),
(490,-17,o),
(527,-5,c),
(557,5,o),
(570,10,o),
(602,10,c),
(609,10,o),
(611,10,o),
(627,6,c),
(656,54,o),
(683,116,o),
(699,168,c),
(704,187,o),
(663,187,o),
(657,173,c),
(632,128,o),
(625,119,o),
(600,96,c),
(553,54,o),
(508,34,o),
(443,34,c),
(287,34,o),
(178,163,o),
(178,338,c),
(178,509,o),
(273,616,o),
(429,616,c),
(530,616,o),
(598,560,o),
(631,464,c),
(639,451,o),
(667,457,o),
(671,474,c),
(670,493,o),
(671,512,o),
(671,534,c),
(672,558,o),
(670,586,o),
(662,624,c),
(660,631,o),
(636,634,o),
(629,628,c),
(617,618,o),
(599,626,o),
(586,631,c),
(525,654,o),
(487,665,o),
(423,665,c),
(205,665,o),
(53,522,o),
(53,317,c),
(53,123,o),
(201,-19,o),
(412,-19,c)
);
}
);
width = 762;
}
);
unicode = 67;
},
{
glyphname = Ccedilla;
lastChange = "2023-05-15 06:06:27 +0000";
layers = (
{
layerId = m01;
shapes = (
{
closed = 1;
nodes = (
(429,-253,o),
(471,-201,o),
(471,-148,c),
(471,-112,o),
(451,-83,o),
(422,-71,c),
(414,-68,o),
(405,-65,o),
(409,-57,c),
(424,-28,l),
(428,-22,o),
(434,-19,o),
(440,-18,c),
(469,-17,o),
(499,-14,o),
(527,-5,c),
(557,5,o),
(570,10,o),
(602,10,c),
(609,10,o),
(611,10,o),
(627,6,c),
(656,54,o),
(683,116,o),
(699,168,c),
(704,187,o),
(663,187,o),
(657,173,c),
(632,128,o),
(625,119,o),
(600,96,c),
(553,54,o),
(508,34,o),
(443,34,c),
(287,34,o),
(178,163,o),
(178,338,c),
(178,509,o),
(273,617,o),
(429,617,c),
(530,617,o),
(598,560,o),
(631,464,c),
(639,451,o),
(667,457,o),
(671,474,c),
(670,493,o),
(671,512,o),
(671,534,c),
(672,558,o),
(670,586,o),
(662,624,c),
(660,631,o),
(636,634,o),
(629,628,c),
(617,618,o),
(599,626,o),
(586,631,c),
(525,654,o),
(487,665,o),
(423,665,c),
(205,665,o),
(55,523,o),
(55,318,c),
(55,136,o),
(184,-1,o),
(374,-17,c),
(380,-18,o),
(390,-21,o),
(384,-31,c),
(325,-129,l),
(316,-144,o),
(323,-156,o),
(333,-152,c),
(368,-134,o),
(375,-133,o),
(385,-133,c),
(398,-133,o),
(409,-145,o),
(409,-164,c),
(409,-185,o),
(390,-214,o),
(367,-214,c),
(363,-214,o),
(357,-213,o),
(348,-211,c),
(343,-210,o),
(336,-212,o),
(334,-217,c),
(332,-219,o),
(329,-226,o),
(327,-229,c),
(323,-235,o),
(322,-240,o),
(336,-246,c),
(352,-252,o),
(365,-253,o),
(377,-253,c)
);
}
);
width = 762;
}
);
unicode = 199;
},
{
glyphname = D;
lastChange = "2023-05-15 06:39:53 +0000";
layers = (
{
layerId = m01;
shapes = (
{
closed = 1;
nodes = (
(279,-3,l),
(351,-3,o),
(404,-2,o),
(475,18,c),
(620,60,o),
(722,196,o),
(722,346,c),
(722,446,o),
(679,531,o),
(600,588,c),
(528,639,o),
(451,659,o),
(322,659,c),
(224,659,o),
(130,655,o),
(31,651,c),
(29,650,o),
(26,650,o),
(24,649,c),
(14,646,o),
(8,606,o),
(25,606,c),
(34,606,l),
(113,606,o),
(111,594,o),
(111,512,c),
(111,137,l),
(111,118,o),
(113,98,o),
(107,80,c),
(94,42,o),
(57,51,o),
(28,46,c),
(10,40,o),
(13,18,o),
(16,9,c),
(20,-3,o),
(34,-4,o),
(43,-4,c)
);
},
{
closed = 1;
nodes = (
(229,45,o),
(221,62,o),
(221,106,c),
(221,594,l),
(221,604,o),
(231,613,o),
(240,614,c),
(283,616,o),
(306,616,o),
(349,612,c),
(426,604,o),
(462,590,o),
(505,558,c),
(566,511,o),
(602,426,o),
(602,330,c),
(602,124,o),
(474,45,o),
(291,45,c)
);
}
);
width = 773;
}
);
unicode = 68;
},
{
glyphname = Eth;
lastChange = "2023-05-15 06:06:27 +0000";
layers = (
{
layerId = m01;
shapes = (
{
closed = 1;
nodes = (
(102,-4,o),
(227,-5,o),
(280,-5,c),
(417,-5,o),
(428,-3,o),
(494,16,c),
(640,58,o),
(750,197,o),
(750,349,c),
(750,450,o),
(701,537,o),
(622,595,c),
(550,647,o),
(466,667,o),
(337,667,c),
(263,667,o),
(188,667,o),
(114,664,c),
(32,661,l),
(20,659,o),
(13,652,o),
(13,636,c),
(13,624,o),
(18,613,o),
(33,613,c),
(108,613,o),
(114,613,o),
(114,518,c),
(114,398,l),
(114,389,o),
(108,375,o),
(99,375,c),
(24,375,l),
(-1,375,o),
(0,355,o),
(0,355,c),
(0,320,l),
(0,308,o),
(5,300,o),
(15,298,c),
(99,299,l),
(109,299,o),
(114,292,o),
(114,284,c),
(114,224,o),
(115,161,o),
(113,102,c),
(112,52,o),
(99,43,o),
(43,43,c),
(29,43,o),
(23,49,o),
(14,33,c),
(11,27,o),
(12,15,o),
(12,8,c),
(12,-2,o),
(22,-7,o),
(30,-6,c)
);
},
{
closed = 1;
nodes = (
(222,37,o),
(221,43,o),
(221,103,c),
(221,280,l),
(221,292,o),
(228,299,o),
(235,299,c),
(376,300,l),
(393,300,o),
(399,302,o),
(402,316,c),
(402,353,l),
(402,363,o),
(396,376,o),
(375,376,c),
(236,375,l),
(229,375,o),
(221,387,o),
(221,396,c),
(221,606,l),
(221,632,o),
(254,625,o),
(271,625,c),
(307,625,o),
(329,622,o),
(365,619,c),
(442,611,o),
(483,598,o),
(525,565,c),
(587,517,o),
(625,431,o),
(625,332,c),
(625,213,o),
(564,107,o),
(468,63,c),
(422,42,o),
(389,37,o),
(296,37,c)
);
}
);
width = 795;
}
);
unicode = 208;
},
{
glyphname = E;
lastChange = "2023-05-15 06:06:27 +0000";
layers = (
{
layerId = m01;
shapes = (
{
closed = 1;
nodes = (
(173,-1,o),
(390,-1,o),
(521,-2,c),
(535,-2,o),
(563,-4,o),
(565,17,c),
(575,101,o),
(585,152,o),
(579,163,c),
(576,169,o),
(562,172,o),
(550,171,c),
(544,170,o),
(538,166,o),
(536,156,c),
(527,121,o),
(514,94,o),
(501,79,c),
(486,61,o),
(475,57,o),
(401,57,c),
(330,57,l),
(254,57,o),
(257,58,o),
(257,131,c),
(257,286,l),
(257,292,o),
(261,306,o),
(278,306,c),
(375,306,l),
(451,305,o),
(452,302,o),
(462,238,c),
(464,226,o),
(502,219,o),
(503,247,c),
(503,291,o),
(505,372,o),
(503,423,c),
(498,450,o),
(466,442,o),
(463,433,c),
(454,365,o),
(453,365,o),
(378,365,c),
(275,365,l),
(272,365,o),
(257,366,o),
(257,380,c),
(257,577,l),
(257,588,o),
(269,595,o),
(275,595,c),
(316,597,o),
(366,595,o),
(399,594,c),
(476,593,o),
(485,586,o),
(498,507,c),
(498,502,o),
(499,494,o),
(509,492,c),
(520,488,o),
(539,490,o),
(541,500,c),
(539,529,o),
(540,563,o),
(532,635,c),
(531,644,o),
(520,650,o),
(508,650,c),
(413,652,o),
(201,651,o),
(71,650,c),
(62,650,o),
(54,652,o),
(49,642,c),
(45,635,o),
(41,624,o),
(45,616,c),
(53,602,o),
(64,604,o),
(77,604,c),
(142,604,o),
(148,579,o),
(148,511,c),
(148,137,l),
(148,59,o),
(132,49,o),
(81,48,c),
(66,48,o),
(53,49,o),
(39,47,c),
(22,45,o),
(15,2,o),
(37,-2,c),
(42,-3,l)
);
}
);
width = 619;
}
);
unicode = 69;
},
{
glyphname = Eacute;
lastChange = "2023-05-15 06:06:27 +0000";
layers = (
{
layerId = m01;
shapes = (
{
closed = 1;
nodes = (
(172,-2,o),
(387,-2,o),
(521,-2,c),
(535,-2,o),
(563,-4,o),
(565,17,c),
(568,44,o),
(578,92,o),
(579,164,c),
(576,170,o),
(564,173,o),
(552,172,c),
(546,170,o),
(540,167,o),
(538,157,c),
(529,122,o),
(516,95,o),
(503,79,c),
(488,61,o),
(475,57,o),
(401,57,c),
(323,57,l),
(254,57,o),
(254,58,o),
(254,132,c),
(254,298,l),
(254,304,o),
(258,306,o),
(263,307,c),
(376,307,l),
(451,307,o),
(452,304,o),
(462,239,c),
(464,227,o),
(502,220,o),
(503,248,c),
(503,292,o),
(505,374,o),
(503,425,c),
(496,463,o),
(464,436,o),
(463,435,c),
(454,367,o),
(453,366,o),
(378,366,c),
(263,366,l),
(261,366,o),
(254,372,o),
(254,382,c),
(254,581,l),
(254,586,o),
(263,597,o),
(268,598,c),
(309,599,o),
(366,597,o),
(399,597,c),
(476,595,o),
(487,588,o),
(500,510,c),
(500,505,o),
(501,496,o),
(511,494,c),
(522,490,o),
(539,492,o),
(541,502,c),
(539,531,o),
(540,566,o),
(532,638,c),
(531,647,o),
(520,653,o),
(508,653,c),
(413,655,o),
(201,654,o),
(71,653,c),
(62,653,o),
(54,655,o),
(49,645,c),
(45,638,o),
(41,626,o),
(45,619,c),
(53,605,o),
(64,607,o),
(77,607,c),
(145,607,o),
(149,592,o),
(149,513,c),
(149,138,l),
(149,54,o),
(141,47,o),
(81,45,c),
(66,45,o),
(53,46,o),
(39,44,c),
(22,42,o),
(15,2,o),
(37,-2,c),
(42,-3,l)
);
},
{
closed = 1;
nodes = (
(423,862,l),
(424,863,o),
(424,865,o),
(425,866,c),
(425,868,l),
(425,868,o),
(425,868,o),
(426,869,c),
(427,882,o),
(417,886,o),
(407,886,c),
(320,885,l),
(311,885,o),
(300,879,o),
(297,868,c),
(249,706,l),
(242,684,o),
(274,683,o),
(283,692,c)
);
}
);
width = 619;
}
);
unicode = 201;
},
{
glyphname = Ecircumflex;
lastChange = "2023-05-15 06:06:27 +0000";
layers = (
{
layerId = m01;
shapes = (
{
closed = 1;
nodes = (
(172,-2,o),
(387,-2,o),
(521,-2,c),
(535,-2,o),
(563,-4,o),
(565,17,c),
(568,44,o),
(578,92,o),
(579,164,c),
(576,170,o),
(564,173,o),
(552,172,c),
(546,170,o),
(540,167,o),
(538,157,c),
(529,122,o),
(516,95,o),
(503,79,c),
(488,61,o),
(475,57,o),
(401,57,c),
(323,57,l),
(254,57,o),
(254,58,o),
(254,132,c),
(254,298,l),
(254,304,o),
(258,306,o),
(263,307,c),
(376,307,l),
(451,307,o),
(452,304,o),
(462,239,c),
(464,227,o),
(502,220,o),
(503,248,c),
(503,292,o),
(505,374,o),
(503,425,c),
(496,463,o),
(464,436,o),
(463,435,c),
(454,367,o),
(453,366,o),
(378,366,c),
(263,366,l),
(261,366,o),
(254,372,o),
(254,382,c),
(254,581,l),
(254,586,o),
(263,597,o),
(268,597,c),
(309,599,o),
(366,597,o),
(399,596,c),
(476,595,o),
(487,588,o),
(500,510,c),
(500,505,o),
(501,496,o),
(511,494,c),
(522,490,o),
(539,492,o),
(541,502,c),
(539,531,o),
(540,566,o),
(532,638,c),
(531,647,o),
(520,653,o),
(508,653,c),
(413,655,o),
(201,654,o),
(71,653,c),
(62,653,o),
(54,655,o),
(49,645,c),
(45,638,o),
(41,626,o),
(45,619,c),
(53,604,o),
(64,607,o),
(77,607,c),
(145,607,o),
(149,592,o),
(149,513,c),
(149,138,l),
(149,54,o),
(141,47,o),
(81,45,c),
(66,45,o),
(53,46,o),
(39,44,c),
(22,42,o),
(15,2,o),
(37,-2,c),
(42,-3,l)
);
},
{
closed = 1;
nodes = (
(461,698,o),
(460,708,o),
(456,716,c),
(369,866,l),
(364,876,o),
(361,878,o),
(349,879,c),
(336,880,o),
(282,879,o),
(273,878,c),
(267,876,o),
(261,872,o),
(257,865,c),
(171,711,l),
(163,697,o),
(190,688,o),
(202,699,c),
(311,798,l),
(427,699,l),
(432,694,o),
(444,694,o),
(452,696,c)
);
}
);
width = 619;
}
);
unicode = 202;
},
{
glyphname = Edieresis;
lastChange = "2023-05-15 06:06:27 +0000";
layers = (
{
layerId = m01;
shapes = (
{
closed = 1;
nodes = (
(172,-2,o),
(387,-2,o),
(521,-2,c),
(535,-2,o),
(563,-4,o),
(565,17,c),
(568,44,o),
(578,92,o),
(579,164,c),
(576,170,o),
(564,173,o),
(552,172,c),
(546,170,o),
(540,167,o),
(538,157,c),
(529,122,o),
(516,95,o),
(503,79,c),
(488,61,o),
(475,57,o),
(401,57,c),
(323,57,l),
(254,57,o),
(254,58,o),
(254,132,c),
(254,297,l),
(254,303,o),
(258,306,o),
(263,307,c),
(376,307,l),
(451,307,o),
(452,304,o),
(462,238,c),
(464,227,o),
(502,220,o),
(503,248,c),
(503,292,o),
(505,374,o),
(503,424,c),
(496,462,o),
(464,436,o),
(463,435,c),
(454,366,o),
(453,366,o),
(378,366,c),
(263,366,l),
(261,366,o),
(254,372,o),
(254,381,c),
(254,581,l),
(254,586,o),
(263,597,o),
(268,597,c),
(309,599,o),
(366,597,o),
(399,596,c),
(476,595,o),
(487,588,o),
(500,509,c),
(500,504,o),
(501,495,o),
(511,494,c),
(522,490,o),
(539,492,o),
(541,502,c),
(539,531,o),
(540,565,o),
(532,637,c),
(531,646,o),
(520,652,o),
(508,652,c),
(413,654,o),
(201,653,o),
(71,652,c),
(62,652,o),
(54,654,o),
(49,644,c),
(45,637,o),
(41,626,o),
(45,619,c),
(53,604,o),
(64,607,o),
(77,607,c),
(145,607,o),
(149,592,o),
(149,513,c),
(149,138,l),
(149,54,o),
(141,47,o),
(81,45,c),
(66,45,o),
(53,46,o),
(39,44,c),
(22,42,o),
(15,2,o),
(37,-2,c),
(42,-3,l)
);
},
{
closed = 1;
nodes = (
(262,698,o),
(290,724,o),
(290,759,c),
(290,793,o),
(262,821,o),
(228,821,c),
(194,821,o),
(167,793,o),
(167,759,c),
(167,724,o),
(195,698,o),
(228,698,c)
);
},
{
closed = 1;
nodes = (
(429,698,o),
(455,726,o),
(455,759,c),
(455,793,o),
(429,821,o),
(393,821,c),
(360,821,o),
(332,793,o),
(332,759,c),
(332,726,o),
(360,698,o),
(393,698,c)
);
}
);
width = 619;
}
);
unicode = 203;
},
{
glyphname = Egrave;
lastChange = "2023-05-15 06:06:27 +0000";
layers = (
{
layerId = m01;
shapes = (
{
closed = 1;
nodes = (
(172,-2,o),
(387,-2,o),
(521,-2,c),
(535,-2,o),
(563,-4,o),
(565,17,c),
(568,44,o),
(578,92,o),
(579,164,c),
(576,170,o),
(564,173,o),
(552,172,c),
(546,170,o),
(540,167,o),
(538,157,c),
(529,122,o),
(516,95,o),
(503,79,c),
(488,61,o),
(475,57,o),
(401,57,c),
(323,57,l),
(254,57,o),
(254,58,o),
(254,132,c),
(254,298,l),
(254,304,o),
(258,306,o),
(263,307,c),
(376,307,l),
(451,307,o),
(452,304,o),
(462,239,c),
(464,227,o),
(502,220,o),
(503,248,c),
(503,292,o),
(505,374,o),
(503,425,c),
(496,463,o),
(464,436,o),
(463,435,c),
(454,367,o),
(453,366,o),
(378,366,c),
(263,366,l),
(261,366,o),
(254,372,o),
(254,382,c),
(254,581,l),
(254,586,o),
(263,597,o),
(268,598,c),
(309,599,o),
(366,597,o),
(399,597,c),
(476,595,o),
(487,588,o),
(500,510,c),
(500,505,o),
(501,496,o),
(511,494,c),
(522,490,o),
(539,492,o),
(541,502,c),
(539,531,o),
(540,566,o),
(532,638,c),
(531,647,o),
(520,653,o),
(508,653,c),
(413,655,o),
(201,654,o),
(71,653,c),
(62,653,o),
(54,655,o),
(49,645,c),
(45,638,o),
(41,626,o),
(45,619,c),
(53,604,o),
(64,607,o),
(77,607,c),
(145,607,o),
(149,592,o),
(149,513,c),
(149,138,l),
(149,54,o),
(141,47,o),
(81,45,c),
(66,45,o),
(53,46,o),
(39,44,c),
(22,42,o),
(15,2,o),
(37,-2,c),
(42,-3,l)
);
},
{
closed = 1;
nodes = (
(344,688,o),
(370,685,o),
(370,707,c),
(360,751,o),
(338,825,o),
(322,870,c),
(315,881,o),
(306,881,o),
(298,881,c),
(223,880,l),
(209,880,o),
(193,864,o),
(204,852,c),
(247,806,o),
(305,738,o),
(336,696,c)
);
}
);
width = 619;
}
);
unicode = 200;
},
{
glyphname = F;
lastChange = "2023-05-15 06:06:27 +0000";
layers = (
{
layerId = m01;
shapes = (
{
closed = 1;
nodes = (
(131,-1,o),
(229,-2,o),
(302,-3,c),
(309,-4,o),
(315,6,o),
(315,18,c),
(315,33,o),
(313,41,o),
(304,43,c),
(293,43,l),
(239,43,o),
(226,53,o),
(226,103,c),
(226,298,l),
(226,306,o),
(234,317,o),
(245,318,c),
(273,317,o),
(325,317,o),
(353,318,c),
(427,320,o),
(435,311,o),
(440,251,c),
(442,234,o),
(476,239,o),
(478,250,c),
(480,302,o),
(478,418,o),
(478,428,c),
(476,443,o),
(441,442,o),
(439,424,c),
(435,380,o),
(427,377,o),
(357,377,c),
(316,376,o),
(280,374,o),
(240,377,c),
(237,377,o),
(225,384,o),
(225,389,c),
(226,576,l),
(229,587,o),
(233,592,o),
(241,592,c),
(354,592,l),
(439,592,o),
(452,582,o),
(456,527,c),
(456,522,o),
(456,516,o),
(464,513,c),
(473,511,o),
(485,510,o),
(496,517,c),
(499,627,l),
(500,637,o),
(489,650,o),
(478,650,c),
(365,651,o),
(171,651,o),
(57,650,c),
(37,652,o),
(38,609,o),
(52,606,c),
(103,604,o),
(118,595,o),
(118,545,c),
(118,103,l),
(118,54,o),
(106,44,o),
(52,41,c),
(39,39,o),
(34,-3,o),
(56,-3,c)
);
}
);
width = 543;
}
);
unicode = 70;
},
{
glyphname = G;
lastChange = "2023-05-15 06:39:53 +0000";
layers = (
{
layerId = m01;
shapes = (
{
closed = 1;
nodes = (
(471,-19,o),
(579,9,o),
(646,44,c),
(657,49,o),
(658,64,o),
(658,75,c),
(657,105,o),
(657,160,o),
(658,187,c),
(659,235,o),
(671,248,o),
(715,250,c),
(720,250,o),
(728,260,o),
(730,270,c),
(732,278,o),
(730,293,o),
(715,293,c),
(649,292,o),
(517,291,o),
(443,293,c),
(419,290,o),
(428,248,o),
(443,248,c),
(481,247,l),
(538,245,o),
(552,235,o),
(552,187,c),
(552,154,o),
(552,113,o),
(552,87,c),
(552,78,o),
(552,63,o),
(543,59,c),
(502,41,o),
(460,29,o),
(418,29,c),
(271,29,o),
(175,147,o),
(175,319,c),
(175,506,o),
(269,621,o),
(429,621,c),
(533,621,o),
(591,567,o),
(612,461,c),
(615,445,o),
(653,444,o),
(654,464,c),
(657,515,o),
(655,630,o),
(650,639,c),
(647,645,o),
(627,645,o),
(623,639,c),
(617,633,o),
(615,632,o),
(607,632,c),
(600,632,o),
(595,632,o),
(578,637,c),
(505,659,o),
(468,667,o),
(414,667,c),
(308,667,o),
(239,638,o),
(171,574,c),
(100,508,o),
(55,414,o),
(55,314,c),
(55,123,o),
(191,-19,o),
(386,-19,c)
);
}
);
width = 763;
}
);
unicode = 71;
},
{
glyphname = H;
lastChange = "2023-05-15 06:06:27 +0000";
layers = (
{
layerId = m01;
shapes = (
{
closed = 1;
nodes = (
(109,-3,o),
(234,-1,o),
(298,-3,c),
(325,1,o),
(318,48,o),
(297,45,c),
(288,45,l),
(236,45,o),
(223,54,o),
(223,103,c),
(223,280,l),
(223,293,o),
(237,299,o),
(238,299,c),
(341,299,o),
(444,298,o),
(541,299,c),
(548,299,o),
(563,294,o),
(564,286,c),
(564,103,l),
(564,56,o),
(544,46,o),
(494,46,c),
(470,46,l),
(453,46,o),
(449,22,o),
(453,10,c),
(455,1,o),
(461,-3,o),
(471,-3,c),
(604,-3,o),
(682,-1,o),
(751,-3,c),
(769,-3,o),
(772,25,o),
(768,36,c),
(763,46,o),
(750,47,o),
(741,47,c),
(689,47,o),
(671,61,o),
(671,103,c),
(671,198,o),
(668,396,o),
(671,545,c),
(673,594,o),
(699,602,o),
(731,605,c),
(734,605,o),
(737,605,o),
(740,606,c),
(761,610,o),
(755,651,o),
(732,650,c),
(673,648,o),
(556,655,o),
(485,653,c),
(474,653,o),
(467,651,o),
(462,641,c),
(458,629,o),
(460,610,o),
(473,608,c),
(494,607,l),
(537,605,o),
(564,593,o),
(564,545,c),
(564,486,o),
(565,437,o),
(564,377,c),
(564,363,o),
(545,356,o),
(540,356,c),
(431,354,o),
(340,356,o),
(240,356,c),
(230,356,o),
(223,363,o),
(223,375,c),
(223,545,l),
(223,589,o),
(237,608,o),
(293,608,c),
(301,609,o),
(308,609,o),
(310,618,c),
(312,627,o),
(314,637,o),
(307,645,c),
(299,650,o),
(301,650,o),
(293,650,c),
(237,647,o),
(120,647,o),
(56,650,c),
(46,651,o),
(43,628,o),
(47,615,c),
(50,607,o),
(52,608,o),
(61,607,c),
(103,604,o),
(116,592,o),
(116,545,c),
(116,103,l),
(116,57,o),
(103,49,o),
(61,46,c),
(48,46,o),
(34,50,o),
(27,37,c),
(22,28,o),
(24,14,o),
(26,7,c),
(30,-2,o),
(39,-3,o),
(47,-3,c)
);
}
);
width = 788;
}
);
unicode = 72;
},
{
glyphname = I;
lastChange = "2023-05-15 06:06:27 +0000";
layers = (
{
layerId = m01;
shapes = (
{
closed = 1;
nodes = (
(129,-2,o),
(245,-2,o),
(306,-4,c),
(320,-4,o),
(323,21,o),
(317,35,c),
(313,43,o),
(310,45,o),
(302,45,c),
(253,47,o),
(233,45,o),
(233,103,c),
(233,511,l),
(233,600,o),
(240,606,o),
(294,607,c),
(301,607,o),
(311,608,o),
(314,615,c),
(317,620,o),
(318,629,o),
(317,635,c),
(316,650,o),
(306,651,o),
(296,651,c),
(179,646,o),
(154,650,o),
(76,651,c),
(67,651,o),
(63,651,o),
(58,643,c),
(53,634,o),
(52,616,o),
(62,609,c),
(64,608,o),
(70,607,o),
(74,607,c),
(122,601,o),
(127,594,o),
(128,545,c),
(129,511,l),
(129,137,l),
(128,103,l),
(127,60,o),
(120,49,o),
(76,44,c),
(66,43,o),
(60,45,o),
(54,37,c),
(51,32,o),
(52,23,o),
(52,17,c),
(52,5,o),
(60,-4,o),
(69,-4,c)
);
}
);
width = 363;
}
);
unicode = 73;
},
{
glyphname = Iacute;
lastChange = "2023-05-15 06:06:27 +0000";
layers = (
{
layerId = m01;
shapes = (
{
closed = 1;
nodes = (
(129,-1,o),
(246,-1,o),
(307,-3,c),
(325,-4,o),
(324,33,o),
(310,42,c),
(307,43,o),
(304,43,o),
(302,43,c),
(253,46,o),
(233,45,o),
(233,103,c),
(233,513,l),
(233,603,o),
(240,609,o),
(294,609,c),
(298,609,o),
(303,610,o),
(307,610,c),
(315,612,o),
(318,628,o),
(317,638,c),
(316,653,o),
(306,654,o),
(296,654,c),
(179,648,o),
(155,653,o),
(76,654,c),
(71,654,l),
(69,654,o),
(67,654,o),
(66,653,c),
(53,649,o),
(46,614,o),
(72,611,c),
(121,606,o),
(127,596,o),
(128,548,c),
(129,513,l),
(129,138,l),
(128,103,l),
(126,53,o),
(124,47,o),
(65,41,c),
(59,41,o),
(52,28,o),
(52,17,c),
(52,5,o),
(60,-3,o),
(69,-3,c)
);
},
{
closed = 1;
nodes = (
(150,700,o),
(251,826,o),
(280,863,c),
(293,879,o),
(296,892,o),
(269,894,c),
(252,896,o),
(224,893,o),
(186,893,c),
(177,893,o),
(168,887,o),
(163,877,c),
(116,714,l),
(109,692,o),
(142,691,o),
(150,700,c)
);
}
);
width = 363;
}
);
unicode = 205;
},
{
glyphname = Icircumflex;
lastChange = "2023-05-15 06:06:27 +0000";
layers = (
{
layerId = m01;
shapes = (
{
closed = 1;
nodes = (
(129,-1,o),
(247,-1,o),
(308,-3,c),
(319,-3,o),
(330,30,o),
(310,42,c),
(307,43,o),
(304,43,o),
(302,43,c),
(253,45,o),
(232,45,o),
(232,103,c),
(232,513,l),
(232,603,o),
(240,608,o),
(295,609,c),
(298,609,o),
(303,610,o),
(309,610,c),
(315,612,o),
(319,628,o),
(318,638,c),
(317,653,o),
(305,654,o),
(297,654,c),
(179,648,o),
(155,653,o),
(75,654,c),
(70,654,l),
(69,654,o),
(67,654,o),
(65,653,c),
(53,649,o),
(46,614,o),
(71,611,c),
(122,606,o),
(127,596,o),
(128,547,c),
(129,513,l),
(129,138,l),
(128,103,l),
(127,53,o),
(123,47,o),
(65,41,c),
(60,41,o),
(51,28,o),
(51,17,c),
(51,5,o),
(59,-3,o),
(69,-3,c)
);
},
{
closed = 1;
nodes = (
(327,690,o),
(327,700,o),
(323,708,c),
(238,858,l),
(232,868,o),
(228,870,o),
(217,871,c),
(205,872,o),
(152,871,o),
(143,870,c),
(137,868,o),
(131,864,o),
(127,857,c),
(43,703,l),
(35,689,o),
(61,680,o),
(73,691,c),
(180,790,l),
(294,691,l),
(299,686,o),
(311,686,o),
(318,688,c)
);
}
);
width = 362;
}
);
unicode = 206;
},
{
glyphname = Idieresis;
lastChange = "2023-05-15 06:06:27 +0000";
layers = (
{
layerId = m01;
shapes = (
{
closed = 1;
nodes = (
(130,-1,o),
(247,-1,o),
(308,-3,c),
(326,-4,o),
(325,33,o),
(311,42,c),
(308,43,o),
(305,43,o),
(303,43,c),
(254,45,o),
(233,45,o),
(233,103,c),
(233,513,l),
(233,602,o),
(240,608,o),
(295,609,c),
(300,609,o),
(304,610,o),
(309,610,c),
(317,611,o),
(319,627,o),
(318,638,c),
(317,652,o),
(307,654,o),
(297,653,c),
(180,648,o),
(155,653,o),
(76,653,c),
(71,653,l),
(70,653,o),
(68,653,o),
(66,653,c),
(53,648,o),
(47,614,o),
(72,611,c),
(121,605,o),
(127,596,o),
(128,547,c),
(129,513,l),
(129,138,l),
(128,103,l),
(127,53,o),
(124,47,o),
(66,41,c),
(59,41,o),
(52,28,o),
(52,17,c),
(52,5,o),
(60,-3,o),
(69,-3,c)
);
},
{
closed = 1;
nodes = (
(126,695,o),
(154,723,o),
(154,759,c),
(154,795,o),
(126,824,o),
(91,824,c),
(56,824,o),
(28,795,o),
(28,759,c),
(28,723,o),
(56,695,o),
(91,695,c)
);
},
{
closed = 1;
nodes = (
(299,695,o),
(326,724,o),
(326,759,c),
(326,795,o),
(299,824,o),
(262,824,c),
(227,824,o),
(199,795,o),
(199,759,c),
(199,724,o),
(227,695,o),
(262,695,c)
);
}
);
width = 363;
}
);
unicode = 207;
},
{
glyphname = Igrave;
lastChange = "2023-05-15 06:06:27 +0000";
layers = (
{
layerId = m01;
shapes = (
{
closed = 1;
nodes = (
(129,-1,o),
(246,-1,o),
(307,-3,c),
(325,-4,o),
(324,33,o),
(310,42,c),
(307,43,o),
(304,43,o),
(302,43,c),
(253,46,o),
(233,45,o),
(233,103,c),
(233,513,l),
(233,603,o),
(240,609,o),
(294,609,c),
(298,609,o),
(303,610,o),
(307,610,c),
(315,612,o),
(318,628,o),
(317,638,c),
(316,653,o),
(306,654,o),
(296,654,c),
(179,648,o),
(154,653,o),
(76,654,c),
(71,654,l),
(69,654,o),
(67,654,o),
(66,653,c),
(53,649,o),
(46,614,o),
(72,611,c),
(121,606,o),
(127,596,o),
(128,547,c),
(129,513,l),
(129,138,l),
(128,103,l),
(126,53,o),
(124,47,o),
(65,41,c),
(59,41,o),
(52,28,o),
(52,17,c),
(52,5,o),
(60,-3,o),
(69,-3,c)
);
},
{
closed = 1;
nodes = (
(210,686,o),
(234,689,o),
(233,708,c),
(223,751,o),
(202,825,o),
(185,870,c),
(178,881,o),
(171,881,o),
(162,881,c),
(88,880,l),
(75,880,o),
(60,864,o),
(71,852,c),
(112,806,o),
(168,738,o),
(199,696,c)
);
}
);
width = 363;
}
);
unicode = 204;
},
{
glyphname = J;
lastChange = "2023-05-15 06:06:27 +0000";
layers = (
{
layerId = m01;
shapes = (
{
closed = 1;
nodes = (
(70,-289,o),
(116,-253,o),
(151,-199,c),
(196,-129,o),
(216,-9,o),
(216,74,c),
(216,545,l),
(216,580,o),
(230,603,o),
(260,605,c),
(268,606,o),
(285,606,o),
(291,609,c),
(301,612,o),
(306,650,o),
(283,650,c),
(178,651,o),
(114,649,o),
(55,649,c),
(46,650,o),
(40,650,o),
(33,650,c),
(7,653,o),
(11,609,o),
(29,608,c),
(32,608,o),
(37,605,o),
(41,605,c),
(95,605,o),
(109,595,o),
(110,545,c),
(111,524,o),
(111,505,o),
(111,484,c),
(111,430,o),
(111,307,o),
(111,9,c),
(111,-129,o),
(107,-165,o),
(87,-194,c),
(74,-213,o),
(46,-225,o),
(27,-215,c),
(18,-210,o),
(11,-203,o),
(3,-197,c),
(-10,-187,o),
(-24,-170,o),
(-42,-170,c),
(-69,-170,o),
(-90,-195,o),
(-90,-222,c),
(-90,-263,o),
(-46,-289,o),
(10,-289,c)
);
}
);
width = 324;
}
);
unicode = 74;
},
{
glyphname = K;
lastChange = "2023-05-15 06:39:53 +0000";
layers = (
{
layerId = m01;
shapes = (
{
closed = 1;
nodes = (
(104,-2,o),
(235,-1,o),
(309,-4,c),
(317,-4,o),
(325,-3,o),
(328,3,c),
(331,10,o),
(331,27,o),
(328,34,c),
(323,43,o),
(312,44,o),
(304,44,c),
(248,44,o),
(234,60,o),
(234,103,c),
(234,266,l),
(234,276,o),
(235,293,o),
(244,292,c),
(254,290,o),
(264,287,o),
(275,278,c),
(348,226,o),
(400,151,o),
(455,82,c),
(464,71,o),
(474,43,o),
(417,41,c),
(408,41,o),
(401,43,o),
(397,32,c),
(394,23,o),
(395,12,o),
(398,5,c),
(402,-2,o),
(408,-3,o),
(415,-4,c),
(482,-3,o),
(618,2,o),
(698,-3,c),
(718,1,o),
(717,24,o),
(711,36,c),
(707,45,o),
(702,45,o),
(693,45,c),
(633,45,o),
(612,51,o),
(570,102,c),
(514,170,o),
(464,242,o),
(400,302,c),
(377,325,o),
(363,337,o),
(350,344,c),
(354,348,o),
(358,353,o),
(361,357,c),
(400,406,o),
(438,456,o),
(472,508,c),
(481,521,o),
(490,537,o),
(501,552,c),
(532,595,o),
(567,609,o),
(631,610,c),
(638,609,o),
(644,611,o),
(647,616,c),
(654,628,o),
(650,651,o),
(632,650,c),
(584,648,o),
(482,647,o),
(385,650,c),
(380,651,o),
(370,649,o),
(368,642,c),
(365,635,o),
(362,618,o),
(374,609,c),
(387,608,o),
(381,608,o),
(390,607,c),
(435,603,o),
(436,599,o),
(436,589,c),
(436,535,o),
(326,402,o),
(277,359,c),
(265,348,o),
(255,341,o),
(243,337,c),
(240,336,o),
(234,339,o),
(234,345,c),
(234,545,l),
(234,595,o),
(247,607,o),
(304,607,c),
(317,607,o),
(327,614,o),
(327,630,c),
(327,648,o),
(315,651,o),
(308,651,c),
(255,649,o),
(163,649,o),
(43,652,c),
(35,652,o),
(27,651,o),
(24,642,c),
(19,632,o),
(22,608,o),
(37,607,c),
(57,607,l),
(113,607,o),
(127,595,o),
(127,545,c),
(127,103,l),
(127,57,o),
(98,45,o),
(57,45,c),
(51,46,o),
(43,47,o),
(36,45,c),
(16,37,o),
(18,12,o),
(25,2,c),
(30,-5,o),
(41,-4,o),
(48,-4,c)
);
}
);
width = 740;
}
);
unicode = 75;
},
{
glyphname = L;
lastChange = "2023-05-15 06:39:53 +0000";
layers = (
{
layerId = m01;
shapes = (
{
closed = 1;
nodes = (
(494,-4,o),
(504,6,o),
(510,17,c),
(524,38,o),
(548,93,o),
(572,149,c),
(573,151,o),
(575,162,o),
(566,167,c),
(558,173,o),
(548,171,o),
(539,167,c),
(503,121,l),
(456,59,o),
(443,57,o),
(371,57,c),
(288,57,l),
(251,57,o),
(228,67,o),
(228,105,c),
(228,555,l),
(228,595,o),
(240,600,o),
(300,602,c),
(311,602,o),
(322,603,o),
(332,604,c),
(351,605,o),
(353,624,o),
(349,639,c),
(346,651,o),
(337,652,o),
(330,652,c),
(217,650,o),
(148,649,o),
(51,651,c),
(46,652,o),
(35,652,o),
(31,643,c),
(24,634,o),
(27,607,o),
(40,606,c),
(52,606,l),
(107,606,o),
(122,595,o),
(122,545,c),
(122,141,l),
(122,101,o),
(121,93,o),
(120,82,c),
(114,52,o),
(71,47,o),
(47,47,c),
(43,46,o),
(35,46,o),
(32,45,c),
(20,40,o),
(20,18,o),
(23,10,c),
(25,2,o),
(33,-4,o),
(43,-3,c),
(73,-2,o),
(298,-1,o),
(475,-4,c)
);
}
);
width = 595;
}
);
unicode = 76;
},
{
glyphname = Lslash;
lastChange = "2023-05-15 06:06:27 +0000";
layers = (
{
layerId = m01;
shapes = (
{
closed = 1;
nodes = (
(100,-3,o),
(361,-5,o),
(465,-5,c),
(486,-5,o),
(498,1,o),
(503,11,c),
(538,80,o),
(561,118,o),
(571,138,c),
(582,158,o),
(581,167,o),
(561,167,c),
(540,167,l),
(505,120,l),
(458,55,o),
(451,54,o),
(380,54,c),
(286,54,l),
(241,54,o),
(226,55,o),
(226,103,c),
(226,314,l),
(226,327,o),
(235,341,o),
(240,346,c),
(335,426,l),
(342,432,o),
(348,438,o),
(348,449,c),
(348,496,l),
(348,513,o),
(340,527,o),
(325,514,c),
(243,444,l),
(236,439,o),
(226,438,o),
(226,453,c),
(226,560,l),
(226,608,o),
(225,609,o),
(298,611,c),
(309,611,o),
(318,611,o),
(324,612,c),
(370,615,o),
(351,659,o),
(332,659,c),
(291,659,o),
(93,663,o),
(47,661,c),
(35,659,o),
(23,654,o),
(23,640,c),
(23,637,o),
(24,634,o),
(24,631,c),
(25,615,o),
(40,613,o),
(49,613,c),
(104,613,o),
(119,602,o),
(119,551,c),
(119,357,l),
(119,351,o),
(117,341,o),
(106,332,c),
(7,248,l),
(0,243,o),
(-3,237,o),
(-3,226,c),
(-3,179,l),
(-3,155,o),
(16,160,o),
(27,169,c),
(110,237,l),
(120,246,o),
(119,221,o),
(119,210,c),
(119,166,o),
(120,137,o),
(119,93,c),
(117,47,o),
(92,46,o),
(49,46,c),
(34,46,o),
(24,43,o),
(19,30,c),
(17,25,o),
(19,19,o),
(19,11,c),
(24,-4,o),
(37,-10,o),
(49,-7,c)
);
}
);
width = 578;
}
);
unicode = 321;
},
{
glyphname = M;
lastChange = "2023-05-15 06:06:27 +0000";
layers = (
{
layerId = m01;
shapes = (
{
closed = 1;
nodes = (
(252,-1,o),
(259,-1,o),
(263,4,c),
(267,10,o),
(267,22,o),
(265,29,c),
(262,40,o),
(253,42,o),
(245,42,c),
(192,46,o),
(181,59,o),
(181,93,c),
(181,104,o),
(182,122,o),
(183,142,c),
(204,484,l),
(205,499,o),
(210,498,o),
(215,487,c),
(430,2,l),
(435,-8,o),
(468,-8,o),
(472,2,c),
(683,490,l),
(686,499,o),
(693,488,o),
(693,480,c),
(716,134,o),
(713,150,o),
(714,134,c),
(720,67,o),
(716,43,o),
(645,43,c),
(634,43,o),
(624,35,o),
(623,30,c),
(622,23,o),
(621,15,o),
(623,9,c),
(625,1,o),
(630,-2,o),
(645,-2,c),
(710,-1,o),
(844,0,o),
(893,-3,c),
(905,-3,o),
(911,1,o),
(913,10,c),
(913,16,o),
(914,22,o),
(913,28,c),
(910,43,o),
(902,43,o),
(890,43,c),
(838,43,o),
(826,49,o),
(820,139,c),
(793,529,l),
(792,544,o),
(791,554,o),
(791,570,c),
(791,608,o),
(820,603,o),
(851,606,c),
(854,606,o),
(860,608,o),
(862,614,c),
(867,626,o),
(863,651,o),
(846,650,c),
(801,649,o),
(756,649,o),
(711,650,c),
(705,650,o),
(688,647,o),
(681,635,c),
(479,170,l),
(474,158,o),
(466,167,o),
(464,171,c),
(259,637,l),
(253,650,o),
(242,650,o),
(230,650,c),
(198,649,o),
(128,649,o),
(93,651,c),
(84,652,o),
(77,648,o),
(75,636,c),
(73,628,o),
(74,619,o),
(76,613,c),
(79,608,o),
(84,605,o),
(94,604,c),
(136,600,o),
(144,595,o),
(144,568,c),
(144,424,o),
(127,281,o),
(118,137,c),
(117,120,o),
(116,105,o),
(115,92,c),
(109,50,o),
(92,39,o),
(45,42,c),
(35,43,o),
(31,41,o),
(27,32,c),
(24,25,o),
(24,16,o),
(27,9,c),
(31,-2,o),
(38,0,o),
(48,-2,c),
(115,0,o),
(194,-1,o),
(245,-3,c)
);
}
);
width = 942;
}
);
unicode = 77;
},
{
glyphname = N;
lastChange = "2023-05-15 06:06:27 +0000";
layers = (
{
layerId = m01;
shapes = (
{
closed = 1;
nodes = (
(112,-1,o),
(222,-2,o),
(283,-3,c),
(304,-3,o),
(306,23,o),
(300,38,c),
(294,52,o),
(257,47,o),
(245,48,c),
(220,50,o),
(209,60,o),
(203,77,c),
(197,96,o),
(198,122,o),
(198,142,c),
(198,505,l),
(198,515,o),
(211,503,o),
(216,498,c),
(364,330,o),
(490,184,o),
(655,-4,c),
(663,-13,o),
(710,-18,o),
(710,9,c),
(710,529,l),
(710,602,o),
(713,605,o),
(786,607,c),
(800,607,o),
(806,611,o),
(805,627,c),
(805,634,o),
(804,652,o),
(794,652,c),
(704,650,o),
(628,648,o),
(551,651,c),
(529,652,o),
(533,606,o),
(551,605,c),
(573,603,o),
(591,603,o),
(605,601,c),
(617,599,o),
(624,595,o),
(629,590,c),
(640,581,o),
(640,562,o),
(640,512,c),
(640,197,l),
(640,189,o),
(633,176,o),
(630,181,c),
(230,637,l),
(223,645,o),
(209,651,o),
(202,651,c),
(168,650,o),
(116,654,o),
(61,651,c),
(49,650,o),
(40,646,o),
(40,630,c),
(40,619,o),
(42,607,o),
(49,607,c),
(84,606,o),
(109,601,o),
(126,590,c),
(126,96,l),
(126,74,o),
(118,44,o),
(57,44,c),
(34,44,o),
(31,22,o),
(37,8,c),
(40,1,o),
(47,-4,o),
(52,-4,c)
);
}
);
width = 834;
}
);
unicode = 78;
},
{
glyphname = Ntilde;
lastChange = "2023-05-15 06:06:27 +0000";
layers = (
{
layerId = m01;
shapes = (
{
closed = 1;
nodes = (
(112,-1,o),
(222,-2,o),
(283,-3,c),
(304,-3,o),
(306,23,o),
(300,38,c),
(294,52,o),
(257,47,o),
(245,48,c),
(220,50,o),
(209,60,o),
(203,77,c),
(197,96,o),
(198,122,o),
(198,142,c),
(198,505,l),
(198,515,o),
(211,503,o),
(216,498,c),
(364,330,o),
(490,184,o),
(655,-4,c),
(663,-13,o),
(710,-18,o),
(710,9,c),
(710,529,l),
(710,602,o),
(713,605,o),
(786,607,c),
(800,607,o),
(806,611,o),
(805,627,c),
(805,634,o),
(804,652,o),
(794,652,c),
(704,650,o),
(628,648,o),
(551,651,c),
(529,652,o),
(533,606,o),
(551,605,c),
(573,603,o),
(591,603,o),
(605,601,c),
(617,599,o),
(624,595,o),
(629,590,c),
(640,581,o),
(640,562,o),
(640,512,c),
(640,197,l),
(640,189,o),
(633,176,o),
(630,181,c),
(230,637,l),
(223,645,o),
(209,651,o),
(202,651,c),
(168,650,o),
(116,654,o),
(61,651,c),
(49,650,o),
(40,646,o),
(40,630,c),
(40,619,o),
(42,607,o),
(49,607,c),
(84,606,o),
(109,601,o),
(126,590,c),
(126,96,l),
(126,74,o),
(118,44,o),
(57,44,c),
(34,44,o),
(31,22,o),
(37,8,c),
(40,1,o),
(47,-4,o),
(52,-4,c)
);
},
{
closed = 1;
nodes = (
(526,711,o),
(568,767,o),
(568,839,c),
(568,842,o),
(568,846,o),
(566,852,c),
(565,861,o),
(554,864,o),
(548,863,c),
(540,863,o),
(531,858,o),
(531,852,c),
(523,799,o),
(512,792,o),
(497,792,c),
(487,792,o),
(472,797,o),
(442,818,c),
(398,848,o),
(374,858,o),
(343,858,c),
(279,858,o),
(246,805,o),
(242,720,c),
(245,701,o),
(273,707,o),
(279,718,c),
(280,724,o),
(282,731,o),
(282,737,c),
(290,771,o),
(299,778,o),
(313,778,c),
(324,778,o),
(331,776,o),
(368,751,c),
(405,725,o),
(437,711,o),
(465,711,c)
);
}
);
width = 834;
}
);
unicode = 209;
},
{
glyphname = O;
lastChange = "2023-05-15 06:06:27 +0000";
layers = (
{
layerId = m01;
shapes = (
{
closed = 1;
nodes = (
(619,-19,o),
(772,138,o),
(772,339,c),
(772,527,o),
(623,667,o),
(415,667,c),
(202,667,o),
(50,515,o),
(50,312,c),
(50,125,o),
(205,-19,o),
(413,-19,c)
);
},
{
closed = 1;
nodes = (
(278,30,o),
(171,162,o),
(171,338,c),
(171,506,o),
(256,619,o),
(387,619,c),
(546,619,o),
(651,491,o),
(651,309,c),
(651,160,o),
(598,30,o),
(430,30,c)
);
}
);
width = 827;
}
);
unicode = 79;
},
{
glyphname = Oacute;
lastChange = "2023-05-15 06:06:27 +0000";
layers = (
{
layerId = m01;
shapes = (
{
closed = 1;
nodes = (
(619,-19,o),
(772,138,o),
(772,339,c),
(772,527,o),
(623,667,o),
(415,667,c),
(202,667,o),
(50,515,o),
(50,312,c),
(50,125,o),
(205,-19,o),
(413,-19,c)
);
},
{
closed = 1;
nodes = (
(278,30,o),
(171,162,o),
(171,338,c),
(171,506,o),
(256,619,o),
(387,619,c),
(546,619,o),
(651,491,o),
(651,309,c),
(651,160,o),
(598,30,o),
(430,30,c)
);
},
{
closed = 1;
nodes = (
(544,861,l),
(546,863,o),
(546,866,o),
(546,869,c),
(551,892,o),
(512,885,o),
(440,884,c),
(432,884,o),
(421,878,o),
(418,867,c),
(369,705,l),
(363,683,o),
(395,682,o),
(403,691,c)
);
}
);
width = 827;
}
);
unicode = 211;
},
{
glyphname = Ocircumflex;
lastChange = "2023-05-15 06:06:27 +0000";
layers = (
{
layerId = m01;
shapes = (
{
closed = 1;
nodes = (
(619,-19,o),
(772,138,o),
(772,339,c),
(772,527,o),
(623,667,o),
(415,667,c),
(202,667,o),
(50,515,o),
(50,312,c),
(50,125,o),
(205,-19,o),
(413,-19,c)
);
},
{
closed = 1;
nodes = (
(278,30,o),
(171,162,o),
(171,338,c),
(171,506,o),
(256,619,o),
(387,619,c),
(546,619,o),
(651,491,o),
(651,309,c),
(651,160,o),
(598,30,o),
(430,30,c)
);
},
{
closed = 1;
nodes = (
(577,690,o),
(576,700,o),
(571,708,c),
(486,858,l),
(480,868,o),
(476,870,o),
(465,871,c),
(452,872,o),
(397,871,o),
(389,870,c),
(383,868,o),
(377,864,o),
(373,857,c),
(285,703,l),
(277,689,o),
(305,680,o),
(317,691,c),
(427,790,l),
(543,691,l),
(548,685,o),
(562,686,o),
(568,687,c)
);
}
);
width = 827;
}
);
unicode = 212;
},
{
glyphname = Odieresis;
lastChange = "2023-05-15 06:06:27 +0000";
layers = (
{
layerId = m01;
shapes = (
{
closed = 1;
nodes = (
(619,-19,o),
(772,138,o),
(772,339,c),
(772,527,o),
(623,667,o),
(415,667,c),
(202,667,o),
(50,515,o),
(50,312,c),
(50,125,o),
(205,-19,o),
(413,-19,c)
);
},
{
closed = 1;
nodes = (
(278,30,o),
(171,162,o),
(171,338,c),
(171,506,o),
(256,619,o),
(387,619,c),
(546,619,o),
(651,491,o),
(651,309,c),
(651,160,o),
(598,30,o),
(430,30,c)
);
},
{
closed = 1;
nodes = (
(363,695,o),
(392,723,o),
(392,759,c),
(392,795,o),
(363,824,o),
(327,824,c),
(292,824,o),
(262,795,o),
(262,759,c),
(262,723,o),
(292,695,o),
(327,695,c)
);
},
{
closed = 1;
nodes = (
(538,695,o),
(567,724,o),
(567,759,c),
(567,795,o),
(538,824,o),
(502,824,c),
(466,824,o),
(437,795,o),
(437,759,c),
(437,724,o),
(466,695,o),
(502,695,c)
);
}
);
width = 827;
}
);
unicode = 214;
},
{
glyphname = Ograve;
lastChange = "2023-05-15 06:06:27 +0000";
layers = (
{
layerId = m01;
shapes = (
{
closed = 1;
nodes = (
(619,-19,o),
(772,138,o),
(772,339,c),
(772,527,o),
(623,667,o),
(415,667,c),
(202,667,o),
(50,515,o),
(50,312,c),
(50,125,o),
(205,-19,o),
(413,-19,c)
);
},
{
closed = 1;
nodes = (
(278,30,o),
(171,162,o),
(171,338,c),
(171,506,o),
(256,619,o),
(387,619,c),
(546,619,o),
(651,491,o),
(651,309,c),
(651,160,o),
(598,30,o),
(430,30,c)
);
},
{
closed = 1;
nodes = (
(463,689,o),
(489,685,o),
(489,707,c),
(478,751,o),
(456,825,o),
(440,870,c),
(435,880,o),
(427,881,o),
(416,881,c),
(341,880,l),
(328,880,o),
(311,864,o),
(322,852,c),
(365,806,o),
(423,738,o),
(454,696,c)
);
}
);
width = 827;
}
);
unicode = 210;
},
{
glyphname = Oslash;
lastChange = "2023-05-15 06:06:27 +0000";
layers = (
{
layerId = m01;
shapes = (
{
closed = 1;
nodes = (
(106,-73,o),
(112,-76,o),
(126,-60,c),
(196,22,l),
(203,31,o),
(214,35,o),
(221,31,c),
(283,-3,o),
(356,-22,o),
(429,-22,c),
(641,-22,o),
(807,136,o),
(807,342,c),
(807,441,o),
(770,518,o),
(695,583,c),
(688,589,o),
(696,600,o),
(700,605,c),
(749,661,l),
(759,672,o),
(764,683,o),
(753,692,c),
(745,698,l),
(734,706,o),
(724,700,o),
(720,696,c),
(664,628,l),
(658,620,o),
(650,615,o),
(646,618,c),
(580,658,o),
(509,675,o),
(432,675,c),
(216,675,o),
(48,520,o),
(48,317,c),
(48,219,o),
(91,132,o),
(164,70,c),
(172,63,o),
(166,52,o),
(159,45,c),
(89,-34,l),
(79,-45,o),
(83,-54,o),
(93,-62,c)
);
},
{
closed = 1;
nodes = (
(383,27,o),
(327,46,o),
(276,89,c),
(272,93,o),
(272,107,o),
(279,115,c),
(364,215,o),
(523,400,o),
(610,500,c),
(618,510,o),
(628,515,o),
(634,505,c),
(705,394,o),
(703,226,o),
(629,119,c),
(583,54,o),
(528,27,o),
(447,27,c)
);
},
{
closed = 1;
nodes = (
(189,199,o),
(170,268,o),
(170,344,c),
(170,513,o),
(268,627,o),
(403,627,c),
(475,627,o),
(539,604,o),
(588,558,c),
(595,552,o),
(584,538,o),
(578,532,c),
(491,437,o),
(338,256,o),
(252,152,c),
(239,136,o),
(234,134,o),
(226,145,c)
);
}
);
width = 851;
}
);
unicode = 216;
},
{
glyphname = Otilde;
lastChange = "2023-05-15 06:06:27 +0000";
layers = (
{
layerId = m01;
shapes = (
{
closed = 1;
nodes = (
(619,-19,o),
(772,138,o),
(772,339,c),
(772,527,o),
(623,667,o),
(415,667,c),
(202,667,o),
(50,515,o),
(50,312,c),
(50,125,o),
(205,-19,o),
(413,-19,c)
);
},
{
closed = 1;
nodes = (
(278,30,o),
(171,162,o),
(171,338,c),
(171,506,o),
(256,619,o),
(387,619,c),
(546,619,o),
(651,491,o),
(651,309,c),
(651,160,o),
(598,30,o),
(430,30,c)
);
},
{
closed = 1;
nodes = (
(533,701,o),
(574,756,o),
(574,824,c),
(574,826,o),
(574,831,o),
(572,837,c),
(572,845,o),
(561,847,o),
(555,846,c),
(547,846,o),
(539,842,o),
(538,836,c),
(530,786,o),
(520,779,o),
(504,779,c),
(494,779,o),
(480,784,o),
(450,804,c),
(406,833,o),
(383,842,o),
(352,842,c),
(289,842,o),
(256,792,o),
(252,711,c),
(255,693,o),
(283,698,o),
(289,710,c),
(290,715,o),
(292,721,o),
(292,727,c),
(300,760,o),
(308,766,o),
(323,766,c),
(333,766,o),
(340,762,o),
(377,738,c),
(413,714,o),
(446,701,o),
(473,701,c)
);
}
);
width = 827;
}
);
unicode = 213;
},
{
glyphname = OE;
lastChange = "2023-05-15 06:06:27 +0000";
layers = (
{
layerId = m01;
shapes = (
{
closed = 1;
nodes = (
(460,-12,o),
(526,-3,o),
(593,-3,c),
(713,-3,o),
(823,-4,o),
(942,-4,c),
(960,-4,o),
(976,-4,o),
(979,19,c),
(984,55,o),
(993,108,o),
(993,148,c),
(994,163,o),
(991,169,o),
(980,169,c),
(969,169,l),
(958,169,o),
(954,167,o),
(953,156,c),
(949,133,o),
(935,100,o),
(920,81,c),
(902,59,o),
(891,55,o),
(814,55,c),
(673,55,l),
(661,55,o),
(651,68,o),
(651,76,c),
(651,279,l),
(651,284,o),
(657,309,o),
(665,309,c),
(798,309,l),
(848,309,o),
(859,302,o),
(864,248,c),
(864,238,o),
(868,228,o),
(879,228,c),
(893,228,l),
(904,228,o),
(906,241,o),
(906,249,c),
(907,301,o),
(908,379,o),
(906,432,c),
(905,440,o),
(905,448,o),
(893,448,c),
(879,448,l),
(867,448,o),
(864,437,o),
(864,432,c),
(862,418,o),
(858,389,o),
(848,378,c),
(840,371,o),
(827,368,o),
(789,368,c),
(674,368,l),
(668,368,o),
(651,372,o),
(651,384,c),
(651,583,l),
(651,594,o),
(676,599,o),
(677,599,c),
(835,599,l),
(885,599,o),
(892,594,o),
(908,530,c),
(913,511,l),
(918,490,o),
(926,497,o),
(940,497,c),
(946,497,o),
(950,498,o),
(953,503,c),
(959,516,o),
(949,624,o),
(947,636,c),
(945,654,o),
(940,658,o),
(922,658,c),
(638,658,l),
(606,658,o),
(595,657,o),
(584,657,c),
(574,657,o),
(562,658,o),
(528,660,c),
(492,662,o),
(456,664,o),
(418,664,c),
(346,664,o),
(297,654,o),
(248,630,c),
(133,574,o),
(54,454,o),
(54,321,c),
(54,135,o),
(208,-12,o),
(394,-12,c)
);
},
{
closed = 1;
nodes = (
(279,37,o),
(174,166,o),
(174,341,c),
(174,517,o),
(260,618,o),
(405,618,c),
(500,618,o),
(539,581,o),
(539,507,c),
(539,228,l),
(539,107,o),
(533,89,o),
(501,65,c),
(477,47,o),
(449,37,o),
(413,37,c)
);
}
);
width = 1036;
}
);
unicode = 338;
},
{
glyphname = P;
lastChange = "2023-05-15 06:39:53 +0000";
layers = (
{
layerId = m01;
shapes = (
{
closed = 1;
nodes = (
(346,-6,o),
(354,4,o),
(355,18,c),
(357,43,o),
(342,50,o),
(321,48,c),
(272,45,o),
(236,37,o),
(236,103,c),
(236,253,l),
(237,268,o),
(240,269,o),
(246,268,c),
(260,266,o),
(267,265,o),
(288,265,c),
(444,265,o),
(539,343,o),
(539,470,c),
(539,554,o),
(482,623,o),
(395,646,c),
(356,656,o),
(332,659,o),
(263,659,c),
(187,659,o),
(116,659,o),
(38,650,c),
(30,649,o),
(25,639,o),
(25,628,c),
(26,618,o),
(33,609,o),
(38,609,c),
(87,610,l),
(121,610,o),
(127,599,o),
(127,536,c),
(127,82,l),
(127,50,o),
(120,47,o),
(74,47,c),
(60,47,o),
(41,44,o),
(40,20,c),
(39,14,o),
(41,9,o),
(43,5,c),
(44,3,l),
(49,-4,o),
(58,-4,o),
(66,-4,c),
(135,-2,o),
(261,-2,o),
(337,-5,c)
);
},
{
closed = 1;
nodes = (
(266,307,o),
(266,307,o),
(251,310,c),
(240,313,o),
(236,325,o),
(236,332,c),
(236,596,l),
(236,602,o),
(237,614,o),
(252,616,c),
(287,620,o),
(327,618,o),
(359,600,c),
(398,580,o),
(423,534,o),
(423,472,c),
(423,372,o),
(379,307,o),
(282,307,c)
);
}
);
width = 577;
}
);
unicode = 80;
},
{
glyphname = Thorn;
lastChange = "2023-05-15 06:06:27 +0000";
layers = (
{
layerId = m01;
shapes = (
{
closed = 1;
nodes = (
(123,-2,o),
(254,-2,o),
(321,-4,c),
(344,-5,o),
(343,12,o),
(342,24,c),
(342,33,o),
(329,38,o),
(317,39,c),
(307,40,o),
(297,39,o),
(296,39,c),
(239,39,o),
(226,51,o),
(226,102,c),
(226,110,o),
(225,109,o),
(226,127,c),
(226,129,o),
(225,142,o),
(229,142,c),
(254,137,o),
(274,137,o),
(299,137,c),
(454,137,o),
(554,216,o),
(554,345,c),
(554,435,o),
(495,501,o),
(410,522,c),
(354,536,o),
(297,537,o),
(240,537,c),
(233,536,o),
(226,545,o),
(226,550,c),
(226,566,o),
(223,589,o),
(232,604,c),
(240,617,o),
(275,616,o),
(291,616,c),
(294,616,o),
(297,616,o),
(298,617,c),
(302,618,o),
(306,622,o),
(306,633,c),
(306,644,l),
(306,655,o),
(300,659,o),
(286,658,c),
(221,656,o),
(92,658,o),
(38,659,c),
(29,659,o),
(19,658,o),
(19,644,c),
(19,635,l),
(19,625,o),
(23,620,o),
(31,618,c),
(41,614,o),
(76,619,o),
(92,614,c),
(101,613,o),
(106,612,o),
(110,606,c),
(115,597,o),
(116,581,o),
(116,541,c),
(116,129,l),
(116,81,l),
(116,62,o),
(114,57,o),
(110,50,c),
(106,43,o),
(102,37,o),
(61,37,c),
(40,37,o),
(37,30,o),
(34,13,c),
(32,-4,o),
(44,-5,o),
(55,-5,c)
);
},
{
closed = 1;
nodes = (
(256,180,o),
(246,181,o),
(234,183,c),
(230,184,o),
(226,189,o),
(226,201,c),
(226,483,l),
(226,492,o),
(237,494,o),
(243,496,c),
(285,501,o),
(336,498,o),
(374,478,c),
(413,457,o),
(436,409,o),
(436,348,c),
(436,247,o),
(370,180,o),
(271,180,c)
);
}
);
width = 589;
}
);
unicode = 222;
},
{
glyphname = Q;
lastChange = "2023-05-15 06:06:27 +0000";
layers = (
{
layerId = m01;
shapes = (
{
closed = 1;
nodes = (
(748,-213,o),
(761,-211,o),
(780,-207,c),
(796,-203,o),
(820,-166,o),
(801,-161,c),
(739,-158,o),
(707,-143,o),
(647,-92,c),
(611,-61,o),
(572,-29,o),
(528,-8,c),
(520,-5,o),
(522,1,o),
(528,4,c),
(668,57,o),
(763,186,o),
(763,338,c),
(763,526,o),
(622,667,o),
(412,667,c),
(198,667,o),
(43,514,o),
(43,313,c),
(43,133,o),
(175,-2,o),
(375,-20,c),
(398,-29,o),
(409,-34,o),
(423,-44,c),
(438,-55,o),
(455,-72,o),
(492,-103,c),
(558,-159,o),
(636,-213,o),
(729,-213,c)
);
},
{
closed = 1;
nodes = (
(273,25,o),
(164,159,o),
(164,337,c),
(164,505,o),
(251,619,o),
(385,619,c),
(543,619,o),
(640,492,o),
(640,308,c),
(640,177,o),
(570,25,o),
(426,25,c)
);
}
);
width = 822;
}
);
unicode = 81;
},
{
glyphname = R;
lastChange = "2023-05-15 06:39:53 +0000";
layers = (
{
layerId = m01;
shapes = (
{
closed = 1;
nodes = (
(652,-15,o),
(666,-15,o),
(677,-8,c),
(686,5,o),
(682,19,o),
(672,27,c),
(647,32,o),
(633,40,o),
(620,50,c),
(588,74,o),
(581,82,o),
(559,114,c),
(504,197,l),
(485,226,o),
(474,243,o),
(451,279,c),
(444,289,o),
(445,296,o),
(450,299,c),
(508,332,o),
(547,397,o),
(547,469,c),
(547,618,o),
(402,659,o),
(279,659,c),
(199,659,o),
(114,659,o),
(34,651,c),
(18,643,o),
(16,608,o),
(35,608,c),
(124,607,o),
(122,605,o),
(122,512,c),
(122,137,l),
(122,103,l),
(122,59,o),
(111,44,o),
(55,44,c),
(44,44,o),
(25,46,o),
(20,33,c),
(16,21,o),
(17,-2,o),
(31,-3,c),
(47,-4,l),
(119,2,o),
(250,-3,o),
(321,-3,c),
(331,-3,o),
(339,0,o),
(341,9,c),
(342,16,o),
(341,28,o),
(339,33,c),
(333,51,o),
(314,47,o),
(301,46,c),
(248,46,o),
(235,57,o),
(233,103,c),
(232,154,o),
(232,193,o),
(232,244,c),
(232,246,o),
(238,262,o),
(246,261,c),
(280,260,o),
(308,261,o),
(341,264,c),
(348,265,o),
(357,250,o),
(360,244,c),
(374,218,o),
(386,191,o),
(402,166,c),
(428,125,o),
(455,84,o),
(487,47,c),
(513,16,o),
(550,-15,o),
(638,-15,c)
);
},
{
closed = 1;
nodes = (
(242,306,o),
(232,312,o),
(232,322,c),
(232,600,l),
(232,616,o),
(256,618,o),
(269,618,c),
(396,618,o),
(428,554,o),
(428,462,c),
(428,394,o),
(395,331,o),
(331,309,c),
(308,302,o),
(275,304,o),
(244,306,c)
);
}
);
width = 696;
}
);
unicode = 82;
},
{
glyphname = S;
lastChange = "2023-05-15 06:39:53 +0000";
layers = (
{
layerId = m01;
shapes = (
{
closed = 1;
nodes = (
(376,-19,o),
(461,60,o),
(461,167,c),
(461,274,o),
(363,338,o),
(287,390,c),
(240,422,o),
(159,472,o),
(159,537,c),
(159,586,o),
(189,620,o),
(248,620,c),
(311,620,o),
(352,578,o),
(382,504,c),
(384,497,o),
(416,487,o),
(418,511,c),
(417,525,o),
(413,554,o),
(402,639,c),
(401,645,o),
(399,652,o),
(392,651,c),
(385,652,o),
(376,652,o),
(369,650,c),
(361,643,o),
(360,641,o),
(356,641,c),
(351,641,o),
(343,643,o),
(322,650,c),
(290,661,o),
(274,667,o),
(239,667,c),
(133,667,o),
(59,601,o),
(59,508,c),
(59,412,o),
(140,352,o),
(214,303,c),
(272,264,o),
(359,217,o),
(359,137,c),
(359,77,o),
(317,32,o),
(244,32,c),
(211,32,o),
(194,39,o),
(166,59,c),
(131,83,o),
(114,110,o),
(94,170,c),
(87,179,o),
(54,175,o),
(56,162,c),
(63,100,o),
(70,49,o),
(77,8,c),
(78,4,o),
(80,-2,o),
(86,-3,c),
(93,-5,o),
(103,-5,o),
(112,-1,c),
(118,9,o),
(120,9,o),
(123,9,c),
(127,9,o),
(130,8,o),
(150,2,c),
(184,-8,o),
(218,-19,o),
(253,-19,c)
);
}
);
width = 513;
}
);
unicode = 83;
},
{
glyphname = Scaron;
lastChange = "2023-05-15 06:06:27 +0000";
layers = (
{
layerId = m01;
shapes = (
{
closed = 1;
nodes = (
(376,-19,o),
(459,60,o),
(459,167,c),
(459,275,o),
(362,336,o),
(286,389,c),
(239,421,o),
(157,474,o),
(157,539,c),
(157,588,o),
(189,623,o),
(248,623,c),
(311,623,o),
(352,580,o),
(382,506,c),
(384,499,o),
(416,489,o),
(418,513,c),
(417,527,o),
(413,557,o),
(410,585,c),
(406,613,o),
(402,641,o),
(398,652,c),
(390,655,o),
(378,655,o),
(369,652,c),
(361,645,o),
(360,644,o),
(356,644,c),
(350,644,o),
(343,645,o),
(322,653,c),
(290,663,o),
(274,670,o),
(239,670,c),
(133,670,o),
(61,604,o),
(61,510,c),
(61,414,o),
(140,358,o),
(214,308,c),
(272,269,o),
(362,218,o),
(362,138,c),
(362,78,o),
(317,31,o),
(244,31,c),
(211,31,o),
(194,39,o),
(166,59,c),
(131,83,o),
(114,110,o),
(94,171,c),
(87,180,o),
(55,176,o),
(56,163,c),
(62,93,o),
(76,9,o),
(78,-1,c),
(87,-4,o),
(100,-7,o),
(112,-1,c),
(118,9,o),
(120,9,o),
(123,9,c),
(127,9,o),
(130,8,o),
(150,2,c),
(184,-8,o),
(218,-19,o),
(253,-19,c)
);
},
{
closed = 1;
nodes = (
(296,695,l),
(305,695,o),
(308,697,o),
(314,702,c),
(409,872,l),
(411,878,o),
(403,885,o),
(392,885,c),
(387,885,o),
(379,883,o),
(374,880,c),
(267,779,l),
(141,880,l),
(137,884,o),
(128,886,o),
(121,886,c),
(117,886,o),
(113,886,o),
(111,884,c),
(107,883,o),
(102,878,o),
(106,871,c),
(200,706,l),
(203,699,o),
(211,695,o),
(222,695,c)
);
}
);
width = 513;
}
);
unicode = 352;
},
{
glyphname = T;
lastChange = "2023-05-15 06:39:53 +0000";
layers = (
{
layerId = m01;
shapes = (
{
closed = 1;
nodes = (
(265,-2,o),
(414,0,o),
(492,-3,c),
(500,-3,o),
(509,-3,o),
(513,8,c),
(518,22,o),
(513,48,o),
(494,48,c),
(466,48,l),
(405,48,o),
(398,68,o),
(398,103,c),
(398,137,l),
(398,247,o),
(398,495,o),
(398,560,c),
(398,582,o),
(407,590,o),
(416,590,c),
(548,590,l),
(578,590,o),
(593,579,o),
(610,495,c),
(613,481,o),
(617,476,o),
(634,476,c),
(643,476,o),
(653,480,o),
(652,492,c),
(637,656,l),
(636,665,o),
(634,668,o),
(627,670,c),
(616,673,o),
(599,670,o),
(596,664,c),
(590,650,o),
(589,650,o),
(544,650,c),
(447,652,o),
(245,652,o),
(140,650,c),
(126,650,o),
(96,649,o),
(90,664,c),
(86,673,o),
(63,679,o),
(50,664,c),
(44,618,o),
(36,533,o),
(34,493,c),
(33,478,o),
(60,474,o),
(74,483,c),
(92,578,o),
(107,590,o),
(139,590,c),
(159,590,l),
(265,590,l),
(284,590,o),
(287,570,o),
(287,563,c),
(287,550,o),
(287,259,o),
(287,137,c),
(287,103,l),
(287,47,o),
(256,45,o),
(229,45,c),
(214,46,o),
(204,45,o),
(191,45,c),
(185,44,o),
(179,41,o),
(175,34,c),
(172,27,o),
(172,14,o),
(175,7,c),
(176,2,o),
(180,-4,o),
(192,-4,c)
);
}
);
width = 681;
}
);
unicode = 84;
},
{
glyphname = U;
lastChange = "2023-05-15 06:39:53 +0000";
layers = (
{
layerId = m01;
shapes = (
{
closed = 1;
nodes = (
(500,-19,o),
(551,4,o),
(609,55,c),
(692,129,o),
(693,203,o),
(693,305,c),
(693,486,l),
(693,591,o),
(707,606,o),
(779,609,c),
(790,610,o),
(793,623,o),
(793,630,c),
(793,640,o),
(787,650,o),
(779,650,c),
(718,651,o),
(589,651,o),
(539,650,c),
(534,650,o),
(528,646,o),
(526,642,c),
(522,635,o),
(522,624,o),
(526,616,c),
(529,609,o),
(533,609,o),
(540,607,c),
(613,605,o),
(624,590,o),
(624,482,c),
(624,304,l),
(624,259,o),
(625,214,o),
(609,170,c),
(582,99,o),
(528,57,o),
(425,57,c),
(266,57,o),
(226,167,o),
(226,310,c),
(226,502,l),
(226,517,o),
(227,530,o),
(227,545,c),
(229,596,o),
(241,607,o),
(297,607,c),
(306,607,l),
(317,606,o),
(322,629,o),
(315,642,c),
(312,648,o),
(304,650,o),
(297,650,c),
(231,650,o),
(111,650,o),
(46,650,c),
(36,650,o),
(33,649,o),
(28,643,c),
(22,635,o),
(22,623,o),
(27,615,c),
(33,606,o),
(37,607,o),
(48,607,c),
(111,605,o),
(115,598,o),
(115,552,c),
(115,295,l),
(115,200,o),
(117,177,o),
(138,132,c),
(182,35,o),
(266,-19,o),
(402,-19,c)
);
}
);
width = 815;
}
);
unicode = 85;
},
{
glyphname = Uacute;
lastChange = "2023-05-15 06:06:27 +0000";
layers = (
{
layerId = m01;
shapes = (
{
closed = 1;
nodes = (
(501,-19,o),
(552,4,o),
(610,55,c),
(693,130,o),
(694,204,o),
(694,307,c),
(694,488,l),
(694,594,o),
(708,609,o),
(780,611,c),
(791,613,o),
(794,626,o),
(794,633,c),
(794,642,o),
(788,653,o),
(780,653,c),
(719,654,o),
(586,654,o),
(536,653,c),
(517,653,o),
(522,614,o),
(535,611,c),
(542,609,l),
(615,607,o),
(626,593,o),
(626,484,c),
(626,306,l),
(626,260,o),
(627,215,o),
(611,171,c),
(584,99,o),
(529,57,o),
(426,57,c),
(267,57,o),
(224,168,o),
(224,311,c),
(224,504,l),
(224,519,o),
(225,533,o),
(225,547,c),
(227,598,o),
(239,610,o),
(295,610,c),
(304,610,l),
(321,609,o),
(326,652,o),
(305,653,c),
(223,655,o),
(66,655,o),
(38,653,c),
(11,651,o),
(27,610,o),
(38,610,c),
(111,609,o),
(118,603,o),
(118,554,c),
(118,297,l),
(118,201,o),
(120,178,o),
(141,132,c),
(185,35,o),
(267,-19,o),
(403,-19,c)
);
},
{
closed = 1;
nodes = (
(389,691,o),
(530,861,o),
(532,864,c),
(532,865,l),
(532,866,o),
(533,868,o),
(533,869,c),
(534,881,o),
(524,885,o),
(513,885,c),
(426,884,l),
(417,884,o),
(406,878,o),
(403,867,c),
(355,705,l),
(348,683,o),
(380,681,o),
(389,691,c)
);
}
);
width = 815;
}
);
unicode = 218;
},
{
glyphname = Ucircumflex;
lastChange = "2023-05-15 06:06:27 +0000";
layers = (
{
layerId = m01;
shapes = (
{
closed = 1;
nodes = (
(501,-19,o),
(552,4,o),
(610,55,c),
(693,130,o),
(694,204,o),
(694,306,c),
(694,488,l),
(694,594,o),
(708,608,o),
(780,611,c),
(791,613,o),
(794,625,o),
(794,632,c),
(794,642,o),
(788,653,o),
(780,653,c),
(719,654,o),
(586,653,o),
(536,653,c),
(517,652,o),
(522,613,o),
(535,611,c),
(542,609,l),
(615,607,o),
(626,593,o),
(626,484,c),
(626,305,l),
(626,260,o),
(627,215,o),
(611,171,c),
(584,99,o),
(529,57,o),
(426,57,c),
(267,57,o),
(224,168,o),
(224,311,c),
(224,504,l),
(224,519,o),
(225,533,o),
(225,547,c),
(227,597,o),
(239,610,o),
(295,610,c),
(304,610,l),
(321,609,o),
(326,652,o),
(305,653,c),
(223,654,o),
(66,655,o),
(38,653,c),
(11,651,o),
(27,610,o),
(38,610,c),
(111,609,o),
(118,603,o),
(118,553,c),
(118,297,l),
(118,201,o),
(120,178,o),
(141,132,c),
(185,35,o),
(267,-19,o),
(403,-19,c)
);
},
{
closed = 1;
nodes = (
(563,690,o),
(562,700,o),
(558,708,c),
(471,858,l),
(466,867,o),
(463,870,o),
(451,871,c),
(437,872,o),
(383,871,o),
(374,870,c),
(368,868,o),
(362,864,o),
(358,857,c),
(271,703,l),
(263,689,o),
(291,680,o),
(302,691,c),
(412,790,l),
(529,691,l),
(534,686,o),
(546,686,o),
(553,687,c)
);
}
);
width = 815;
}
);
unicode = 219;
},
{
glyphname = Udieresis;
lastChange = "2023-05-15 06:06:27 +0000";
layers = (
{
layerId = m01;
shapes = (
{
closed = 1;
nodes = (
(501,-19,o),
(552,4,o),
(610,55,c),
(693,129,o),
(694,204,o),
(694,306,c),
(694,488,l),
(694,593,o),
(708,608,o),
(780,611,c),
(791,613,o),
(794,625,o),
(794,632,c),
(794,642,o),
(788,652,o),
(780,652,c),
(719,653,o),
(586,653,o),
(536,652,c),
(517,652,o),
(522,613,o),
(535,611,c),
(542,609,l),
(615,607,o),
(626,593,o),
(626,484,c),
(626,305,l),
(626,259,o),
(627,215,o),
(611,171,c),
(584,99,o),
(529,57,o),
(426,57,c),
(267,57,o),
(227,168,o),
(227,311,c),
(227,504,l),
(227,518,o),
(228,532,o),
(228,547,c),
(230,597,o),
(239,610,o),
(295,610,c),
(304,610,l),
(321,608,o),
(326,652,o),
(305,652,c),
(223,654,o),
(66,654,o),
(38,652,c),
(11,650,o),
(27,610,o),
(38,610,c),
(111,609,o),
(116,603,o),
(116,553,c),
(116,296,l),
(116,201,o),
(118,178,o),
(139,132,c),
(183,35,o),
(267,-19,o),
(403,-19,c)
);
},
{
closed = 1;
nodes = (
(344,695,o),
(373,723,o),
(373,759,c),
(373,795,o),
(344,824,o),
(308,824,c),
(272,824,o),
(243,795,o),
(243,759,c),
(243,723,o),
(273,695,o),
(308,695,c)
);
},
{
closed = 1;
nodes = (
(569,695,o),
(597,724,o),
(597,759,c),
(597,795,o),
(569,824,o),
(533,824,c),
(497,824,o),
(467,795,o),
(467,759,c),
(467,724,o),
(497,695,o),
(533,695,c)
);
}
);
width = 815;
}
);
unicode = 220;
},
{
glyphname = Ugrave;
lastChange = "2023-05-15 06:06:27 +0000";
layers = (
{
layerId = m01;
shapes = (
{
closed = 1;
nodes = (
(501,-19,o),
(552,4,o),
(610,55,c),
(693,130,o),
(694,204,o),
(694,307,c),
(694,488,l),
(694,594,o),
(708,609,o),
(780,611,c),
(791,613,o),
(794,626,o),
(794,633,c),
(794,642,o),
(788,653,o),
(780,653,c),
(719,654,o),
(586,654,o),
(536,653,c),
(517,652,o),
(522,613,o),
(535,611,c),
(542,609,l),
(615,607,o),
(626,593,o),
(626,484,c),
(626,306,l),
(626,260,o),
(627,215,o),
(611,171,c),
(584,99,o),
(529,57,o),
(426,57,c),
(267,57,o),
(224,168,o),
(224,311,c),
(224,504,l),
(224,519,o),
(225,533,o),
(225,547,c),
(227,598,o),
(239,610,o),
(295,610,c),
(304,610,l),
(321,609,o),
(326,652,o),
(305,653,c),
(223,654,o),
(66,655,o),
(38,653,c),
(11,651,o),
(27,610,o),
(38,610,c),
(111,609,o),
(118,603,o),
(118,554,c),
(118,297,l),
(118,201,o),
(120,178,o),
(141,132,c),
(185,35,o),
(267,-19,o),
(403,-19,c)
);
},
{
closed = 1;
nodes = (
(448,688,o),
(475,685,o),
(475,707,c),
(465,751,o),
(443,825,o),
(426,870,c),
(419,881,o),
(410,881,o),
(402,881,c),
(326,880,l),
(312,880,o),
(297,864,o),
(307,852,c),
(350,806,o),
(409,738,o),
(440,696,c)
);
}
);
width = 815;
}
);
unicode = 217;
},
{
glyphname = V;
lastChange = "2023-05-15 06:39:53 +0000";
layers = (
{
layerId = m01;
shapes = (
{
closed = 1;
nodes = (
(412,-23,o),
(423,-9,o),
(426,-2,c),
(624,510,l),
(657,594,o),
(674,609,o),
(727,610,c),
(743,611,o),
(750,651,o),
(724,650,c),
(685,649,o),
(536,647,o),
(498,650,c),
(491,651,o),
(481,648,o),
(478,644,c),
(473,637,o),
(473,625,o),
(477,617,c),
(482,608,o),
(485,608,o),
(495,608,c),
(516,608,o),
(530,607,o),
(541,605,c),
(585,595,o),
(565,548,o),
(554,519,c),
(417,157,l),
(413,146,o),
(399,156,o),
(396,162,c),
(249,528,l),
(237,558,o),
(223,590,o),
(258,598,c),
(271,601,o),
(292,603,o),
(320,604,c),
(327,607,o),
(333,608,o),
(336,617,c),
(339,625,o),
(338,638,o),
(333,645,c),
(328,652,o),
(315,650,o),
(307,650,c),
(244,648,o),
(114,648,o),
(47,650,c),
(39,650,o),
(28,649,o),
(25,638,c),
(23,633,o),
(22,623,o),
(24,615,c),
(28,607,o),
(32,606,o),
(41,604,c),
(82,603,o),
(103,600,o),
(134,525,c),
(345,-4,l),
(348,-11,o),
(357,-22,o),
(364,-23,c),
(379,-26,o),
(397,-25,o),
(403,-24,c)
);
}
);
width = 761;
}
);
unicode = 86;
},
{
glyphname = W;
lastChange = "2023-05-15 06:39:53 +0000";
layers = (
{
layerId = m01;
shapes = (
{
closed = 1;
nodes = (
(431,-16,o),
(436,-10,o),
(442,3,c),
(542,248,l),
(545,257,o),
(557,268,o),
(561,259,c),
(669,2,l),
(674,-10,o),
(673,-12,o),
(685,-15,c),
(697,-18,o),
(721,-18,o),
(735,-16,c),
(744,-14,o),
(750,-3,o),
(752,3,c),
(952,525,l),
(981,601,o),
(995,610,o),
(1050,610,c),
(1064,610,o),
(1067,623,o),
(1067,631,c),
(1066,642,o),
(1059,652,o),
(1051,652,c),
(986,650,o),
(898,649,o),
(850,651,c),
(833,653,o),
(824,614,o),
(845,611,c),
(908,608,o),
(913,604,o),
(886,534,c),
(736,142,l),
(733,132,o),
(723,130,o),
(721,135,c),
(721,135,o),
(653,295,o),
(610,398,c),
(607,407,o),
(608,416,o),
(610,421,c),
(660,541,l),
(683,598,o),
(693,606,o),
(755,608,c),
(766,608,o),
(768,607,o),
(772,619,c),
(775,628,o),
(774,642,o),
(767,647,c),
(760,651,o),
(757,651,o),
(748,651,c),
(598,653,o),
(449,654,o),
(342,651,c),
(323,651,o),
(329,612,o),
(340,609,c),
(412,606,o),
(417,602,o),
(442,542,c),
(512,378,l),
(514,371,o),
(513,353,o),
(510,346,c),
(431,152,l),
(425,137,o),
(415,134,o),
(413,138,c),
(258,526,l),
(242,565,o),
(240,577,o),
(240,586,c),
(240,598,o),
(241,608,o),
(283,608,c),
(290,608,o),
(296,609,o),
(298,615,c),
(301,622,o),
(302,634,o),
(300,642,c),
(298,648,o),
(290,651,o),
(282,651,c),
(191,650,o),
(91,650,o),
(37,650,c),
(28,650,o),
(22,646,o),
(19,640,c),
(16,631,o),
(16,612,o),
(26,606,c),
(31,603,o),
(37,603,o),
(43,603,c),
(117,601,o),
(118,602,o),
(154,510,c),
(352,6,l),
(356,-5,o),
(362,-13,o),
(370,-16,c),
(384,-20,o),
(405,-21,o),
(420,-18,c)
);
},
{
closed = 1;
nodes = (
(552,537,o),
(549,546,o),
(544,557,c),
(540,565,o),
(535,577,o),
(531,587,c),
(525,606,o),
(535,608,o),
(550,608,c),
(564,608,o),
(581,607,o),
(591,608,c),
(608,608,o),
(613,600,o),
(609,587,c),
(599,560,o),
(587,532,o),
(576,506,c),
(576,506,o),
(570,498,o),
(566,505,c)
);
}
);
width = 1086;
}
);
unicode = 87;
},
{
glyphname = X;
lastChange = "2023-05-15 06:06:27 +0000";
layers = (
{
layerId = m01;
shapes = (
{
closed = 1;
nodes = (
(295,-3,o),
(294,39,o),
(272,39,c),
(263,39,l),
(210,39,o),
(210,53,o),
(210,59,c),
(210,64,o),
(215,76,o),
(231,96,c),
(231,96,o),
(337,229,o),
(358,256,c),
(369,270,o),
(374,271,o),
(379,270,c),
(500,105,l),
(508,94,o),
(527,70,o),
(527,56,c),
(528,50,o),
(530,40,o),
(489,40,c),
(479,40,l),
(467,40,o),
(463,17,o),
(468,5,c),
(472,-2,o),
(478,-4,o),
(485,-3,c),
(528,-1,o),
(700,0,o),
(753,-2,c),
(764,-2,o),
(768,10,o),
(768,17,c),
(768,28,o),
(763,38,o),
(754,39,c),
(668,49,o),
(665,67,o),
(618,128,c),
(453,343,l),
(445,355,o),
(438,356,o),
(447,369,c),
(537,488,l),
(587,554,o),
(628,603,o),
(711,608,c),
(732,607,o),
(735,648,o),
(711,651,c),
(630,647,o),
(561,650,o),
(480,650,c),
(475,650,o),
(468,648,o),
(465,645,c),
(458,639,o),
(457,619,o),
(466,610,c),
(472,605,o),
(493,606,o),
(502,606,c),
(528,606,o),
(537,595,o),
(521,571,c),
(486,520,o),
(443,466,o),
(406,418,c),
(403,414,o),
(397,415,o),
(394,420,c),
(298,548,l),
(282,568,o),
(258,603,o),
(284,606,c),
(293,607,o),
(306,607,o),
(327,608,c),
(334,608,o),
(339,610,o),
(344,612,c),
(350,617,o),
(350,636,o),
(348,641,c),
(343,652,o),
(333,652,o),
(326,652,c),
(251,648,o),
(117,648,o),
(49,651,c),
(26,652,o),
(24,626,o),
(27,616,c),
(29,607,o),
(43,601,o),
(47,601,c),
(124,599,o),
(126,595,o),
(187,517,c),
(325,341,l),
(325,336,o),
(334,325,o),
(325,317,c),
(264,239,o),
(209,171,o),
(149,92,c),
(120,54,o),
(92,46,o),
(42,42,c),
(32,42,o),
(27,30,o),
(27,20,c),
(27,10,o),
(33,-2,o),
(41,-2,c),
(111,1,o),
(222,-2,o),
(274,-3,c)
);
}
);
width = 785;
}
);
unicode = 88;
},
{
glyphname = Y;
lastChange = "2023-05-15 06:39:53 +0000";
layers = (
{
layerId = m01;
shapes = (
{
closed = 1;
nodes = (
(538,-4,o),
(542,9,o),
(542,18,c),
(542,30,o),
(544,40,o),
(535,45,c),
(526,50,o),
(515,47,o),
(505,47,c),
(470,49,o),
(442,57,o),
(442,103,c),
(442,131,o),
(443,204,o),
(442,253,c),
(587,498,l),
(619,552,o),
(642,604,o),
(716,608,c),
(726,608,o),
(730,622,o),
(730,630,c),
(730,640,o),
(726,650,o),
(716,650,c),
(638,648,o),
(551,648,o),
(501,650,c),
(475,651,o),
(480,613,o),
(492,608,c),
(503,608,l),
(549,608,o),
(551,599,o),
(551,587,c),
(551,578,o),
(541,555,o),
(523,524,c),
(418,346,l),
(413,339,o),
(400,334,o),
(396,340,c),
(268,536,l),
(239,581,o),
(242,584,o),
(242,593,c),
(242,597,o),
(243,607,o),
(294,607,c),
(326,607,o),
(312,650,o),
(297,650,c),
(244,648,o),
(101,649,o),
(33,650,c),
(23,651,o),
(17,642,o),
(16,634,c),
(15,630,o),
(15,621,o),
(16,618,c),
(19,607,o),
(26,607,o),
(35,607,c),
(92,606,o),
(107,594,o),
(154,521,c),
(333,241,l),
(335,203,o),
(334,135,o),
(332,103,c),
(330,68,o),
(319,50,o),
(285,48,c),
(272,48,o),
(255,52,o),
(243,46,c),
(238,44,o),
(235,38,o),
(233,33,c),
(231,27,o),
(230,16,o),
(234,8,c),
(237,1,o),
(247,-3,o),
(255,-3,c),
(362,0,o),
(405,-2,o),
(525,-4,c)
);
}
);
width = 728;
}
);
unicode = 89;
},
{
glyphname = Yacute;
lastChange = "2023-05-15 06:06:27 +0000";
layers = (
{
layerId = m01;
shapes = (
{
closed = 1;
nodes = (
(538,-4,o),
(542,9,o),
(542,18,c),
(542,30,o),
(544,40,o),
(535,45,c),
(526,50,o),
(515,47,o),
(505,47,c),
(470,49,o),
(442,57,o),
(442,103,c),
(442,131,o),
(443,204,o),
(442,253,c),
(587,498,l),
(619,552,o),
(642,604,o),
(716,608,c),
(726,608,o),
(730,622,o),
(730,630,c),
(730,640,o),
(726,650,o),
(716,650,c),
(638,648,o),
(551,648,o),
(501,650,c),
(475,651,o),
(480,613,o),
(492,608,c),
(503,608,l),
(549,608,o),
(551,599,o),
(551,587,c),
(551,578,o),
(541,555,o),
(523,524,c),
(418,346,l),
(413,339,o),
(400,334,o),
(396,340,c),
(268,536,l),
(239,581,o),
(242,584,o),
(242,593,c),
(242,597,o),
(243,607,o),
(294,607,c),
(326,607,o),
(312,650,o),
(297,650,c),
(244,648,o),
(101,649,o),
(33,650,c),
(23,651,o),
(17,642,o),
(16,634,c),
(15,630,o),
(15,621,o),
(16,618,c),
(19,607,o),
(26,607,o),
(35,607,c),
(92,606,o),
(107,594,o),
(154,521,c),
(333,241,l),
(335,203,o),
(334,135,o),
(332,103,c),
(330,68,o),
(319,50,o),
(285,48,c),
(272,48,o),
(255,52,o),
(243,46,c),
(238,44,o),
(235,38,o),
(233,33,c),
(231,27,o),
(230,16,o),
(234,8,c),
(237,1,o),
(247,-3,o),
(255,-3,c),
(362,0,o),
(405,-2,o),
(525,-4,c)
);
},
{
closed = 1;
nodes = (
(344,691,o),
(485,861,o),
(487,864,c),
(487,865,l),
(491,879,o),
(481,885,o),
(468,885,c),
(381,884,l),
(371,884,o),
(363,877,o),
(358,868,c),
(310,705,l),
(303,683,o),
(336,682,o),
(344,691,c)
);
}
);
width = 728;
}
);
unicode = 221;
},
{
glyphname = Ydieresis;
lastChange = "2023-05-15 06:06:27 +0000";
layers = (
{
layerId = m01;
shapes = (
{
closed = 1;
nodes = (
(539,-4,o),
(543,9,o),
(543,18,c),
(543,41,o),
(527,46,o),
(508,44,c),
(468,42,o),
(443,57,o),
(443,103,c),
(443,131,o),
(444,205,o),
(443,254,c),
(588,500,l),
(620,554,o),
(643,607,o),
(717,610,c),
(726,610,o),
(731,624,o),
(731,632,c),
(731,642,o),
(727,653,o),
(717,652,c),
(639,650,o),
(547,651,o),
(497,652,c),
(472,653,o),
(480,615,o),
(493,610,c),
(504,610,l),
(550,610,o),
(555,603,o),
(555,590,c),
(555,581,o),
(551,572,o),
(524,526,c),
(419,348,l),
(414,340,o),
(405,329,o),
(401,335,c),
(269,538,l),
(240,583,o),
(239,588,o),
(239,597,c),
(239,601,o),
(244,611,o),
(295,611,c),
(327,611,o),
(313,653,o),
(298,652,c),
(245,651,o),
(101,651,o),
(33,652,c),
(25,652,o),
(18,646,o),
(17,636,c),
(14,624,o),
(17,609,o),
(32,609,c),
(36,609,l),
(93,608,o),
(111,596,o),
(158,523,c),
(337,242,l),
(339,204,o),
(338,135,o),
(336,103,c),
(334,69,o),
(320,47,o),
(286,45,c),
(277,45,o),
(268,47,o),
(259,46,c),
(250,46,o),
(238,44,o),
(234,33,c),
(230,23,o),
(232,-3,o),
(250,-3,c),
(357,0,o),
(406,-2,o),
(526,-4,c)
);
},
{
closed = 1;
nodes = (
(320,695,o),
(349,723,o),
(349,759,c),
(349,795,o),
(320,824,o),
(284,824,c),
(249,824,o),
(219,795,o),
(219,759,c),
(219,723,o),
(249,695,o),
(284,695,c)
);
},
{
closed = 1;
nodes = (
(495,695,o),
(523,724,o),
(523,759,c),
(523,795,o),
(495,824,o),
(459,824,c),
(423,824,o),
(394,795,o),
(394,759,c),
(394,724,o),
(423,695,o),
(459,695,c)
);
}
);
width = 729;
}
);
unicode = 376;
},
{
glyphname = Z;
lastChange = "2023-05-15 06:39:53 +0000";
layers = (
{
layerId = m01;
shapes = (
{
closed = 1;
nodes = (
(388,-3,o),
(518,-2,o),
(588,-2,c),
(595,-2,o),
(621,2,o),
(623,14,c),
(628,60,o),
(635,147,o),
(637,196,c),
(637,209,o),
(600,208,o),
(591,196,c),
(581,98,o),
(565,58,o),
(457,58,c),
(227,58,l),
(221,58,o),
(184,58,o),
(198,72,c),
(610,611,l),
(627,638,o),
(606,650,o),
(585,650,c),
(118,650,l),
(109,649,o),
(94,645,o),
(91,636,c),
(87,602,o),
(86,533,o),
(86,496,c),
(94,477,o),
(127,482,o),
(128,492,c),
(128,492,l),
(140,587,o),
(151,592,o),
(246,592,c),
(448,592,l),
(451,592,o),
(454,581,o),
(449,575,c),
(42,38,l),
(39,34,o),
(36,26,o),
(36,21,c),
(34,3,o),
(50,-2,o),
(61,-2,c),
(73,-2,o),
(167,-3,o),
(276,-3,c)
);
}
);
width = 705;
}
);
unicode = 90;
},
{
glyphname = Zcaron;
lastChange = "2023-05-15 06:06:27 +0000";
layers = (
{
layerId = m01;
shapes = (
{
closed = 1;
nodes = (
(388,-3,o),
(518,-2,o),
(588,-2,c),
(595,-2,o),
(621,2,o),
(623,14,c),
(628,60,o),
(635,147,o),
(637,196,c),
(637,209,o),
(600,208,o),
(591,196,c),
(581,98,o),
(565,58,o),
(457,58,c),
(227,58,l),
(221,58,o),
(184,58,o),
(198,72,c),
(610,611,l),
(627,638,o),
(606,650,o),
(585,650,c),
(118,650,l),
(109,649,o),
(94,645,o),
(91,636,c),
(87,602,o),
(86,533,o),
(86,496,c),
(94,477,o),
(127,482,o),
(128,492,c),
(128,492,l),
(140,587,o),
(151,592,o),
(246,592,c),
(448,592,l),
(451,592,o),
(454,581,o),
(449,575,c),
(42,38,l),
(39,34,o),
(36,26,o),
(36,21,c),
(34,3,o),
(50,-2,o),
(61,-2,c),
(73,-2,o),
(167,-3,o),
(276,-3,c)
);
},
{
closed = 1;
nodes = (
(393,695,l),
(402,695,o),
(405,697,o),
(411,702,c),
(507,872,l),
(509,878,o),
(501,885,o),
(490,885,c),
(483,885,o),
(476,883,o),
(472,880,c),
(364,779,l),
(236,880,l),
(232,884,o),
(223,886,o),
(216,886,c),
(212,886,o),
(208,886,o),
(206,884,c),
(203,883,o),
(198,878,o),
(202,871,c),
(296,707,l),
(298,699,o),
(309,695,o),
(318,695,c)
);
}
);
width = 705;
}
);
unicode = 381;
},
{
glyphname = a;
lastChange = "2023-05-15 06:39:53 +0000";
layers = (
{
layerId = m01;
shapes = (
{
closed = 1;
nodes = (
(163,-12,o),
(184,0,o),
(227,35,c),
(231,38,o),
(234,38,o),
(235,34,c),
(243,4,o),
(260,-12,o),
(289,-12,c),
(315,-12,o),
(355,11,o),
(396,47,c),
(401,58,o),
(400,77,o),
(385,80,c),
(379,80,o),
(378,79,o),
(373,76,c),
(361,65,o),
(351,59,o),
(335,59,c),
(327,59,o),
(319,60,o),
(319,102,c),
(319,279,l),
(319,341,o),
(318,350,o),
(302,373,c),
(278,407,o),
(232,431,o),
(189,431,c),
(156,431,o),
(131,419,o),
(94,390,c),
(57,360,o),
(31,330,o),
(31,303,c),
(31,279,o),
(41,277,o),
(60,283,c),
(67,285,o),
(114,306,o),
(123,316,c),
(118,327,o),
(119,329,o),
(119,341,c),
(119,359,o),
(150,379,o),
(169,379,c),
(206,379,o),
(228,352,o),
(229,297,c),
(230,234,l),
(230,228,o),
(225,224,o),
(222,221,c),
(189,206,o),
(167,195,o),
(132,186,c),
(64,168,o),
(25,135,o),
(25,81,c),
(25,26,o),
(67,-12,o),
(125,-12,c)
);
},
{
closed = 1;
nodes = (
(131,46,o),
(110,67,o),
(110,94,c),
(110,117,o),
(122,133,o),
(160,148,c),
(181,157,o),
(201,166,o),
(221,176,c),
(226,178,o),
(229,168,o),
(229,160,c),
(229,93,l),
(221,73,o),
(176,46,o),
(159,46,c)
);
}
);
width = 414;
}
);
unicode = 97;
},
{
glyphname = aacute;
lastChange = "2023-05-15 06:06:27 +0000";
layers = (
{
layerId = m01;
shapes = (
{
closed = 1;
nodes = (
(163,-12,o),
(184,0,o),
(227,35,c),
(231,38,o),
(234,38,o),
(235,34,c),
(243,4,o),
(260,-12,o),
(289,-12,c),
(315,-12,o),
(355,11,o),
(396,47,c),
(401,58,o),
(400,77,o),
(385,80,c),
(379,80,o),
(378,79,o),
(373,76,c),
(361,65,o),
(351,59,o),
(335,59,c),
(327,59,o),
(319,60,o),
(319,102,c),
(319,279,l),
(319,341,o),
(318,350,o),
(302,373,c),
(278,407,o),
(232,431,o),
(189,431,c),
(156,431,o),
(131,419,o),
(94,390,c),
(57,360,o),
(31,330,o),
(31,303,c),
(31,279,o),
(41,277,o),
(60,283,c),
(67,285,o),
(114,306,o),
(123,316,c),
(118,327,o),
(119,329,o),
(119,341,c),
(119,359,o),
(150,379,o),
(169,379,c),
(206,379,o),
(228,352,o),
(229,297,c),
(230,234,l),
(230,228,o),
(225,224,o),
(222,221,c),
(189,206,o),
(167,195,o),
(132,186,c),
(64,168,o),
(25,135,o),
(25,81,c),
(25,26,o),
(67,-12,o),
(125,-12,c)
);
},
{
closed = 1;
nodes = (
(131,46,o),
(110,67,o),
(110,94,c),
(110,117,o),
(122,133,o),
(160,148,c),
(181,157,o),
(201,166,o),
(221,176,c),
(226,178,o),
(229,168,o),
(229,160,c),
(229,93,l),
(221,73,o),
(176,46,o),
(159,46,c)
);
},
{
closed = 1;
nodes = (
(321,638,l),
(322,639,o),
(323,641,o),
(323,642,c),
(323,644,l),
(323,644,o),
(323,644,o),
(324,645,c),
(326,658,o),
(315,661,o),
(305,661,c),
(219,661,l),
(210,661,o),
(199,655,o),
(196,644,c),
(149,483,l),
(142,461,o),
(174,459,o),
(182,469,c)
);
}
);
width = 414;
}
);
unicode = 225;
},
{
glyphname = acircumflex;
lastChange = "2023-05-15 06:06:27 +0000";
layers = (
{
layerId = m01;
shapes = (
{
closed = 1;
nodes = (
(163,-12,o),
(184,0,o),
(227,35,c),
(231,38,o),
(234,38,o),
(235,34,c),
(243,4,o),
(260,-12,o),
(289,-12,c),
(315,-12,o),
(355,11,o),
(396,47,c),
(401,58,o),
(400,77,o),
(385,80,c),
(379,80,o),
(378,79,o),
(373,76,c),
(361,65,o),
(351,59,o),
(335,59,c),
(327,59,o),
(319,60,o),
(319,102,c),
(319,279,l),
(319,341,o),
(318,350,o),
(302,373,c),
(278,407,o),
(232,431,o),
(189,431,c),
(156,431,o),
(131,419,o),
(94,390,c),
(57,360,o),
(31,330,o),
(31,303,c),
(31,279,o),
(41,277,o),
(60,283,c),
(67,285,o),
(114,306,o),
(123,316,c),
(118,327,o),
(119,329,o),
(119,341,c),
(119,359,o),
(150,379,o),
(169,379,c),
(206,379,o),
(228,352,o),
(229,297,c),
(230,234,l),
(230,228,o),
(225,224,o),
(222,221,c),
(189,206,o),
(167,195,o),
(132,186,c),
(64,168,o),
(25,135,o),
(25,81,c),
(25,26,o),
(67,-12,o),
(125,-12,c)
);
},
{
closed = 1;
nodes = (
(131,46,o),
(110,67,o),
(110,94,c),
(110,117,o),
(122,133,o),
(160,148,c),
(181,157,o),
(201,166,o),
(221,176,c),
(226,178,o),
(229,168,o),
(229,160,c),
(229,93,l),
(221,73,o),
(176,46,o),
(159,46,c)
);
},
{
closed = 1;
nodes = (
(334,477,o),
(330,487,o),
(327,494,c),
(241,637,l),
(235,646,o),
(231,648,o),
(220,649,c),
(207,650,o),
(164,649,o),
(156,648,c),
(150,646,o),
(144,642,o),
(140,636,c),
(53,489,l),
(45,476,o),
(72,467,o),
(84,477,c),
(188,572,l),
(299,477,l),
(304,473,o),
(316,472,o),
(323,474,c)
);
}
);
width = 414;
}
);
unicode = 226;
},
{
glyphname = adieresis;
lastChange = "2023-05-15 06:06:27 +0000";
layers = (
{
layerId = m01;
shapes = (
{
closed = 1;
nodes = (
(163,-12,o),
(184,0,o),
(227,35,c),
(231,38,o),
(234,38,o),
(235,34,c),
(243,4,o),
(260,-12,o),
(289,-12,c),
(315,-12,o),
(355,11,o),
(396,47,c),
(401,58,o),
(400,77,o),
(385,80,c),
(379,80,o),
(378,79,o),
(373,76,c),
(361,65,o),
(351,59,o),
(335,59,c),
(327,59,o),
(319,60,o),
(319,102,c),
(319,279,l),
(319,341,o),
(318,350,o),
(302,373,c),
(278,407,o),
(232,431,o),
(189,431,c),
(156,431,o),
(131,419,o),
(94,390,c),
(57,360,o),
(31,330,o),
(31,303,c),
(31,279,o),
(41,277,o),
(60,283,c),
(67,285,o),
(114,306,o),
(123,316,c),
(118,327,o),
(119,329,o),
(119,341,c),
(119,359,o),
(150,379,o),
(169,379,c),
(206,379,o),
(228,352,o),
(229,297,c),
(230,234,l),
(230,228,o),
(225,224,o),
(222,221,c),
(189,206,o),
(167,195,o),
(132,186,c),
(64,168,o),
(25,135,o),
(25,81,c),
(25,26,o),
(67,-12,o),
(125,-12,c)
);
},
{
closed = 1;
nodes = (
(131,46,o),
(110,67,o),
(110,94,c),
(110,117,o),
(122,133,o),
(160,148,c),
(181,157,o),
(201,166,o),
(221,176,c),
(226,178,o),
(229,168,o),
(229,160,c),
(229,93,l),
(221,73,o),
(176,46,o),
(159,46,c)
);
},
{
closed = 1;
nodes = (
(159,475,o),
(187,501,o),
(187,537,c),
(187,570,o),
(160,598,o),
(126,598,c),
(93,598,o),
(65,570,o),
(65,537,c),
(65,501,o),
(93,475,o),
(126,475,c)
);
},
{
closed = 1;
nodes = (
(325,475,o),
(351,503,o),
(351,537,c),
(351,570,o),
(325,598,o),
(290,598,c),
(257,598,o),
(229,570,o),
(229,537,c),
(229,502,o),
(257,475,o),
(290,475,c)
);
}
);
width = 414;
}
);
unicode = 228;
},
{
glyphname = agrave;
lastChange = "2023-05-15 06:06:27 +0000";
layers = (
{
layerId = m01;
shapes = (
{
closed = 1;
nodes = (
(163,-12,o),
(184,0,o),
(227,35,c),
(231,38,o),
(234,38,o),
(235,34,c),
(243,4,o),
(260,-12,o),
(289,-12,c),
(315,-12,o),
(355,11,o),
(396,47,c),
(401,58,o),
(400,77,o),
(385,80,c),
(379,80,o),
(378,79,o),
(373,76,c),
(361,65,o),
(351,59,o),
(335,59,c),
(327,59,o),
(319,60,o),
(319,102,c),
(319,279,l),
(319,341,o),
(318,350,o),
(302,373,c),
(278,407,o),
(232,431,o),
(189,431,c),
(156,431,o),
(131,419,o),
(94,390,c),
(57,360,o),
(31,330,o),
(31,303,c),
(31,279,o),
(41,277,o),
(60,283,c),
(67,285,o),
(114,306,o),
(123,316,c),
(118,327,o),
(119,329,o),
(119,341,c),
(119,359,o),
(150,379,o),
(169,379,c),
(206,379,o),
(228,352,o),
(229,297,c),
(230,234,l),
(230,228,o),
(225,224,o),
(222,221,c),
(189,206,o),
(167,195,o),
(132,186,c),
(64,168,o),
(25,135,o),
(25,81,c),
(25,26,o),
(67,-12,o),
(125,-12,c)
);
},
{
closed = 1;
nodes = (
(131,46,o),
(110,67,o),
(110,94,c),
(110,117,o),
(122,133,o),
(160,148,c),
(181,157,o),
(201,166,o),
(221,176,c),
(226,178,o),
(229,168,o),
(229,160,c),
(229,93,l),
(221,73,o),
(176,46,o),
(159,46,c)
);
},
{
closed = 1;
nodes = (
(241,466,o),
(267,463,o),
(267,485,c),
(257,528,o),
(234,602,o),
(218,647,c),
(213,657,o),
(205,658,o),
(195,658,c),
(121,657,l),
(107,657,o),
(92,641,o),
(102,629,c),
(145,583,o),
(202,515,o),
(233,474,c)
);
}
);
width = 414;
}
);
unicode = 224;
},
{
glyphname = aring;
lastChange = "2023-05-15 06:06:27 +0000";
layers = (
{
layerId = m01;
shapes = (
{
closed = 1;
nodes = (
(163,-12,o),
(184,0,o),
(227,35,c),
(231,38,o),
(234,38,o),
(235,34,c),
(243,4,o),
(260,-12,o),
(289,-12,c),
(315,-12,o),
(355,11,o),
(396,47,c),
(401,58,o),
(400,77,o),
(385,80,c),
(379,80,o),
(378,79,o),
(373,76,c),
(361,65,o),
(351,59,o),
(335,59,c),
(327,59,o),
(319,60,o),
(319,102,c),
(319,279,l),
(319,341,o),
(318,350,o),
(302,373,c),
(278,407,o),
(232,431,o),
(189,431,c),
(156,431,o),
(131,419,o),
(94,390,c),
(57,360,o),
(31,330,o),
(31,303,c),
(31,279,o),
(41,277,o),
(60,283,c),
(67,285,o),
(114,306,o),
(123,316,c),
(118,327,o),
(119,329,o),
(119,341,c),
(119,359,o),
(150,379,o),
(169,379,c),
(206,379,o),
(228,352,o),
(229,297,c),
(230,234,l),
(230,228,o),
(225,224,o),
(222,221,c),
(189,206,o),
(167,195,o),
(132,186,c),
(64,168,o),
(25,135,o),
(25,81,c),
(25,26,o),
(67,-12,o),
(125,-12,c)
);
},
{
closed = 1;
nodes = (
(131,46,o),
(110,67,o),
(110,94,c),
(110,117,o),
(122,133,o),
(160,148,c),
(181,157,o),
(201,166,o),
(221,176,c),
(226,178,o),
(229,168,o),
(229,160,c),
(229,93,l),
(221,73,o),
(176,46,o),
(159,46,c)
);
},
{
closed = 1;
nodes = (
(252,474,o),
(298,520,o),
(298,577,c),
(298,634,o),
(252,680,o),
(197,680,c),
(140,680,o),
(94,634,o),
(94,577,c),
(94,520,o),
(140,474,o),
(197,474,c)
);
},
{
closed = 1;
nodes = (
(170,529,o),
(149,550,o),
(149,577,c),
(149,604,o),
(170,625,o),
(197,625,c),
(221,625,o),
(243,604,o),
(243,577,c),
(243,550,o),
(221,529,o),
(197,529,c)
);
}
);
width = 414;
}
);
unicode = 229;
},
{
glyphname = atilde;
lastChange = "2023-05-15 06:06:27 +0000";
layers = (
{
layerId = m01;
shapes = (
{
closed = 1;
nodes = (
(163,-12,o),
(184,0,o),
(227,35,c),
(231,38,o),
(234,38,o),
(235,34,c),
(243,4,o),
(260,-12,o),
(289,-12,c),
(315,-12,o),
(355,11,o),
(396,47,c),
(401,58,o),
(400,77,o),
(385,80,c),
(379,80,o),
(378,79,o),
(373,76,c),
(361,65,o),
(351,59,o),
(335,59,c),
(327,59,o),
(319,60,o),
(319,102,c),
(319,279,l),
(319,341,o),
(318,350,o),
(302,373,c),
(278,407,o),
(232,431,o),
(189,431,c),
(156,431,o),
(131,419,o),
(94,390,c),
(57,360,o),
(31,330,o),
(31,303,c),
(31,279,o),
(41,277,o),
(60,283,c),
(67,285,o),
(114,306,o),
(123,316,c),
(118,327,o),
(119,329,o),
(119,341,c),
(119,359,o),
(150,379,o),
(169,379,c),
(206,379,o),
(228,352,o),
(229,297,c),
(230,234,l),
(230,228,o),
(225,224,o),
(222,221,c),
(189,206,o),
(167,195,o),
(132,186,c),
(64,168,o),
(25,135,o),
(25,81,c),
(25,26,o),
(67,-12,o),
(125,-12,c)
);
},
{
closed = 1;
nodes = (
(131,46,o),
(110,67,o),
(110,94,c),
(110,117,o),
(122,133,o),
(160,148,c),
(181,157,o),
(201,166,o),
(221,176,c),
(226,178,o),
(229,168,o),
(229,160,c),
(229,93,l),
(221,73,o),
(176,46,o),
(159,46,c)
);
},
{
closed = 1;
nodes = (
(325,467,o),
(366,521,o),
(366,589,c),
(366,592,o),
(366,596,o),
(364,602,c),
(363,610,o),
(353,613,o),
(347,612,c),
(338,612,o),
(330,607,o),
(329,602,c),
(322,551,o),
(311,545,o),
(296,545,c),
(286,545,o),
(272,550,o),
(242,569,c),
(198,598,o),
(175,607,o),
(144,607,c),
(81,607,o),
(48,558,o),
(44,476,c),
(47,459,o),
(75,464,o),
(81,475,c),
(81,481,o),
(83,487,o),
(84,493,c),
(91,525,o),
(100,532,o),
(114,532,c),
(125,532,o),
(132,528,o),
(168,504,c),
(205,479,o),
(237,467,o),
(265,467,c)
);
}
);
width = 414;
}
);
unicode = 227;
},
{
glyphname = ae;
lastChange = "2023-05-15 06:06:27 +0000";
layers = (
{
layerId = m01;
shapes = (
{
closed = 1;
nodes = (
(184,-17,o),
(241,13,o),
(282,55,c),
(289,62,o),
(295,57,o),
(299,52,c),
(333,8,o),
(380,-17,o),
(434,-17,c),
(504,-17,o),
(567,34,o),
(610,84,c),
(615,90,o),
(620,101,o),
(612,108,c),
(605,116,l),
(599,123,o),
(583,120,o),
(577,114,c),
(537,72,o),
(512,57,o),
(471,57,c),
(421,57,o),
(371,92,o),
(355,141,c),
(348,163,o),
(344,206,o),
(344,242,c),
(344,254,o),
(350,258,o),
(366,258,c),
(602,258,l),
(614,258,o),
(627,260,o),
(627,275,c),
(627,292,l),
(616,303,o),
(614,306,o),
(610,315,c),
(578,388,o),
(544,433,o),
(458,433,c),
(409,433,o),
(367,417,o),
(332,388,c),
(325,382,o),
(323,376,o),
(315,384,c),
(289,413,o),
(248,431,o),
(208,431,c),
(176,431,o),
(147,420,o),
(112,393,c),
(68,359,o),
(45,333,o),
(45,305,c),
(45,276,o),
(53,271,o),
(72,280,c),
(126,305,l),
(142,312,o),
(135,325,o),
(135,338,c),
(135,357,o),
(159,377,o),
(191,377,c),
(231,377,o),
(255,349,o),
(255,289,c),
(255,227,l),
(227,209,o),
(207,200,o),
(169,190,c),
(69,165,o),
(36,139,o),
(36,77,c),
(36,23,o),
(81,-17,o),
(139,-17,c)
);
},
{
closed = 1;
nodes = (
(145,43,o),
(125,60,o),
(125,91,c),
(125,118,o),
(137,132,o),
(191,150,c),
(218,159,o),
(235,167,o),
(248,174,c),
(254,176,o),
(255,169,o),
(255,165,c),
(255,85,l),
(224,56,o),
(197,43,o),
(174,43,c)
);
},
{
closed = 1;
nodes = (
(364,300,o),
(349,300,o),
(350,303,c),
(363,360,o),
(393,389,o),
(436,389,c),
(471,389,o),
(504,360,o),
(515,305,c),
(516,304,o),
(508,300,o),
(505,300,c),
(366,300,l)
);
}
);
width = 654;
}
);
unicode = 230;
},
{
glyphname = b;
lastChange = "2023-05-15 06:39:53 +0000";
layers = (
{
layerId = m01;
shapes = (
{
closed = 1;
nodes = (
(362,-15,o),
(457,92,o),
(457,230,c),
(457,339,o),
(385,432,o),
(294,432,c),
(253,432,o),
(206,396,o),
(172,372,c),
(166,367,o),
(163,374,o),
(163,389,c),
(163,474,o),
(163,634,o),
(163,702,c),
(163,720,o),
(158,731,o),
(138,724,c),
(19,683,l),
(5,679,o),
(5,651,o),
(19,646,c),
(33,643,o),
(47,641,o),
(60,638,c),
(72,636,o),
(77,634,o),
(77,625,c),
(78,618,o),
(78,606,o),
(78,589,c),
(79,462,o),
(80,222,o),
(78,27,c),
(79,17,o),
(86,6,o),
(92,4,c),
(141,-7,o),
(199,-15,o),
(228,-15,c)
);
},
{
closed = 1;
nodes = (
(210,39,o),
(179,64,o),
(170,101,c),
(164,125,o),
(163,173,o),
(163,219,c),
(163,247,o),
(164,274,o),
(164,293,c),
(164,307,o),
(166,318,o),
(170,321,c),
(208,349,o),
(232,362,o),
(256,362,c),
(320,362,o),
(369,299,o),
(369,199,c),
(369,101,o),
(322,39,o),
(254,39,c)
);
}
);
width = 491;
}
);
unicode = 98;
},
{
glyphname = c;
lastChange = "2023-05-15 06:06:27 +0000";
layers = (
{
layerId = m01;
shapes = (
{
closed = 1;
nodes = (
(285,-12,o),
(346,24,o),
(389,93,c),
(391,96,o),
(395,105,o),
(393,112,c),
(392,118,o),
(385,126,o),
(380,128,c),
(369,131,o),
(360,121,o),
(357,114,c),
(330,75,o),
(294,53,o),
(247,53,c),
(174,53,o),
(121,117,o),
(121,216,c),
(121,309,o),
(176,384,o),
(235,384,c),
(253,384,o),
(266,379,o),
(287,358,c),
(312,334,o),
(328,323,o),
(351,323,c),
(373,323,o),
(391,341,o),
(391,364,c),
(391,408,o),
(331,432,o),
(270,432,c),
(137,432,o),
(30,326,o),
(30,193,c),
(30,76,o),
(107,-12,o),
(213,-12,c)
);
}
);
width = 432;
}
);
unicode = 99;
},
{
glyphname = ccedilla;
lastChange = "2023-05-15 06:06:27 +0000";
layers = (
{
layerId = m01;
shapes = (
{
closed = 1;
nodes = (
(253,-234,o),
(300,-190,o),
(300,-136,c),
(300,-95,o),
(269,-62,o),
(233,-53,c),
(229,-52,o),
(231,-45,o),
(232,-43,c),
(248,-13,l),
(305,-3,o),
(353,33,o),
(390,90,c),
(392,93,o),
(397,103,o),
(394,110,c),
(393,115,o),
(385,124,o),
(381,126,c),
(369,129,o),
(360,117,o),
(358,111,c),
(331,73,o),
(295,48,o),
(248,48,c),
(175,48,o),
(120,115,o),
(120,214,c),
(120,308,o),
(177,384,o),
(236,384,c),
(254,384,o),
(267,379,o),
(288,358,c),
(313,333,o),
(329,322,o),
(352,322,c),
(374,322,o),
(392,340,o),
(392,364,c),
(392,408,o),
(332,432,o),
(271,432,c),
(138,432,o),
(30,326,o),
(30,192,c),
(30,81,o),
(98,-6,o),
(196,-15,c),
(200,-15,o),
(205,-19,o),
(200,-26,c),
(141,-125,l),
(132,-141,o),
(154,-147,o),
(161,-141,c),
(195,-112,o),
(237,-116,o),
(237,-153,c),
(237,-174,o),
(214,-194,o),
(190,-194,c),
(180,-194,o),
(161,-184,o),
(154,-197,c),
(153,-200,o),
(152,-202,o),
(150,-204,c),
(146,-213,o),
(150,-225,o),
(157,-227,c),
(174,-233,o),
(186,-234,o),
(200,-234,c)
);
}
);
width = 432;
}
);
unicode = 231;
},
{
glyphname = d;
lastChange = "2023-05-15 06:39:53 +0000";
layers = (
{
layerId = m01;
shapes = (
{
closed = 1;
nodes = (
(230,-15,o),
(270,4,o),
(326,43,c),
(330,45,o),
(335,42,o),
(334,26,c),
(333,12,o),
(338,-18,o),
(363,-10,c),
(397,0,o),
(459,23,o),
(492,39,c),
(498,42,o),
(501,56,o),
(498,68,c),
(492,85,o),
(485,82,o),
(473,80,c),
(469,78,o),
(449,71,o),
(444,71,c),
(426,71,o),
(423,72,o),
(423,121,c),
(423,711,l),
(423,725,o),
(417,741,o),
(399,734,c),
(360,719,o),
(310,702,o),
(276,691,c),
(265,689,o),
(261,680,o),
(262,670,c),
(263,661,o),
(264,653,o),
(275,652,c),
(289,650,o),
(318,651,o),
(330,644,c),
(334,642,o),
(334,636,o),
(335,632,c),
(335,615,o),
(336,481,o),
(335,442,c),
(334,433,o),
(334,416,o),
(323,419,c),
(297,427,o),
(273,432,o),
(248,432,c),
(120,432,o),
(22,327,o),
(22,193,c),
(22,80,o),
(96,-15,o),
(192,-15,c)
);
},
{
closed = 1;
nodes = (
(164,55,o),
(113,123,o),
(113,224,c),
(113,319,o),
(159,380,o),
(227,380,c),
(268,380,o),
(299,361,o),
(334,310,c),
(334,113,l),
(333,102,o),
(328,95,o),
(327,95,c),
(288,68,o),
(253,55,o),
(228,55,c)
);
}
);
width = 513;
}
);
unicode = 100;
},
{
glyphname = eth;
lastChange = "2023-05-15 06:06:27 +0000";
layers = (
{
layerId = m01;
shapes = (
{
closed = 1;
nodes = (
(335,-17,o),
(388,4,o),
(430,40,c),
(482,87,o),
(503,146,o),
(503,238,c),
(503,310,o),
(482,389,o),
(446,455,c),
(421,499,o),
(378,553,o),
(338,583,c),
(329,590,o),
(330,596,o),
(339,601,c),
(368,616,o),
(418,633,o),
(403,657,c),
(397,668,o),
(389,671,o),
(374,667,c),
(284,622,l),
(244,644,o),
(220,654,o),
(160,671,c),
(149,674,o),
(136,670,o),
(130,658,c),
(122,645,l),
(114,630,o),
(132,621,o),
(137,620,c),
(136,620,l),
(166,609,o),
(183,601,o),
(202,590,c),
(208,587,o),
(207,580,o),
(201,577,c),
(95,521,l),
(82,514,o),
(79,504,o),
(86,491,c),
(91,479,o),
(101,478,o),
(108,479,c),
(233,546,l),
(243,551,o),
(259,548,o),
(266,542,c),
(292,517,o),
(304,504,o),
(319,480,c),
(322,476,o),
(360,420,o),
(332,430,c),
(313,436,o),
(295,440,o),
(271,440,c),
(144,440,o),
(46,341,o),
(46,212,c),
(46,79,o),
(142,-17,o),
(276,-17,c)
);
},
{
closed = 1;
nodes = (
(209,29,o),
(141,121,o),
(141,244,c),
(141,331,o),
(194,392,o),
(258,392,c),
(340,392,o),
(407,304,o),
(407,178,c),
(407,89,o),
(356,29,o),
(288,29,c)
);
}
);
width = 545;
}
);
unicode = 240;
},
{
glyphname = e;
lastChange = "2023-05-15 06:06:27 +0000";
layers = (
{
layerId = m01;
shapes = (
{
closed = 1;
nodes = (
(291,-15,o),
(351,40,o),
(400,97,c),
(406,107,o),
(398,123,o),
(387,125,c),
(380,127,o),
(371,124,o),
(367,119,c),
(330,75,o),
(295,58,o),
(251,58,c),
(172,58,o),
(112,128,o),
(112,227,c),
(112,238,o),
(114,260,o),
(131,260,c),
(193,259,o),
(311,257,o),
(386,260,c),
(406,261,o),
(408,277,o),
(403,293,c),
(391,308,o),
(384,323,o),
(376,340,c),
(347,401,o),
(301,429,o),
(231,429,c),
(113,429,o),
(26,331,o),
(26,202,c),
(26,82,o),
(105,-15,o),
(212,-15,c)
);
},
{
closed = 1;
nodes = (
(138,302,o),
(122,304,o),
(125,312,c),
(144,363,o),
(173,388,o),
(210,388,c),
(248,388,o),
(279,362,o),
(293,309,c),
(295,303,o),
(282,302,o),
(277,302,c),
(142,302,l)
);
}
);
width = 432;
}
);
unicode = 101;
},
{
glyphname = eacute;
lastChange = "2023-05-15 06:06:27 +0000";
layers = (
{
layerId = m01;
shapes = (
{
closed = 1;
nodes = (
(292,-15,o),
(352,40,o),
(400,97,c),
(406,107,o),
(398,123,o),
(387,125,c),
(380,127,o),
(372,124,o),
(367,119,c),
(331,75,o),
(296,58,o),
(251,58,c),
(172,58,o),
(113,128,o),
(113,227,c),
(113,238,o),
(115,260,o),
(132,260,c),
(194,259,o),
(311,257,o),
(386,260,c),
(406,261,o),
(409,277,o),
(403,293,c),
(391,308,o),
(384,323,o),
(376,340,c),
(348,401,o),
(301,429,o),
(232,429,c),
(113,429,o),
(26,331,o),
(26,202,c),
(26,82,o),
(105,-15,o),
(212,-15,c)
);
},
{
closed = 1;
nodes = (
(138,302,o),
(122,304,o),
(125,312,c),
(144,363,o),
(174,388,o),
(210,388,c),
(249,388,o),
(280,362,o),
(294,309,c),
(295,303,o),
(283,302,o),
(277,302,c),
(142,302,l)
);
},
{
closed = 1;
nodes = (
(345,638,l),
(347,640,o),
(348,643,o),
(348,646,c),
(350,657,o),
(340,661,o),
(329,661,c),
(243,661,l),
(235,661,o),
(224,655,o),
(221,644,c),
(173,483,l),
(166,461,o),
(198,459,o),
(207,469,c)
);
}
);
width = 432;
}
);
unicode = 233;
},
{
glyphname = ecircumflex;
lastChange = "2023-05-15 06:06:27 +0000";
layers = (
{
layerId = m01;
shapes = (
{
closed = 1;
nodes = (
(292,-15,o),
(352,40,o),
(400,97,c),
(406,107,o),
(398,123,o),
(387,125,c),
(380,127,o),
(372,124,o),
(367,119,c),
(331,75,o),
(296,58,o),
(251,58,c),
(172,58,o),
(113,128,o),
(113,227,c),
(113,238,o),
(115,260,o),
(132,260,c),
(194,259,o),
(311,257,o),
(386,260,c),
(406,261,o),
(409,277,o),
(403,293,c),
(391,308,o),
(384,323,o),
(376,340,c),
(348,401,o),
(301,429,o),
(232,429,c),
(113,429,o),
(26,331,o),
(26,202,c),
(26,82,o),
(105,-15,o),
(212,-15,c)
);
},
{
closed = 1;
nodes = (
(138,302,o),
(122,304,o),
(125,312,c),
(144,363,o),
(174,388,o),
(210,388,c),
(249,388,o),
(280,362,o),
(294,309,c),
(295,303,o),
(283,302,o),
(277,302,c),
(142,302,l)
);
},
{
closed = 1;
nodes = (
(376,477,o),
(372,487,o),
(369,494,c),
(283,637,l),
(277,646,o),
(273,648,o),
(262,649,c),
(249,650,o),
(206,649,o),
(198,648,c),
(192,646,o),
(186,642,o),
(182,636,c),
(95,489,l),
(87,476,o),
(114,467,o),
(126,477,c),
(230,572,l),
(341,477,l),
(346,473,o),
(358,472,o),
(365,474,c)
);
}
);
width = 432;
}
);
unicode = 234;
},
{
glyphname = edieresis;
lastChange = "2023-05-15 06:06:27 +0000";
layers = (
{
layerId = m01;
shapes = (
{
closed = 1;
nodes = (
(292,-15,o),
(352,40,o),
(400,97,c),
(406,107,o),
(398,123,o),
(387,125,c),
(380,127,o),
(372,124,o),
(367,119,c),
(331,75,o),
(296,58,o),
(251,58,c),
(172,58,o),
(113,128,o),
(113,227,c),
(113,238,o),
(115,260,o),
(132,260,c),
(194,259,o),
(311,257,o),
(386,260,c),
(406,261,o),
(409,277,o),
(403,293,c),
(391,308,o),
(384,323,o),
(376,340,c),
(348,401,o),
(301,429,o),
(232,429,c),
(113,429,o),
(26,331,o),
(26,202,c),
(26,82,o),
(105,-15,o),
(212,-15,c)
);
},
{
closed = 1;
nodes = (
(138,302,o),
(122,304,o),
(125,312,c),
(144,363,o),
(174,388,o),
(210,388,c),
(249,388,o),
(280,362,o),
(294,309,c),
(295,303,o),
(283,302,o),
(277,302,c),
(142,302,l)
);
},
{
closed = 1;
nodes = (
(184,475,o),
(212,501,o),
(212,537,c),
(212,570,o),
(184,598,o),
(151,598,c),
(117,598,o),
(89,570,o),
(89,537,c),
(89,501,o),
(117,475,o),
(151,475,c)
);
},
{
closed = 1;
nodes = (
(349,475,o),
(375,503,o),
(375,537,c),
(375,570,o),
(349,598,o),
(314,598,c),
(281,598,o),
(253,570,o),
(253,537,c),
(253,502,o),
(281,475,o),
(314,475,c)
);
}
);
width = 432;
}
);
unicode = 235;
},
{
glyphname = egrave;
lastChange = "2023-05-15 06:06:27 +0000";
layers = (
{
layerId = m01;
shapes = (
{
closed = 1;
nodes = (
(292,-15,o),
(352,40,o),
(400,97,c),
(406,107,o),
(398,123,o),
(387,125,c),
(380,127,o),
(372,124,o),
(367,119,c),
(331,75,o),
(296,58,o),
(251,58,c),
(172,58,o),
(113,128,o),
(113,227,c),
(113,238,o),
(115,260,o),
(132,260,c),
(194,259,o),
(311,257,o),
(386,260,c),
(406,261,o),
(409,277,o),
(403,293,c),
(391,308,o),
(384,323,o),
(376,340,c),
(348,401,o),
(301,429,o),
(232,429,c),
(113,429,o),
(26,331,o),
(26,202,c),
(26,82,o),
(105,-15,o),
(212,-15,c)
);
},
{
closed = 1;
nodes = (
(138,302,o),
(122,304,o),
(125,312,c),
(144,363,o),
(174,388,o),
(210,388,c),
(249,388,o),
(280,362,o),
(294,309,c),
(295,303,o),
(283,302,o),
(277,302,c),
(142,302,l)
);
},
{
closed = 1;
nodes = (
(265,466,o),
(291,463,o),
(291,485,c),
(280,528,o),
(259,602,o),
(242,647,c),
(237,657,o),
(230,658,o),
(219,658,c),
(145,657,l),
(132,657,o),
(115,641,o),
(127,629,c),
(168,583,o),
(225,515,o),
(257,474,c)
);
}
);
width = 432;
}
);
unicode = 232;
},
{
glyphname = f;
lastChange = "2023-05-15 06:06:27 +0000";
layers = (
{
layerId = m01;
shapes = (
{
closed = 1;
nodes = (
(98,0,o),
(220,-1,o),
(282,-3,c),
(289,-3,o),
(297,7,o),
(297,18,c),
(295,32,o),
(293,43,o),
(279,44,c),
(269,45,o),
(257,44,o),
(246,44,c),
(233,44,o),
(204,45,o),
(194,57,c),
(187,67,o),
(186,84,o),
(186,131,c),
(186,331,l),
(186,341,o),
(190,349,o),
(193,349,c),
(274,348,l),
(284,348,o),
(289,352,o),
(291,361,c),
(291,361,o),
(288,389,o),
(283,409,c),
(280,415,o),
(282,420,o),
(265,420,c),
(197,420,l),
(189,420,o),
(186,427,o),
(186,438,c),
(185,502,l),
(184,547,o),
(189,572,o),
(198,598,c),
(211,635,o),
(243,659,o),
(281,659,c),
(308,659,o),
(345,643,o),
(371,622,c),
(387,609,o),
(403,597,o),
(419,622,c),
(428,638,o),
(439,656,o),
(439,666,c),
(439,671,o),
(438,676,o),
(435,680,c),
(413,713,o),
(356,727,o),
(325,727,c),
(270,727,o),
(216,700,o),
(168,646,c),
(113,587,o),
(101,542,o),
(97,466,c),
(96,450,o),
(96,441,o),
(95,431,c),
(95,423,o),
(95,417,o),
(87,413,c),
(69,403,o),
(52,397,o),
(25,391,c),
(19,387,o),
(18,368,o),
(21,358,c),
(24,350,o),
(32,351,o),
(37,351,c),
(88,351,l),
(95,349,o),
(95,340,o),
(95,330,c),
(95,135,l),
(95,55,o),
(91,41,o),
(49,41,c),
(40,41,o),
(31,42,o),
(26,31,c),
(24,28,o),
(24,22,o),
(24,18,c),
(24,8,o),
(29,-3,o),
(37,-3,c)
);
}
);
width = 321;
}
);
unicode = 102;
},
{
glyphname = g;
lastChange = "2023-05-15 06:06:27 +0000";
layers = (
{
layerId = m01;
shapes = (
{
closed = 1;
nodes = (
(330,-250,o),
(453,-173,o),
(453,-67,c),
(453,-24,o),
(436,12,o),
(398,29,c),
(352,50,o),
(300,51,o),
(242,52,c),
(186,53,o),
(157,56,o),
(142,60,c),
(114,68,o),
(129,82,o),
(143,95,c),
(152,102,o),
(162,109,o),
(169,118,c),
(182,115,o),
(194,113,o),
(207,113,c),
(304,113,o),
(377,176,o),
(377,268,c),
(377,285,o),
(376,295,o),
(371,311,c),
(368,320,o),
(376,319,o),
(379,319,c),
(400,316,o),
(428,313,o),
(433,313,c),
(444,313,o),
(447,322,o),
(448,330,c),
(449,348,o),
(447,363,o),
(445,380,c),
(443,399,o),
(436,401,o),
(420,398,c),
(395,395,o),
(338,388,o),
(333,388,c),
(327,388,l),
(301,415,o),
(264,429,o),
(221,429,c),
(127,429,o),
(51,357,o),
(51,260,c),
(51,207,o),
(78,165,o),
(121,139,c),
(126,135,o),
(124,131,o),
(118,127,c),
(110,122,o),
(101,117,o),
(90,111,c),
(70,100,o),
(44,87,o),
(44,65,c),
(44,36,o),
(62,9,o),
(110,-11,c),
(115,-12,o),
(118,-16,o),
(112,-21,c),
(67,-49,o),
(26,-74,o),
(26,-136,c),
(26,-209,o),
(124,-250,o),
(189,-250,c)
);
},
{
closed = 1;
nodes = (
(172,-189,o),
(109,-156,o),
(110,-110,c),
(110,-91,o),
(130,-67,o),
(143,-53,c),
(151,-45,o),
(163,-35,o),
(170,-26,c),
(211,-27,o),
(238,-25,o),
(280,-29,c),
(362,-35,o),
(383,-54,o),
(383,-94,c),
(383,-139,o),
(305,-189,o),
(243,-189,c)
);
},
{
closed = 1;
nodes = (
(173,158,o),
(135,202,o),
(135,281,c),
(135,343,o),
(168,386,o),
(210,386,c),
(256,386,o),
(294,337,o),
(294,262,c),
(294,194,o),
(261,158,o),
(218,158,c)
);
}
);
width = 483;
}
);
unicode = 103;
},
{
glyphname = h;
lastChange = "2023-05-15 06:39:53 +0000";
layers = (
{
layerId = m01;
shapes = (
{
closed = 1;
nodes = (
(91,-5,o),
(182,-1,o),
(233,-3,c),
(246,-5,o),
(251,0,o),
(251,13,c),
(250,17,o),
(250,25,o),
(250,28,c),
(248,42,o),
(239,41,o),
(230,41,c),
(191,41,o),
(184,45,o),
(184,93,c),
(184,298,l),
(184,309,o),
(183,330,o),
(193,336,c),
(221,354,o),
(241,370,o),
(277,370,c),
(300,370,o),
(320,361,o),
(333,347,c),
(351,327,o),
(357,306,o),
(357,217,c),
(357,169,o),
(355,125,o),
(350,83,c),
(347,51,o),
(342,42,o),
(297,42,c),
(291,42,l),
(280,42,o),
(276,27,o),
(277,20,c),
(277,14,o),
(280,-2,o),
(298,-2,c),
(350,-1,o),
(409,-4,o),
(506,-2,c),
(514,-2,o),
(519,8,o),
(518,20,c),
(516,34,o),
(516,44,o),
(498,44,c),
(445,44,o),
(442,49,o),
(442,68,c),
(442,90,o),
(443,112,o),
(444,133,c),
(447,200,o),
(455,294,o),
(435,358,c),
(419,409,o),
(380,431,o),
(325,431,c),
(271,431,o),
(238,415,o),
(196,388,c),
(184,381,o),
(184,404,o),
(184,409,c),
(184,701,l),
(184,725,o),
(172,733,o),
(158,729,c),
(116,717,o),
(63,699,o),
(32,686,c),
(17,680,o),
(20,650,o),
(33,648,c),
(47,646,o),
(59,645,o),
(72,643,c),
(83,642,o),
(92,634,o),
(92,623,c),
(93,586,l),
(93,135,l),
(93,53,o),
(87,46,o),
(48,43,c),
(41,42,o),
(29,42,o),
(24,36,c),
(15,26,o),
(19,-5,o),
(34,-3,c)
);
}
);
width = 542;
}
);
unicode = 104;
},
{
glyphname = i;
lastChange = "2023-05-15 06:39:53 +0000";
layers = (
{
layerId = m01;
shapes = (
{
closed = 1;
nodes = (
(83,-2,o),
(181,0,o),
(227,-3,c),
(240,-4,o),
(247,0,o),
(247,10,c),
(247,13,o),
(247,25,o),
(247,28,c),
(245,40,o),
(237,45,o),
(224,44,c),
(187,44,o),
(185,45,o),
(183,77,c),
(182,91,o),
(182,108,o),
(182,128,c),
(182,412,l),
(182,427,o),
(179,450,o),
(151,441,c),
(111,428,o),
(67,412,o),
(33,399,c),
(25,393,o),
(23,368,o),
(35,364,c),
(49,360,o),
(59,356,o),
(74,353,c),
(79,352,o),
(89,351,o),
(92,346,c),
(95,340,o),
(95,330,o),
(95,304,c),
(95,128,l),
(95,53,o),
(102,47,o),
(32,41,c),
(23,41,o),
(19,28,o),
(20,17,c),
(21,7,o),
(29,-3,o),
(34,-3,c)
);
},
{
closed = 1;
nodes = (
(157,553,o),
(184,575,o),
(184,607,c),
(184,641,o),
(159,665,o),
(126,665,c),
(95,665,o),
(70,640,o),
(70,608,c),
(70,577,o),
(92,553,o),
(125,553,c)
);
}
);
width = 266;
}
);
unicode = 105;
},
{
glyphname = idotless;
lastChange = "2023-05-15 06:06:27 +0000";
layers = (
{
layerId = m01;
shapes = (
{
closed = 1;
nodes = (
(97,-1,o),
(185,-1,o),
(234,-2,c),
(237,-2,o),
(245,8,o),
(245,18,c),
(246,25,o),
(244,38,o),
(235,40,c),
(224,40,l),
(187,40,o),
(183,43,o),
(181,77,c),
(180,90,o),
(180,107,o),
(180,127,c),
(180,420,l),
(180,439,o),
(170,444,o),
(154,439,c),
(32,396,l),
(24,390,o),
(22,365,o),
(34,361,c),
(48,357,o),
(59,353,o),
(74,350,c),
(79,349,o),
(89,348,o),
(92,343,c),
(95,337,o),
(95,327,o),
(95,302,c),
(95,127,l),
(95,44,o),
(94,40,o),
(43,40,c),
(31,40,l),
(23,40,o),
(18,29,o),
(19,17,c),
(20,7,o),
(28,-2,o),
(33,-2,c)
);
}
);
width = 266;
}
);
unicode = 305;
},
{
glyphname = iacute;
lastChange = "2023-05-15 06:06:27 +0000";
layers = (
{
layerId = m01;
shapes = (
{
closed = 1;
nodes = (
(83,-2,o),
(181,0,o),
(227,-3,c),
(240,-4,o),
(247,0,o),
(247,10,c),
(247,13,o),
(247,25,o),
(247,28,c),
(245,40,o),
(237,45,o),
(224,44,c),
(187,44,o),
(185,45,o),
(183,77,c),
(182,91,o),
(182,108,o),
(182,128,c),
(182,412,l),
(182,427,o),
(179,450,o),
(151,441,c),
(111,428,o),
(67,412,o),
(33,399,c),
(25,393,o),
(23,368,o),
(35,364,c),
(49,360,o),
(59,356,o),
(74,353,c),
(79,352,o),
(89,351,o),
(92,346,c),
(95,340,o),
(95,330,o),
(95,304,c),
(95,128,l),
(95,53,o),
(102,47,o),
(32,41,c),
(23,41,o),
(19,28,o),
(20,17,c),
(21,7,o),
(29,-3,o),
(34,-3,c)
);
},
{
closed = 1;
nodes = (
(246,639,l),
(247,641,o),
(249,644,o),
(249,647,c),
(250,658,o),
(240,661,o),
(231,661,c),
(147,661,l),
(139,661,o),
(128,655,o),
(125,645,c),
(79,490,l),
(73,469,o),
(104,467,o),
(112,477,c)
);
}
);
width = 266;
}
);
unicode = 237;
},
{
glyphname = icircumflex;
lastChange = "2023-05-15 06:06:27 +0000";
layers = (
{
layerId = m01;
shapes = (
{
closed = 1;
nodes = (
(83,-2,o),
(181,0,o),
(227,-3,c),
(240,-4,o),
(247,0,o),
(247,10,c),
(247,13,o),
(247,25,o),
(247,28,c),
(245,40,o),
(237,45,o),
(224,44,c),
(187,44,o),
(185,45,o),
(183,77,c),
(182,91,o),
(182,108,o),
(182,128,c),
(182,412,l),
(182,427,o),
(179,450,o),
(151,441,c),
(111,428,o),
(67,412,o),
(33,399,c),
(25,393,o),
(23,368,o),
(35,364,c),
(49,360,o),
(59,356,o),
(74,353,c),
(79,352,o),
(89,351,o),
(92,346,c),
(95,340,o),
(95,330,o),
(95,304,c),
(95,128,l),
(95,53,o),
(102,47,o),
(32,41,c),
(23,41,o),
(19,28,o),
(20,17,c),
(21,7,o),
(29,-3,o),
(34,-3,c)
);
},
{
closed = 1;
nodes = (
(283,477,o),
(279,487,o),
(276,494,c),
(190,637,l),
(184,646,o),
(180,648,o),
(169,649,c),
(156,650,o),
(113,649,o),
(105,648,c),
(99,646,o),
(93,642,o),
(89,636,c),
(2,489,l),
(-6,476,o),
(21,467,o),
(33,477,c),
(137,572,l),
(248,477,l),
(253,473,o),
(265,472,o),
(272,474,c)
);
}
);
width = 266;
}
);
unicode = 238;
},
{
glyphname = idieresis;
lastChange = "2023-05-15 06:06:27 +0000";
layers = (
{
layerId = m01;
shapes = (
{
closed = 1;
nodes = (
(83,-2,o),
(181,0,o),
(227,-3,c),
(240,-4,o),
(247,0,o),
(247,10,c),
(247,13,o),
(247,25,o),
(247,28,c),
(245,40,o),
(237,45,o),
(224,44,c),
(187,44,o),
(185,45,o),
(183,77,c),
(182,91,o),
(182,108,o),
(182,128,c),
(182,412,l),
(182,427,o),
(179,450,o),
(151,441,c),
(111,428,o),
(67,412,o),
(33,399,c),
(25,393,o),
(23,368,o),
(35,364,c),
(49,360,o),
(59,356,o),
(74,353,c),
(79,352,o),
(89,351,o),
(92,346,c),
(95,340,o),
(95,330,o),
(95,304,c),
(95,128,l),
(95,53,o),
(102,47,o),
(32,41,c),
(23,41,o),
(19,28,o),
(20,17,c),
(21,7,o),
(29,-3,o),
(34,-3,c)
);
},
{
closed = 1;
nodes = (
(82,481,o),
(111,507,o),
(111,541,c),
(111,574,o),
(83,601,o),
(47,601,c),
(12,601,o),
(-16,574,o),
(-16,541,c),
(-16,507,o),
(12,481,o),
(47,481,c)
);
},
{
closed = 1;
nodes = (
(255,481,o),
(282,508,o),
(282,541,c),
(282,574,o),
(255,601,o),
(219,601,c),
(184,601,o),
(155,574,o),
(155,541,c),
(155,508,o),
(184,481,o),
(219,481,c)
);
}
);
width = 266;
}
);
unicode = 239;
},
{
glyphname = igrave;
lastChange = "2023-05-15 06:06:27 +0000";
layers = (
{
layerId = m01;
shapes = (
{
closed = 1;
nodes = (
(83,-2,o),
(181,0,o),
(227,-3,c),
(240,-4,o),
(247,0,o),
(247,10,c),
(247,13,o),
(247,25,o),
(247,28,c),
(245,40,o),
(237,45,o),
(224,44,c),
(187,44,o),
(185,45,o),
(183,77,c),
(182,91,o),
(182,108,o),
(182,128,c),
(182,412,l),
(182,427,o),
(179,450,o),
(151,441,c),
(111,428,o),
(67,412,o),
(33,399,c),
(25,393,o),
(23,368,o),
(35,364,c),
(49,360,o),
(59,356,o),
(74,353,c),
(79,352,o),
(89,351,o),
(92,346,c),
(95,340,o),
(95,330,o),
(95,304,c),
(95,128,l),
(95,53,o),
(102,47,o),
(32,41,c),
(23,41,o),
(19,28,o),
(20,17,c),
(21,7,o),
(29,-3,o),
(34,-3,c)
);
},
{
closed = 1;
nodes = (
(164,474,o),
(189,471,o),
(189,492,c),
(179,534,o),
(158,604,o),
(143,648,c),
(136,658,o),
(128,658,o),
(120,658,c),
(48,657,l),
(35,657,o),
(20,642,o),
(30,630,c),
(71,586,o),
(126,521,o),
(157,482,c)
);
}
);
width = 266;
}
);
unicode = 236;
},
{
glyphname = j;
lastChange = "2023-05-15 06:06:27 +0000";
layers = (
{
layerId = m01;
shapes = (
{
closed = 1;
nodes = (
(40,-244,o),
(79,-230,o),
(110,-195,c),
(126,-176,o),
(142,-155,o),
(151,-131,c),
(168,-88,o),
(171,-59,o),
(171,27,c),
(171,422,l),
(171,432,o),
(166,455,o),
(143,447,c),
(77,425,o),
(29,405,o),
(22,402,c),
(13,397,o),
(11,370,o),
(23,367,c),
(31,364,o),
(41,362,o),
(52,360,c),
(91,351,o),
(84,348,o),
(84,307,c),
(84,-10,l),
(84,-72,l),
(84,-158,o),
(65,-185,o),
(29,-185,c),
(9,-185,o),
(-11,-170,o),
(-24,-155,c),
(-34,-142,o),
(-49,-123,o),
(-67,-123,c),
(-92,-123,o),
(-107,-154,o),
(-107,-181,c),
(-107,-220,o),
(-62,-244,o),
(-7,-244,c)
);
},
{
closed = 1;
nodes = (
(146,541,o),
(171,566,o),
(171,598,c),
(171,630,o),
(147,654,o),
(114,654,c),
(81,654,o),
(56,630,o),
(56,598,c),
(56,566,o),
(80,541,o),
(114,541,c)
);
}
);
width = 247;
}
);
unicode = 106;
},
{
glyphname = k;
lastChange = "2023-05-15 06:39:53 +0000";
layers = (
{
layerId = m01;
shapes = (
{
closed = 1;
nodes = (
(80,0,o),
(179,-2,o),
(228,-3,c),
(234,-3,o),
(241,7,o),
(241,18,c),
(241,29,o),
(234,40,o),
(228,40,c),
(218,40,o),
(209,40,o),
(199,40,c),
(165,42,o),
(169,64,o),
(169,93,c),
(168,128,o),
(169,163,o),
(169,197,c),
(169,199,o),
(169,204,o),
(179,197,c),
(293,75,l),
(320,46,o),
(320,39,o),
(285,39,c),
(270,39,o),
(265,35,o),
(265,19,c),
(265,8,o),
(273,-3,o),
(279,-3,c),
(330,-1,o),
(436,0,o),
(490,-3,c),
(503,-4,o),
(509,32,o),
(492,39,c),
(481,39,l),
(450,39,o),
(439,49,o),
(417,71,c),
(356,133,o),
(299,192,o),
(240,253,c),
(234,260,o),
(238,263,o),
(241,267,c),
(276,292,o),
(306,313,o),
(339,339,c),
(380,370,o),
(410,382,o),
(457,383,c),
(461,383,o),
(468,396,o),
(468,405,c),
(468,415,o),
(463,427,o),
(452,426,c),
(407,426,o),
(331,425,o),
(271,426,c),
(256,426,o),
(253,420,o),
(252,407,c),
(250,388,o),
(259,388,o),
(268,386,c),
(272,386,o),
(278,385,o),
(287,385,c),
(315,384,o),
(307,375,o),
(283,357,c),
(180,282,l),
(172,276,o),
(169,290,o),
(169,296,c),
(168,700,l),
(167,722,o),
(160,727,o),
(139,722,c),
(101,712,o),
(78,695,o),
(25,681,c),
(14,679,o),
(9,648,o),
(26,644,c),
(28,644,o),
(48,639,o),
(50,638,c),
(58,637,o),
(79,633,o),
(80,622,c),
(81,603,o),
(81,589,o),
(81,570,c),
(81,135,l),
(81,45,o),
(78,41,o),
(36,41,c),
(25,41,o),
(21,39,o),
(18,35,c),
(12,27,o),
(17,-4,o),
(28,-3,c)
);
}
);
width = 518;
}
);
unicode = 107;
},
{
glyphname = l;
lastChange = "2023-05-15 06:39:53 +0000";
layers = (
{
layerId = m01;
shapes = (
{
closed = 1;
nodes = (
(109,0,o),
(149,-1,o),
(239,-2,c),
(252,-2,o),
(254,8,o),
(254,18,c),
(254,23,o),
(255,27,o),
(254,31,c),
(252,43,o),
(238,41,o),
(230,41,c),
(188,41,o),
(187,45,o),
(187,102,c),
(187,694,l),
(187,704,o),
(179,721,o),
(167,720,c),
(111,698,o),
(65,685,o),
(40,678,c),
(25,673,o),
(27,643,o),
(40,640,c),
(56,637,o),
(72,635,o),
(88,631,c),
(96,630,o),
(99,627,o),
(99,619,c),
(99,101,l),
(99,51,o),
(93,41,o),
(46,41,c),
(35,41,o),
(31,43,o),
(26,33,c),
(22,25,o),
(24,15,o),
(25,10,c),
(27,3,o),
(38,-2,o),
(41,-2,c)
);
}
);
width = 272;
}
);
unicode = 108;
},
{
glyphname = lslash;
lastChange = "2023-05-15 06:06:27 +0000";
layers = (
{
layerId = m01;
shapes = (
{
closed = 1;
nodes = (
(72,-2,o),
(180,-3,o),
(232,-4,c),
(253,-4,o),
(258,38,o),
(230,38,c),
(183,38,o),
(173,47,o),
(173,101,c),
(173,146,l),
(173,309,l),
(173,320,o),
(176,326,o),
(183,332,c),
(267,405,l),
(276,413,o),
(283,426,o),
(283,435,c),
(283,492,l),
(283,511,o),
(279,527,o),
(258,509,c),
(178,440,l),
(175,437,o),
(173,439,o),
(173,446,c),
(173,684,l),
(173,701,o),
(169,713,o),
(150,708,c),
(12,668,l),
(6,665,o),
(2,658,o),
(3,650,c),
(2,641,o),
(7,635,o),
(12,631,c),
(14,631,o),
(74,624,o),
(81,619,c),
(82,619,o),
(85,612,o),
(85,609,c),
(85,556,l),
(85,374,l),
(85,366,o),
(83,361,o),
(77,355,c),
(43,323,o),
(6,294,o),
(-30,263,c),
(-30,183,l),
(-30,145,o),
(-7,172,o),
(81,247,c),
(84,250,o),
(85,248,o),
(85,245,c),
(85,139,l),
(85,100,l),
(85,52,o),
(71,38,o),
(21,38,c),
(3,38,o),
(2,26,o),
(2,14,c),
(2,5,o),
(7,-2,o),
(17,-4,c)
);
}
);
width = 251;
}
);
unicode = 322;
},
{
glyphname = m;
lastChange = "2023-05-15 06:39:53 +0000";
layers = (
{
layerId = m01;
shapes = (
{
closed = 1;
nodes = (
(96,-1,o),
(199,-1,o),
(248,-3,c),
(254,-3,o),
(260,0,o),
(262,10,c),
(262,20,o),
(261,36,o),
(256,37,c),
(248,39,o),
(248,40,o),
(242,39,c),
(195,39,o),
(189,46,o),
(189,92,c),
(189,315,l),
(221,336,o),
(267,369,o),
(307,369,c),
(344,369,o),
(368,343,o),
(368,293,c),
(368,134,l),
(368,46,o),
(360,40,o),
(314,40,c),
(309,40,o),
(304,41,o),
(299,38,c),
(287,32,o),
(281,-2,o),
(304,-2,c),
(358,-1,o),
(459,-2,o),
(508,-3,c),
(519,-3,o),
(524,11,o),
(524,19,c),
(523,33,o),
(519,39,o),
(505,39,c),
(465,39,o),
(457,47,o),
(457,92,c),
(457,315,l),
(506,348,o),
(544,369,o),
(571,369,c),
(617,369,o),
(634,346,o),
(634,221,c),
(634,163,o),
(634,125,o),
(630,85,c),
(627,47,o),
(619,39,o),
(580,39,c),
(570,39,l),
(552,39,o),
(549,-4,o),
(571,-3,c),
(576,-3,l),
(643,-2,o),
(726,0,o),
(794,-3,c),
(801,-3,o),
(810,6,o),
(810,17,c),
(811,25,o),
(809,37,o),
(803,40,c),
(797,44,o),
(786,44,o),
(781,43,c),
(725,43,o),
(722,49,o),
(722,75,c),
(722,126,o),
(726,177,o),
(726,229,c),
(726,308,o),
(724,337,o),
(711,367,c),
(694,406,o),
(658,429,o),
(614,429,c),
(554,429,o),
(506,393,o),
(459,360,c),
(454,356,o),
(450,357,o),
(448,361,c),
(433,403,o),
(396,429,o),
(351,429,c),
(293,429,o),
(236,392,o),
(193,362,c),
(191,361,o),
(189,368,o),
(189,370,c),
(189,416,l),
(189,431,o),
(184,443,o),
(167,439,c),
(121,427,o),
(65,409,o),
(37,397,c),
(32,394,o),
(20,362,o),
(38,360,c),
(61,357,l),
(89,353,o),
(94,349,o),
(97,344,c),
(98,342,o),
(99,327,o),
(99,274,c),
(99,134,l),
(99,50,o),
(91,42,o),
(53,41,c),
(44,41,o),
(30,41,o),
(26,31,c),
(22,20,o),
(22,-4,o),
(39,-3,c)
);
}
);
width = 825;
}
);
unicode = 109;
},
{
glyphname = n;
lastChange = "2023-05-15 06:39:53 +0000";
layers = (
{
layerId = m01;
shapes = (
{
closed = 1;
nodes = (
(245,-2,o),
(249,5,o),
(249,19,c),
(248,29,o),
(242,41,o),
(235,41,c),
(188,41,o),
(181,45,o),
(181,92,c),
(181,310,l),
(223,342,o),
(271,365,o),
(296,365,c),
(338,365,o),
(362,336,o),
(362,262,c),
(362,205,o),
(362,147,o),
(356,91,c),
(352,54,o),
(342,45,o),
(301,41,c),
(295,41,l),
(286,41,o),
(281,28,o),
(281,19,c),
(282,4,o),
(286,-3,o),
(303,-2,c),
(354,0,o),
(439,-3,o),
(488,-2,c),
(492,-2,o),
(497,-2,o),
(501,-1,c),
(512,4,o),
(510,28,o),
(505,36,c),
(500,43,o),
(491,44,o),
(484,41,c),
(445,41,o),
(442,46,o),
(442,71,c),
(442,130,o),
(450,189,o),
(450,247,c),
(450,317,o),
(440,428,o),
(336,428,c),
(285,428,o),
(229,390,o),
(189,362,c),
(187,360,o),
(181,372,o),
(181,376,c),
(181,419,l),
(181,434,o),
(171,445,o),
(152,441,c),
(142,439,o),
(132,435,o),
(122,431,c),
(96,421,o),
(63,408,o),
(36,399,c),
(26,395,o),
(22,365,o),
(36,362,c),
(56,358,l),
(87,352,o),
(89,349,o),
(90,346,c),
(92,341,o),
(94,326,o),
(94,269,c),
(94,135,l),
(94,47,o),
(83,39,o),
(43,39,c),
(38,39,l),
(25,39,o),
(21,18,o),
(25,6,c),
(27,0,o),
(34,-2,o),
(40,-2,c),
(43,-2,l),
(95,-4,o),
(180,-1,o),
(230,-3,c)
);
}
);
width = 523;
}
);
unicode = 110;
},
{
glyphname = ntilde;
lastChange = "2023-05-15 06:06:27 +0000";
layers = (
{
layerId = m01;
shapes = (
{
closed = 1;
nodes = (
(245,-2,o),
(250,5,o),
(250,19,c),
(249,29,o),
(242,41,o),
(236,41,c),
(189,41,o),
(182,45,o),
(182,93,c),
(182,312,l),
(225,345,o),
(271,367,o),
(296,367,c),
(339,367,o),
(361,339,o),
(361,264,c),
(361,206,o),
(361,148,o),
(355,91,c),
(352,54,o),
(343,45,o),
(302,41,c),
(295,41,l),
(287,41,o),
(282,29,o),
(282,19,c),
(283,4,o),
(287,-3,o),
(303,-2,c),
(354,0,o),
(440,-3,o),
(489,-2,c),
(493,-2,o),
(498,-2,o),
(502,-1,c),
(512,4,o),
(511,28,o),
(506,36,c),
(501,43,o),
(492,45,o),
(485,41,c),
(446,41,o),
(443,47,o),
(443,71,c),
(443,131,o),
(450,190,o),
(450,249,c),
(450,319,o),
(440,431,o),
(336,431,c),
(288,431,o),
(230,392,o),
(190,364,c),
(185,361,o),
(182,371,o),
(182,378,c),
(182,422,l),
(182,443,o),
(173,449,o),
(152,444,c),
(143,442,o),
(133,438,o),
(123,434,c),
(96,424,o),
(57,408,o),
(37,402,c),
(27,397,o),
(23,367,o),
(37,365,c),
(57,361,l),
(88,354,o),
(88,352,o),
(90,348,c),
(92,343,o),
(93,328,o),
(93,271,c),
(93,136,l),
(93,48,o),
(84,39,o),
(44,39,c),
(38,39,l),
(25,39,o),
(21,18,o),
(25,6,c),
(28,0,o),
(34,-2,o),
(40,-2,c),
(44,-2,l),
(95,-4,o),
(181,-1,o),
(231,-3,c)
);
},
{
closed = 1;
nodes = (
(385,492,o),
(426,547,o),
(426,619,c),
(426,622,o),
(426,626,o),
(424,633,c),
(424,641,o),
(413,644,o),
(407,643,c),
(399,643,o),
(390,638,o),
(389,632,c),
(382,579,o),
(371,572,o),
(356,572,c),
(346,572,o),
(331,577,o),
(301,598,c),
(257,628,o),
(233,638,o),
(202,638,c),
(138,638,o),
(105,586,o),
(101,500,c),
(104,482,o),
(132,487,o),
(138,499,c),
(139,505,o),
(141,511,o),
(141,517,c),
(149,552,o),
(157,559,o),
(172,559,c),
(183,559,o),
(190,556,o),
(226,531,c),
(264,505,o),
(296,492,o),
(324,492,c)
);
}
);
width = 523;
}
);
unicode = 241;
},
{
glyphname = o;
lastChange = "2023-05-15 06:39:53 +0000";
layers = (
{
layerId = m01;
shapes = (
{
closed = 1;
nodes = (
(387,-15,o),
(486,83,o),
(487,207,c),
(487,334,o),
(386,430,o),
(258,430,c),
(130,430,o),
(32,336,o),
(32,208,c),
(32,82,o),
(131,-15,o),
(261,-15,c)
);
},
{
closed = 1;
nodes = (
(196,32,o),
(129,119,o),
(129,237,c),
(129,323,o),
(180,384,o),
(244,384,c),
(320,384,o),
(386,304,o),
(386,192,c),
(386,102,o),
(337,32,o),
(272,32,c)
);
}
);
width = 518;
}
);
unicode = 111;
},
{
glyphname = oacute;
lastChange = "2023-05-15 06:06:27 +0000";
layers = (
{
layerId = m01;
shapes = (
{
closed = 1;
nodes = (
(386,-15,o),
(485,83,o),
(485,208,c),
(486,336,o),
(386,434,o),
(257,434,c),
(129,434,o),
(32,338,o),
(32,209,c),
(32,82,o),
(130,-15,o),
(260,-15,c)
);
},
{
closed = 1;
nodes = (
(195,32,o),
(128,121,o),
(128,240,c),
(128,327,o),
(179,387,o),
(243,387,c),
(319,387,o),
(387,297,o),
(387,184,c),
(387,93,o),
(336,32,o),
(272,32,c)
);
},
{
closed = 1;
nodes = (
(255,469,o),
(395,638,o),
(396,641,c),
(396,642,l),
(397,643,o),
(397,645,o),
(397,646,c),
(400,657,o),
(388,661,o),
(378,661,c),
(291,661,l),
(283,661,o),
(273,655,o),
(269,645,c),
(221,483,l),
(214,461,o),
(246,459,o),
(255,469,c)
);
}
);
width = 518;
}
);
unicode = 243;
},
{
glyphname = ocircumflex;
lastChange = "2023-05-15 06:06:27 +0000";
layers = (
{
layerId = m01;
shapes = (
{
closed = 1;
nodes = (
(386,-15,o),
(485,82,o),
(485,206,c),
(486,333,o),
(386,430,o),
(257,430,c),
(129,430,o),
(32,335,o),
(32,207,c),
(32,81,o),
(130,-15,o),
(260,-15,c)
);
},
{
closed = 1;
nodes = (
(195,32,o),
(128,120,o),
(128,238,c),
(128,324,o),
(179,384,o),
(243,384,c),
(319,384,o),
(387,295,o),
(387,183,c),
(387,93,o),
(336,32,o),
(272,32,c)
);
},
{
closed = 1;
nodes = (
(402,486,o),
(398,496,o),
(395,503,c),
(309,646,l),
(303,655,o),
(299,657,o),
(288,658,c),
(275,659,o),
(232,658,o),
(224,657,c),
(218,655,o),
(212,651,o),
(208,645,c),
(121,498,l),
(113,485,o),
(140,476,o),
(152,486,c),
(256,581,l),
(367,486,l),
(372,482,o),
(384,481,o),
(391,483,c)
);
}
);
width = 518;
}
);
unicode = 244;
},
{
glyphname = odieresis;
lastChange = "2023-05-15 06:06:27 +0000";
layers = (
{
layerId = m01;
shapes = (
{
closed = 1;
nodes = (
(386,-15,o),
(485,83,o),
(485,207,c),
(486,335,o),
(386,433,o),
(257,433,c),
(129,433,o),
(32,337,o),
(32,208,c),
(32,82,o),
(130,-15,o),
(260,-15,c)
);
},
{
closed = 1;
nodes = (
(195,32,o),
(128,121,o),
(128,240,c),
(128,326,o),
(179,387,o),
(243,387,c),
(319,387,o),
(387,297,o),
(387,184,c),
(387,93,o),
(336,32,o),
(272,32,c)
);
},
{
closed = 1;
nodes = (
(211,475,o),
(239,501,o),
(239,537,c),
(239,570,o),
(211,598,o),
(178,598,c),
(145,598,o),
(117,570,o),
(117,537,c),
(117,501,o),
(145,475,o),
(178,475,c)
);
},
{
closed = 1;
nodes = (
(377,475,o),
(404,503,o),
(404,537,c),
(404,570,o),
(377,598,o),
(342,598,c),
(309,598,o),
(281,570,o),
(281,537,c),
(281,502,o),
(309,475,o),
(342,475,c)
);
}
);
width = 518;
}
);
unicode = 246;
},
{
glyphname = ograve;
lastChange = "2023-05-15 06:06:27 +0000";
layers = (
{
layerId = m01;
shapes = (
{
closed = 1;
nodes = (
(386,-15,o),
(485,83,o),
(485,208,c),
(486,336,o),
(386,434,o),
(257,434,c),
(129,434,o),
(32,338,o),
(32,209,c),
(32,82,o),
(130,-15,o),
(260,-15,c)
);
},
{
closed = 1;
nodes = (
(195,32,o),
(128,121,o),
(128,240,c),
(128,327,o),
(179,387,o),
(243,387,c),
(319,387,o),
(387,297,o),
(387,184,c),
(387,93,o),
(336,32,o),
(272,32,c)
);
},
{
closed = 1;
nodes = (
(313,467,o),
(341,462,o),
(339,485,c),
(330,528,o),
(308,602,o),
(291,647,c),
(284,658,o),
(276,658,o),
(268,658,c),
(193,657,l),
(180,657,o),
(163,641,o),
(174,629,c),
(217,583,o),
(274,515,o),
(306,474,c)
);
}
);
width = 518;
}
);
unicode = 242;
},
{
glyphname = oslash;
lastChange = "2023-05-15 06:06:27 +0000";
layers = (
{
layerId = m01;
shapes = (
{
closed = 1;
nodes = (
(70,-54,o),
(80,-54,o),
(87,-47,c),
(140,18,l),
(143,22,o),
(144,22,o),
(147,20,c),
(187,-5,o),
(232,-18,o),
(278,-18,c),
(405,-18,o),
(505,80,o),
(505,207,c),
(505,270,o),
(484,320,o),
(441,364,c),
(439,366,o),
(442,368,o),
(443,369,c),
(455,383,o),
(467,398,o),
(480,413,c),
(494,428,o),
(488,438,o),
(488,437,c),
(487,439,o),
(478,449,o),
(477,450,c),
(471,455,o),
(464,456,o),
(457,449,c),
(413,397,l),
(412,395,o),
(409,392,o),
(408,392,c),
(366,419,o),
(324,432,o),
(275,432,c),
(144,432,o),
(45,335,o),
(45,205,c),
(45,143,o),
(67,93,o),
(110,50,c),
(113,48,o),
(110,46,o),
(107,43,c),
(74,5,o),
(38,-27,o),
(53,-39,c),
(63,-48,l)
);
},
{
closed = 1;
nodes = (
(255,30,o),
(223,46,o),
(196,78,c),
(195,79,o),
(198,86,o),
(200,88,c),
(375,290,l),
(378,294,o),
(381,293,o),
(383,288,c),
(399,253,o),
(407,218,o),
(407,182,c),
(407,91,o),
(354,30,o),
(289,30,c)
);
},
{
closed = 1;
nodes = (
(151,160,o),
(145,196,o),
(145,237,c),
(145,326,o),
(195,386,o),
(261,386,c),
(296,386,o),
(328,370,o),
(355,338,c),
(357,335,o),
(354,328,o),
(351,325,c),
(178,127,l),
(177,124,o),
(169,124,o),
(168,125,c)
);
}
);
width = 545;
}
);
unicode = 248;
},
{
glyphname = otilde;
lastChange = "2023-05-15 06:06:27 +0000";
layers = (
{
layerId = m01;
shapes = (
{
closed = 1;
nodes = (
(386,-15,o),
(485,82,o),
(485,206,c),
(486,333,o),
(386,430,o),
(257,430,c),
(129,430,o),
(32,335,o),
(32,207,c),
(32,81,o),
(130,-15,o),
(260,-15,c)
);
},
{
closed = 1;
nodes = (
(195,32,o),
(128,120,o),
(128,238,c),
(128,324,o),
(179,384,o),
(243,384,c),
(319,384,o),
(387,295,o),
(387,183,c),
(387,93,o),
(336,32,o),
(272,32,c)
);
},
{
closed = 1;
nodes = (
(385,478,o),
(426,532,o),
(426,600,c),
(426,603,o),
(426,607,o),
(424,613,c),
(423,621,o),
(413,624,o),
(407,623,c),
(398,623,o),
(390,618,o),
(389,613,c),
(382,562,o),
(371,556,o),
(356,556,c),
(346,556,o),
(332,561,o),
(302,580,c),
(258,609,o),
(235,618,o),
(204,618,c),
(141,618,o),
(108,569,o),
(104,487,c),
(107,470,o),
(135,475,o),
(141,486,c),
(141,492,o),
(143,498,o),
(144,504,c),
(151,536,o),
(160,543,o),
(174,543,c),
(185,543,o),
(192,539,o),
(228,515,c),
(265,490,o),
(297,478,o),
(325,478,c)
);
}
);
width = 518;
}
);
unicode = 245;
},
{
glyphname = oe;
lastChange = "2023-05-15 06:06:27 +0000";
layers = (
{
layerId = m01;
shapes = (
{
closed = 1;
nodes = (
(341,-17,o),
(392,4,o),
(432,48,c),
(432,49,o),
(433,49,o),
(434,48,c),
(465,5,o),
(505,-17,o),
(552,-17,c),
(585,-17,o),
(618,-6,o),
(649,14,c),
(678,33,o),
(709,60,o),
(734,87,c),
(745,99,o),
(740,106,o),
(731,116,c),
(724,124,o),
(716,127,o),
(707,118,c),
(658,69,o),
(624,50,o),
(597,50,c),
(530,50,o),
(471,134,o),
(471,249,c),
(471,260,o),
(481,258,o),
(494,258,c),
(729,258,l),
(735,258,o),
(747,260,o),
(747,273,c),
(747,290,l),
(732,304,o),
(727,312,o),
(719,333,c),
(693,399,o),
(645,431,o),
(571,431,c),
(515,431,o),
(471,413,o),
(430,371,c),
(424,365,o),
(421,366,o),
(419,369,c),
(384,410,o),
(333,431,o),
(276,431,c),
(149,431,o),
(47,329,o),
(47,205,c),
(47,77,o),
(148,-17,o),
(278,-17,c)
);
},
{
closed = 1;
nodes = (
(216,31,o),
(145,122,o),
(145,233,c),
(145,324,o),
(198,386,o),
(258,386,c),
(328,386,o),
(385,307,o),
(385,182,c),
(385,81,o),
(345,31,o),
(287,31,c)
);
},
{
closed = 1;
nodes = (
(485,300,o),
(476,299,o),
(477,304,c),
(488,364,o),
(516,392,o),
(556,392,c),
(593,392,o),
(625,359,o),
(630,308,c),
(630,303,o),
(628,300,o),
(622,300,c),
(493,300,l)
);
}
);
width = 775;
}
);
unicode = 339;
},
{
glyphname = p;
lastChange = "2023-05-15 06:39:53 +0000";
layers = (
{
layerId = m01;
shapes = (
{
closed = 1;
nodes = (
(254,-279,o),
(264,-278,o),
(267,-271,c),
(271,-265,o),
(271,-250,o),
(269,-242,c),
(265,-234,o),
(254,-231,o),
(246,-231,c),
(232,-231,l),
(183,-231,o),
(176,-224,o),
(176,-129,c),
(176,-21,l),
(176,-9,o),
(177,-2,o),
(181,-3,c),
(209,-12,o),
(229,-17,o),
(254,-17,c),
(373,-17,o),
(477,96,o),
(477,223,c),
(477,328,o),
(404,424,o),
(317,424,c),
(278,424,o),
(243,407,o),
(182,364,c),
(178,361,o),
(176,372,o),
(176,382,c),
(176,435,l),
(176,458,o),
(155,457,o),
(139,447,c),
(32,379,l),
(28,376,o),
(26,374,o),
(24,370,c),
(21,365,o),
(17,345,o),
(32,342,c),
(43,339,o),
(54,334,o),
(66,331,c),
(86,326,o),
(87,325,o),
(87,303,c),
(87,279,l),
(87,-129,l),
(87,-224,o),
(79,-234,o),
(30,-234,c),
(21,-234,l),
(7,-234,o),
(3,-261,o),
(10,-272,c),
(13,-279,o),
(19,-278,o),
(25,-278,c),
(95,-279,o),
(181,-276,o),
(250,-279,c)
);
},
{
closed = 1;
nodes = (
(247,37,o),
(210,55,o),
(176,87,c),
(176,300,l),
(176,307,o),
(179,312,o),
(180,314,c),
(213,340,o),
(242,354,o),
(268,354,c),
(334,354,o),
(386,289,o),
(386,190,c),
(386,102,o),
(341,37,o),
(281,37,c)
);
}
);
width = 503;
}
);
unicode = 112;
},
{
glyphname = thorn;
lastChange = "2023-05-15 06:06:27 +0000";
layers = (
{
layerId = m01;
shapes = (
{
closed = 1;
nodes = (
(69,-250,o),
(192,-251,o),
(246,-252,c),
(271,-253,o),
(268,-241,o),
(266,-224,c),
(264,-211,o),
(260,-205,o),
(245,-207,c),
(230,-208,l),
(181,-211,o),
(172,-195,o),
(172,-107,c),
(172,-6,l),
(172,2,o),
(169,12,o),
(175,10,c),
(205,0,o),
(229,-4,o),
(253,-4,c),
(375,-4,o),
(480,109,o),
(480,238,c),
(480,344,o),
(406,443,o),
(318,443,c),
(277,443,o),
(240,426,o),
(176,382,c),
(174,380,o),
(175,383,o),
(175,385,c),
(173,391,o),
(172,399,o),
(172,407,c),
(172,688,l),
(172,715,o),
(158,716,o),
(137,709,c),
(30,642,l),
(28,641,o),
(26,640,o),
(25,639,c),
(20,636,o),
(18,633,o),
(19,628,c),
(19,625,l),
(19,596,o),
(38,597,o),
(61,591,c),
(80,585,o),
(82,584,o),
(82,563,c),
(82,537,l),
(82,-107,l),
(82,-205,o),
(74,-207,o),
(32,-208,c),
(23,-208,o),
(5,-201,o),
(4,-220,c),
(3,-235,o),
(-1,-253,o),
(22,-252,c)
);
},
{
closed = 1;
nodes = (
(248,51,o),
(206,69,o),
(172,101,c),
(172,325,l),
(206,355,o),
(240,370,o),
(268,370,c),
(334,370,o),
(390,299,o),
(390,199,c),
(390,111,o),
(341,51,o),
(281,51,c)
);
}
);
width = 523;
}
);
unicode = 254;
},
{
glyphname = q;
lastChange = "2023-05-15 06:06:27 +0000";
layers = (
{
layerId = m01;
shapes = (
{
closed = 1;
nodes = (
(316,-275,o),
(412,-275,o),
(474,-277,c),
(477,-277,o),
(480,-277,o),
(484,-277,c),
(501,-268,o),
(497,-232,o),
(482,-232,c),
(472,-232,l),
(435,-232,o),
(426,-220,o),
(426,-127,c),
(426,301,l),
(426,345,l),
(426,372,o),
(428,399,o),
(433,419,c),
(427,430,o),
(405,428,o),
(399,424,c),
(389,417,o),
(379,407,o),
(371,397,c),
(370,395,o),
(367,395,o),
(363,397,c),
(324,417,o),
(286,426,o),
(249,426,c),
(126,426,o),
(31,323,o),
(31,193,c),
(31,74,o),
(102,-17,o),
(200,-17,c),
(245,-17,o),
(286,0,o),
(332,38,c),
(338,43,o),
(335,31,o),
(338,17,c),
(338,-127,l),
(338,-223,o),
(331,-230,o),
(283,-230,c),
(270,-230,o),
(257,-229,o),
(244,-231,c),
(231,-237,o),
(232,-246,o),
(232,-257,c),
(232,-275,o),
(246,-277,o),
(256,-277,c)
);
},
{
closed = 1;
nodes = (
(174,46,o),
(117,119,o),
(117,220,c),
(117,323,o),
(166,383,o),
(239,383,c),
(280,383,o),
(317,356,o),
(329,318,c),
(333,307,o),
(335,299,o),
(336,285,c),
(340,230,o),
(338,198,o),
(339,117,c),
(339,106,o),
(335,90,o),
(334,89,c),
(301,61,o),
(269,46,o),
(243,46,c)
);
}
);
width = 504;
}
);
unicode = 113;
},
{
glyphname = r;
lastChange = "2023-05-15 06:06:27 +0000";
layers = (
{
layerId = m01;
shapes = (
{
closed = 1;
nodes = (
(108,1,o),
(179,-3,o),
(250,-3,c),
(253,-3,o),
(257,-3,o),
(260,-1,c),
(270,8,o),
(267,41,o),
(251,41,c),
(229,41,l),
(184,41,o),
(180,46,o),
(179,92,c),
(178,118,o),
(178,121,o),
(178,141,c),
(178,161,o),
(178,197,o),
(178,286,c),
(202,332,o),
(220,343,o),
(235,343,c),
(246,343,o),
(256,339,o),
(268,333,c),
(283,325,o),
(291,321,o),
(309,320,c),
(321,342,o),
(332,364,o),
(339,386,c),
(342,396,o),
(332,403,o),
(327,405,c),
(324,406,o),
(321,406,o),
(318,407,c),
(285,415,o),
(253,438,o),
(217,419,c),
(199,409,o),
(184,368,o),
(176,350,c),
(175,371,o),
(175,396,o),
(175,418,c),
(174,431,o),
(165,443,o),
(150,434,c),
(132,425,o),
(111,418,o),
(91,411,c),
(72,405,o),
(52,399,o),
(34,390,c),
(27,388,o),
(23,384,o),
(23,374,c),
(23,366,l),
(24,357,o),
(28,353,o),
(35,350,c),
(50,343,o),
(70,336,o),
(82,331,c),
(88,329,o),
(87,317,o),
(89,311,c),
(89,134,l),
(89,48,o),
(78,40,o),
(38,40,c),
(19,40,o),
(20,33,o),
(20,19,c),
(20,7,o),
(22,-4,o),
(37,-3,c)
);
}
);
width = 350;
}
);
unicode = 114;
},
{
glyphname = s;
lastChange = "2023-05-15 06:06:27 +0000";
layers = (
{
layerId = m01;
shapes = (
{
closed = 1;
nodes = (
(66,-14,o),
(72,-10,o),
(79,-8,c),
(83,2,o),
(86,3,o),
(87,4,c),
(89,3,o),
(92,2,o),
(95,1,c),
(114,-7,o),
(134,-10,o),
(154,-10,c),
(226,-10,o),
(288,48,o),
(288,119,c),
(288,174,o),
(250,212,o),
(208,241,c),
(177,263,o),
(106,299,o),
(106,342,c),
(106,368,o),
(125,388,o),
(153,388,c),
(184,388,o),
(211,363,o),
(220,311,c),
(222,303,o),
(231,301,o),
(238,301,c),
(247,301,o),
(256,308,o),
(256,311,c),
(258,337,o),
(257,386,o),
(255,415,c),
(224,428,o),
(195,435,o),
(169,435,c),
(92,435,o),
(31,385,o),
(31,312,c),
(31,194,o),
(206,175,o),
(206,88,c),
(206,57,o),
(183,31,o),
(151,31,c),
(114,31,o),
(85,56,o),
(72,114,c),
(71,118,o),
(70,124,o),
(62,127,c),
(49,129,o),
(34,126,o),
(35,114,c),
(37,80,o),
(40,42,o),
(44,2,c),
(44,-7,o),
(51,-11,o),
(58,-12,c)
);
}
);
width = 314;
}
);
unicode = 115;
},
{
glyphname = scaron;
lastChange = "2023-05-15 06:06:27 +0000";
layers = (
{
layerId = m01;
shapes = (
{
closed = 1;
nodes = (
(66,-14,o),
(72,-10,o),
(79,-8,c),
(83,2,o),
(86,3,o),
(87,4,c),
(89,3,o),
(92,2,o),
(95,1,c),
(114,-7,o),
(134,-10,o),
(154,-10,c),
(226,-10,o),
(288,48,o),
(288,119,c),
(288,174,o),
(250,212,o),
(208,241,c),
(177,263,o),
(106,299,o),
(106,342,c),
(106,368,o),
(125,388,o),
(153,388,c),
(184,388,o),
(211,363,o),
(220,311,c),
(222,303,o),
(231,301,o),
(238,301,c),
(247,301,o),
(256,308,o),
(256,311,c),
(258,337,o),
(257,386,o),
(255,415,c),
(224,428,o),
(195,435,o),
(169,435,c),
(92,435,o),
(31,385,o),
(31,312,c),
(31,194,o),
(206,175,o),
(206,88,c),
(206,57,o),
(183,31,o),
(151,31,c),
(114,31,o),
(85,56,o),
(72,114,c),
(71,118,o),
(70,124,o),
(62,127,c),
(49,129,o),
(34,126,o),
(35,114,c),
(37,80,o),
(40,42,o),
(44,2,c),
(44,-7,o),
(51,-11,o),
(58,-12,c)
);
},
{
closed = 1;
nodes = (
(188,479,l),
(196,479,o),
(211,480,o),
(216,486,c),
(310,655,l),
(311,661,o),
(304,668,o),
(293,668,c),
(287,668,o),
(280,666,o),
(275,663,c),
(169,562,l),
(44,663,l),
(40,667,o),
(31,669,o),
(24,669,c),
(15,669,o),
(6,666,o),
(9,654,c),
(103,490,l),
(105,482,o),
(122,479,o),
(132,479,c)
);
}
);
width = 314;
}
);
unicode = 353;
},
{
glyphname = germandbls;
lastChange = "2023-05-15 06:06:27 +0000";
layers = (
{
layerId = m01;
shapes = (
{
closed = 1;
nodes = (
(420,-17,o),
(504,59,o),
(504,187,c),
(504,281,o),
(445,350,o),
(360,381,c),
(351,384,o),
(349,388,o),
(355,391,c),
(425,426,o),
(471,482,o),
(471,548,c),
(471,641,o),
(389,711,o),
(287,711,c),
(224,711,o),
(172,687,o),
(134,638,c),
(91,582,o),
(83,539,o),
(83,385,c),
(83,135,l),
(83,97,l),
(83,44,o),
(84,42,o),
(36,39,c),
(19,38,o),
(19,29,o),
(19,16,c),
(19,4,o),
(22,-5,o),
(36,-4,c),
(84,-2,o),
(168,-2,o),
(225,-4,c),
(233,-6,o),
(237,-2,o),
(239,3,c),
(241,7,o),
(241,13,o),
(241,16,c),
(241,34,o),
(236,39,o),
(220,41,c),
(177,41,o),
(176,44,o),
(176,91,c),
(176,135,l),
(176,432,l),
(176,496,l),
(176,564,o),
(183,594,o),
(203,625,c),
(220,651,o),
(244,666,o),
(276,666,c),
(337,666,o),
(379,618,o),
(379,539,c),
(379,461,o),
(333,411,o),
(249,399,c),
(236,397,o),
(234,393,o),
(234,381,c),
(234,377,o),
(234,370,o),
(237,366,c),
(241,362,o),
(246,360,o),
(255,360,c),
(272,360,o),
(290,359,o),
(305,355,c),
(365,343,o),
(402,281,o),
(402,175,c),
(402,89,o),
(378,43,o),
(359,43,c),
(355,43,o),
(350,45,o),
(334,52,c),
(323,59,o),
(312,67,o),
(298,67,c),
(278,67,o),
(263,48,o),
(263,27,c),
(263,-2,o),
(291,-17,o),
(321,-17,c)
);
}
);
width = 545;
}
);
unicode = 223;
},
{
glyphname = t;
lastChange = "2023-05-15 06:06:27 +0000";
layers = (
{
layerId = m01;
shapes = (
{
closed = 1;
nodes = (
(227,-11,o),
(268,24,o),
(294,82,c),
(295,85,o),
(296,101,o),
(292,106,c),
(285,113,o),
(265,118,o),
(261,105,c),
(242,69,o),
(224,57,o),
(208,57,c),
(168,57,o),
(154,78,o),
(154,181,c),
(154,353,l),
(155,356,o),
(160,361,o),
(163,360,c),
(252,359,l),
(264,358,o),
(267,360,o),
(272,369,c),
(276,379,o),
(280,393,o),
(281,403,c),
(286,420,o),
(274,425,o),
(265,425,c),
(166,425,l),
(159,427,o),
(154,426,o),
(154,433,c),
(151,455,o),
(153,496,o),
(154,518,c),
(155,538,o),
(120,534,o),
(117,520,c),
(95,457,o),
(67,418,o),
(32,399,c),
(30,398,o),
(23,393,o),
(21,390,c),
(18,382,o),
(21,370,o),
(26,362,c),
(39,361,o),
(44,360,o),
(58,359,c),
(63,358,o),
(68,357,o),
(68,353,c),
(68,157,l),
(68,117,l),
(68,43,o),
(112,-11,o),
(176,-11,c)
);
}
);
width = 319;
}
);
unicode = 116;
},
{
glyphname = u;
lastChange = "2023-05-15 06:39:53 +0000";
layers = (
{
layerId = m01;
shapes = (
{
closed = 1;
nodes = (
(260,-10,o),
(306,22,o),
(350,54,c),
(355,58,o),
(359,59,o),
(360,46,c),
(362,33,o),
(362,15,o),
(363,13,c),
(364,-11,o),
(380,-10,o),
(398,-6,c),
(432,1,o),
(480,17,o),
(509,30,c),
(527,34,o),
(525,75,o),
(506,72,c),
(499,70,o),
(492,68,o),
(485,66,c),
(469,62,o),
(450,57,o),
(450,82,c),
(450,113,l),
(450,425,l),
(450,442,o),
(437,447,o),
(424,446,c),
(389,442,o),
(322,427,o),
(282,418,c),
(268,414,o),
(267,389,o),
(279,382,c),
(299,379,o),
(307,378,o),
(312,377,c),
(319,375,o),
(326,374,o),
(334,373,c),
(367,366,o),
(362,314,o),
(362,289,c),
(362,122,l),
(362,117,o),
(360,112,o),
(358,107,c),
(321,78,o),
(284,58,o),
(255,58,c),
(195,58,o),
(177,80,o),
(177,185,c),
(177,421,l),
(177,432,o),
(170,448,o),
(155,445,c),
(120,438,o),
(60,421,o),
(30,414,c),
(8,409,o),
(24,380,o),
(30,379,c),
(43,375,o),
(56,372,o),
(69,368,c),
(85,363,o),
(87,356,o),
(87,337,c),
(87,130,l),
(87,46,o),
(122,-10,o),
(203,-10,c)
);
}
);
width = 534;
}
);
unicode = 117;
},
{
glyphname = uacute;
lastChange = "2023-05-15 06:06:27 +0000";
layers = (
{
layerId = m01;
shapes = (
{
closed = 1;
nodes = (
(260,-10,o),
(306,22,o),
(350,54,c),
(355,58,o),
(359,59,o),
(360,46,c),
(362,33,o),
(362,15,o),
(363,13,c),
(364,-11,o),
(380,-10,o),
(398,-6,c),
(432,1,o),
(480,17,o),
(509,30,c),
(527,34,o),
(525,75,o),
(506,72,c),
(499,70,o),
(492,68,o),
(485,66,c),
(469,62,o),
(450,57,o),
(450,82,c),
(450,113,l),
(450,425,l),
(450,442,o),
(437,447,o),
(424,446,c),
(389,442,o),
(322,427,o),
(282,418,c),
(268,414,o),
(267,389,o),
(279,382,c),
(299,379,o),
(307,378,o),
(312,377,c),
(319,375,o),
(326,374,o),
(334,373,c),
(367,366,o),
(362,314,o),
(362,289,c),
(362,122,l),
(362,117,o),
(360,112,o),
(358,107,c),
(321,78,o),
(284,58,o),
(255,58,c),
(195,58,o),
(177,80,o),
(177,185,c),
(177,421,l),
(177,432,o),
(170,448,o),
(155,445,c),
(120,438,o),
(60,421,o),
(30,414,c),
(8,409,o),
(24,380,o),
(30,379,c),
(43,375,o),
(56,372,o),
(69,368,c),
(85,363,o),
(87,356,o),
(87,337,c),
(87,130,l),
(87,46,o),
(122,-10,o),
(203,-10,c)
);
},
{
closed = 1;
nodes = (
(247,469,o),
(387,638,o),
(388,641,c),
(388,642,l),
(388,643,o),
(389,645,o),
(389,646,c),
(391,657,o),
(380,661,o),
(370,661,c),
(283,661,l),
(274,661,o),
(265,655,o),
(260,645,c),
(212,483,l),
(206,461,o),
(237,459,o),
(247,469,c)
);
}
);
width = 534;
}
);
unicode = 250;
},
{
glyphname = ucircumflex;
lastChange = "2023-05-15 06:06:27 +0000";
layers = (
{
layerId = m01;
shapes = (
{
closed = 1;
nodes = (
(260,-10,o),
(306,22,o),
(350,54,c),
(355,58,o),
(359,59,o),
(360,46,c),
(362,33,o),
(362,15,o),
(363,13,c),
(364,-11,o),
(380,-10,o),
(398,-6,c),
(432,1,o),
(480,17,o),
(509,30,c),
(527,34,o),
(525,75,o),
(506,72,c),
(499,70,o),
(492,68,o),
(485,66,c),
(469,62,o),
(450,57,o),
(450,82,c),
(450,113,l),
(450,425,l),
(450,442,o),
(437,447,o),
(424,446,c),
(389,442,o),
(322,427,o),
(282,418,c),
(268,414,o),
(267,389,o),
(279,382,c),
(299,379,o),
(307,378,o),
(312,377,c),
(319,375,o),
(326,374,o),
(334,373,c),
(367,366,o),
(362,314,o),
(362,289,c),
(362,122,l),
(362,117,o),
(360,112,o),
(358,107,c),
(321,78,o),
(284,58,o),
(255,58,c),
(195,58,o),
(177,80,o),
(177,185,c),
(177,421,l),
(177,432,o),
(170,448,o),
(155,445,c),
(120,438,o),
(60,421,o),
(30,414,c),
(8,409,o),
(24,380,o),
(30,379,c),
(43,375,o),
(56,372,o),
(69,368,c),
(85,363,o),
(87,356,o),
(87,337,c),
(87,130,l),
(87,46,o),
(122,-10,o),
(203,-10,c)
);
},
{
closed = 1;
nodes = (
(401,486,o),
(397,496,o),
(394,503,c),
(308,646,l),
(302,655,o),
(298,657,o),
(287,658,c),
(274,659,o),
(231,658,o),
(223,657,c),
(217,655,o),
(211,651,o),
(207,645,c),
(120,498,l),
(112,485,o),
(139,476,o),
(151,486,c),
(255,581,l),
(366,486,l),
(371,482,o),
(383,481,o),
(390,483,c)
);
}
);
width = 534;
}
);
unicode = 251;
},
{
glyphname = udieresis;
lastChange = "2023-05-15 06:06:27 +0000";
layers = (
{
layerId = m01;
shapes = (
{
closed = 1;
nodes = (
(260,-10,o),
(306,22,o),
(350,54,c),
(355,58,o),
(359,59,o),
(360,46,c),
(362,33,o),
(362,15,o),
(363,13,c),
(364,-11,o),
(380,-10,o),
(398,-6,c),
(432,1,o),
(480,17,o),
(509,30,c),
(527,34,o),
(525,75,o),
(506,72,c),
(499,70,o),
(492,68,o),
(485,66,c),
(469,62,o),
(450,57,o),
(450,82,c),
(450,113,l),
(450,425,l),
(450,442,o),
(437,447,o),
(424,446,c),
(389,442,o),
(322,427,o),
(282,418,c),
(268,414,o),
(267,389,o),
(279,382,c),
(299,379,o),
(307,378,o),
(312,377,c),
(319,375,o),
(326,374,o),
(334,373,c),
(367,366,o),
(362,314,o),
(362,289,c),
(362,122,l),
(362,117,o),
(360,112,o),
(358,107,c),
(321,78,o),
(284,58,o),
(255,58,c),
(195,58,o),
(177,80,o),
(177,185,c),
(177,421,l),
(177,432,o),
(170,448,o),
(155,445,c),
(120,438,o),
(60,421,o),
(30,414,c),
(8,409,o),
(24,380,o),
(30,379,c),
(43,375,o),
(56,372,o),
(69,368,c),
(85,363,o),
(87,356,o),
(87,337,c),
(87,130,l),
(87,46,o),
(122,-10,o),
(203,-10,c)
);
},
{
closed = 1;
nodes = (
(225,475,o),
(253,501,o),
(253,537,c),
(253,570,o),
(225,598,o),
(191,598,c),
(158,598,o),
(130,570,o),
(130,537,c),
(130,501,o),
(158,475,o),
(191,475,c)
);
},
{
closed = 1;
nodes = (
(391,475,o),
(417,503,o),
(417,537,c),
(417,570,o),
(391,598,o),
(356,598,c),
(322,598,o),
(294,570,o),
(294,537,c),
(294,502,o),
(322,475,o),
(356,475,c)
);
}
);
width = 534;
}
);
unicode = 252;
},
{
glyphname = ugrave;
lastChange = "2023-05-15 06:06:27 +0000";
layers = (
{
layerId = m01;
shapes = (
{
closed = 1;
nodes = (
(260,-10,o),
(306,22,o),
(350,54,c),
(355,58,o),
(359,59,o),
(360,46,c),
(362,33,o),
(362,15,o),
(363,13,c),
(364,-11,o),
(380,-10,o),
(398,-6,c),
(432,1,o),
(480,17,o),
(509,30,c),
(527,34,o),
(525,75,o),
(506,72,c),
(499,70,o),
(492,68,o),
(485,66,c),
(469,62,o),
(450,57,o),
(450,82,c),
(450,113,l),
(450,425,l),
(450,442,o),
(437,447,o),
(424,446,c),
(389,442,o),
(322,427,o),
(282,418,c),
(268,414,o),
(267,389,o),
(279,382,c),
(299,379,o),
(307,378,o),
(312,377,c),
(319,375,o),
(326,374,o),
(334,373,c),
(367,366,o),
(362,314,o),
(362,289,c),
(362,122,l),
(362,117,o),
(360,112,o),
(358,107,c),
(321,78,o),
(284,58,o),
(255,58,c),
(195,58,o),
(177,80,o),
(177,185,c),
(177,421,l),
(177,432,o),
(170,448,o),
(155,445,c),
(120,438,o),
(60,421,o),
(30,414,c),
(8,409,o),
(24,380,o),
(30,379,c),
(43,375,o),
(56,372,o),
(69,368,c),
(85,363,o),
(87,356,o),
(87,337,c),
(87,130,l),
(87,46,o),
(122,-10,o),
(203,-10,c)
);
},
{
closed = 1;
nodes = (
(304,467,o),
(333,462,o),
(331,485,c),
(321,528,o),
(300,602,o),
(283,647,c),
(276,658,o),
(267,658,o),
(259,658,c),
(184,657,l),
(172,657,o),
(155,641,o),
(165,629,c),
(208,583,o),
(266,515,o),
(297,474,c)
);
}
);
width = 534;
}
);
unicode = 249;
},
{
glyphname = v;
lastChange = "2023-05-15 06:39:53 +0000";
layers = (
{
layerId = m01;
shapes = (
{
closed = 1;
nodes = (
(282,-8,o),
(286,-3,o),
(290,5,c),
(410,280,l),
(446,362,o),
(455,375,o),
(493,379,c),
(497,380,o),
(503,389,o),
(504,399,c),
(504,410,o),
(499,419,o),
(491,419,c),
(437,418,o),
(362,418,o),
(317,419,c),
(305,419,o),
(303,395,o),
(308,384,c),
(311,375,o),
(316,378,o),
(324,377,c),
(352,375,o),
(392,367,o),
(377,334,c),
(352,282,o),
(314,190,o),
(292,135,c),
(291,132,o),
(283,113,o),
(278,120,c),
(264,152,o),
(179,348,o),
(179,363,c),
(179,371,o),
(179,378,o),
(222,378,c),
(231,378,l),
(238,378,o),
(244,388,o),
(244,398,c),
(244,409,o),
(238,419,o),
(233,419,c),
(170,416,o),
(48,421,o),
(27,419,c),
(12,418,o),
(5,381,o),
(23,378,c),
(52,373,o),
(71,374,o),
(85,344,c),
(89,336,o),
(94,323,o),
(104,300,c),
(231,9,l),
(234,1,o),
(235,-5,o),
(244,-9,c),
(248,-11,o),
(266,-11,o),
(273,-10,c)
);
}
);
width = 516;
}
);
unicode = 118;
},
{
glyphname = w;
lastChange = "2023-05-15 06:06:27 +0000";
layers = (
{
layerId = m01;
shapes = (
{
closed = 1;
nodes = (
(239,-12,o),
(260,-13,o),
(264,-11,c),
(273,-9,o),
(278,-2,o),
(281,5,c),
(315,85,o),
(344,166,o),
(382,245,c),
(385,251,o),
(389,247,o),
(391,242,c),
(491,3,l),
(495,-5,o),
(499,-7,o),
(509,-8,c),
(518,-9,o),
(528,-10,o),
(532,-9,c),
(547,-7,o),
(545,-7,o),
(550,5,c),
(592,109,o),
(633,212,o),
(676,315,c),
(683,334,o),
(691,352,o),
(696,359,c),
(706,374,o),
(726,374,o),
(742,376,c),
(755,378,o),
(759,421,o),
(736,417,c),
(678,416,o),
(608,416,o),
(565,417,c),
(548,417,o),
(554,379,o),
(562,376,c),
(591,373,o),
(638,383,o),
(629,336,c),
(626,323,o),
(606,271,o),
(585,221,c),
(565,171,o),
(548,130,o),
(546,127,c),
(542,117,o),
(538,113,o),
(535,122,c),
(456,310,l),
(444,339,o),
(442,349,o),
(442,356,c),
(442,366,o),
(446,375,o),
(490,376,c),
(499,382,o),
(503,419,o),
(477,417,c),
(471,416,l),
(417,414,o),
(316,416,o),
(272,417,c),
(266,417,o),
(260,407,o),
(261,396,c),
(261,386,o),
(268,376,o),
(274,376,c),
(280,376,o),
(285,375,o),
(291,375,c),
(308,374,o),
(317,372,o),
(330,359,c),
(342,347,o),
(351,326,o),
(359,311,c),
(276,116,l),
(272,110,o),
(269,120,o),
(268,122,c),
(254,156,o),
(175,341,o),
(175,360,c),
(175,365,o),
(176,375,o),
(219,377,c),
(229,377,o),
(233,394,o),
(229,404,c),
(227,414,o),
(222,417,o),
(213,417,c),
(150,414,o),
(91,416,o),
(30,416,c),
(23,417,o),
(16,418,o),
(12,412,c),
(5,401,o),
(12,377,o),
(20,376,c),
(66,373,o),
(71,370,o),
(101,297,c),
(221,4,l),
(224,-4,o),
(226,-9,o),
(235,-11,c)
);
}
);
width = 767;
}
);
unicode = 119;
},
{
glyphname = x;
lastChange = "2023-05-15 06:06:27 +0000";
layers = (
{
layerId = m01;
shapes = (
{
closed = 1;
nodes = (
(214,-4,o),
(220,5,o),
(220,15,c),
(220,26,o),
(214,35,o),
(207,36,c),
(200,36,l),
(157,40,o),
(154,48,o),
(154,59,c),
(154,74,o),
(222,146,o),
(236,162,c),
(240,167,o),
(248,162,o),
(253,156,c),
(307,82,l),
(312,74,o),
(331,55,o),
(331,46,c),
(331,39,o),
(326,36,o),
(302,36,c),
(293,36,l),
(282,36,o),
(281,23,o),
(281,16,c),
(281,10,o),
(284,-3,o),
(295,-3,c),
(353,-1,o),
(446,-1,o),
(496,-2,c),
(507,-4,o),
(511,8,o),
(511,15,c),
(511,23,o),
(508,33,o),
(499,38,c),
(458,41,o),
(440,50,o),
(414,84,c),
(378,129,l),
(367,144,o),
(350,167,o),
(305,225,c),
(303,228,o),
(302,233,o),
(306,238,c),
(343,280,l),
(380,321,l),
(417,362,o),
(435,380,o),
(493,378,c),
(510,378,o),
(512,396,o),
(507,409,c),
(502,417,o),
(497,418,o),
(489,417,c),
(449,415,o),
(378,416,o),
(305,417,c),
(300,418,o),
(289,418,o),
(287,407,c),
(286,402,o),
(286,392,o),
(288,386,c),
(293,376,o),
(297,379,o),
(304,378,c),
(341,377,o),
(343,370,o),
(343,361,c),
(343,339,o),
(300,293,o),
(284,277,c),
(278,269,o),
(272,266,o),
(267,273,c),
(257,283,o),
(215,336,o),
(200,362,c),
(191,378,o),
(205,379,o),
(222,379,c),
(231,379,l),
(237,379,o),
(244,402,o),
(236,413,c),
(232,418,o),
(226,417,o),
(221,417,c),
(175,416,o),
(83,414,o),
(31,417,c),
(11,418,o),
(15,381,o),
(25,378,c),
(79,375,o),
(88,368,o),
(134,306,c),
(205,212,l),
(209,206,o),
(211,199,o),
(205,193,c),
(131,106,l),
(78,46,o),
(65,38,o),
(20,37,c),
(12,37,o),
(7,28,o),
(7,17,c),
(8,6,o),
(15,-2,o),
(20,-2,c),
(67,-1,o),
(156,-1,o),
(207,-3,c)
);
}
);
width = 522;
}
);
unicode = 120;
},
{
glyphname = y;
lastChange = "2023-05-15 06:39:53 +0000";
layers = (
{
layerId = m01;
shapes = (
{
closed = 1;
nodes = (
(143,-264,o),
(166,-256,o),
(178,-241,c),
(192,-224,o),
(203,-206,o),
(214,-180,c),
(225,-153,o),
(238,-121,o),
(255,-74,c),
(374,254,l),
(413,361,o),
(429,376,o),
(465,379,c),
(465,379,l),
(474,379,o),
(488,419,o),
(458,419,c),
(405,419,o),
(369,418,o),
(311,418,c),
(308,418,o),
(305,419,o),
(302,418,c),
(286,416,o),
(290,383,o),
(299,379,c),
(350,378,o),
(352,368,o),
(352,349,c),
(352,329,o),
(336,289,o),
(329,270,c),
(271,115,l),
(270,111,o),
(266,116,o),
(263,120,c),
(234,193,o),
(212,256,o),
(181,327,c),
(172,347,o),
(170,354,o),
(170,359,c),
(170,369,o),
(169,378,o),
(213,379,c),
(223,381,o),
(235,420,o),
(205,419,c),
(176,419,o),
(90,419,o),
(40,419,c),
(38,419,o),
(30,419,o),
(28,419,c),
(0,420,o),
(7,382,o),
(19,379,c),
(64,375,o),
(66,372,o),
(100,288,c),
(221,-6,l),
(212,-50,l),
(198,-132,o),
(163,-155,o),
(126,-165,c),
(95,-173,o),
(72,-184,o),
(72,-211,c),
(72,-238,o),
(98,-264,o),
(125,-264,c)
);
}
);
width = 488;
}
);
unicode = 121;
},
{
glyphname = yacute;
lastChange = "2023-05-15 06:06:27 +0000";
layers = (
{
layerId = m01;
shapes = (
{
closed = 1;
nodes = (
(143,-264,o),
(166,-256,o),
(178,-241,c),
(192,-224,o),
(203,-206,o),
(214,-180,c),
(225,-153,o),
(238,-121,o),
(255,-74,c),
(374,254,l),
(413,361,o),
(429,376,o),
(465,379,c),
(465,379,l),
(474,379,o),
(488,419,o),
(458,419,c),
(405,419,o),
(369,418,o),
(311,418,c),
(308,418,o),
(305,419,o),
(302,418,c),
(286,416,o),
(290,383,o),
(299,379,c),
(350,378,o),
(352,368,o),
(352,349,c),
(352,329,o),
(336,289,o),
(329,270,c),
(271,115,l),
(270,111,o),
(266,116,o),
(263,120,c),
(234,193,o),
(212,256,o),
(181,327,c),
(172,347,o),
(170,354,o),
(170,359,c),
(170,369,o),
(169,378,o),
(213,379,c),
(223,381,o),
(235,420,o),
(205,419,c),
(176,419,o),
(89,419,o),
(40,419,c),
(38,419,o),
(30,419,o),
(28,419,c),
(0,420,o),
(7,382,o),
(19,379,c),
(64,375,o),
(66,372,o),
(100,288,c),
(221,-6,l),
(212,-50,l),
(198,-132,o),
(163,-155,o),
(126,-165,c),
(95,-173,o),
(72,-184,o),
(72,-211,c),
(72,-238,o),
(98,-264,o),
(125,-264,c)
);
},
{
closed = 1;
nodes = (
(220,468,o),
(359,638,o),
(361,641,c),
(361,642,l),
(361,643,o),
(362,644,o),
(362,646,c),
(364,657,o),
(353,661,o),
(343,661,c),
(256,661,l),
(246,661,o),
(238,654,o),
(233,645,c),
(185,482,l),
(179,460,o),
(210,459,o),
(220,468,c)
);
}
);
width = 488;
}
);
unicode = 253;
},
{
glyphname = ydieresis;
lastChange = "2023-05-15 06:06:27 +0000";
layers = (
{
layerId = m01;
shapes = (
{
closed = 1;
nodes = (
(143,-264,o),
(166,-256,o),
(178,-241,c),
(192,-224,o),
(203,-206,o),
(214,-180,c),
(225,-153,o),
(238,-121,o),
(255,-74,c),
(374,254,l),
(413,361,o),
(429,376,o),
(465,379,c),
(465,379,l),
(474,379,o),
(488,419,o),
(458,419,c),
(405,419,o),
(369,418,o),
(311,418,c),
(308,418,o),
(305,419,o),
(302,418,c),
(286,416,o),
(290,383,o),
(299,379,c),
(350,378,o),
(352,368,o),
(352,349,c),
(352,329,o),
(336,289,o),
(329,270,c),
(271,115,l),
(270,111,o),
(266,116,o),
(263,120,c),
(234,193,o),
(212,256,o),
(181,327,c),
(172,347,o),
(170,354,o),
(170,359,c),
(170,369,o),
(169,378,o),
(213,379,c),
(223,381,o),
(235,420,o),
(205,419,c),
(176,419,o),
(89,419,o),
(40,419,c),
(38,419,o),
(30,419,o),
(28,419,c),
(0,420,o),
(7,382,o),
(19,379,c),
(64,375,o),
(66,372,o),
(100,288,c),
(221,-6,l),
(212,-50,l),
(198,-132,o),
(163,-155,o),
(126,-165,c),
(95,-173,o),
(72,-184,o),
(72,-211,c),
(72,-238,o),
(98,-264,o),
(125,-264,c)
);
},
{
closed = 1;
nodes = (
(203,478,o),
(232,506,o),
(232,542,c),
(232,578,o),
(203,607,o),
(168,607,c),
(133,607,o),
(103,578,o),
(103,542,c),
(103,506,o),
(133,478,o),
(168,478,c)
);
},
{
closed = 1;
nodes = (
(377,478,o),
(406,507,o),
(406,542,c),
(406,578,o),
(377,607,o),
(341,607,c),
(306,607,o),
(277,578,o),
(277,542,c),
(277,507,o),
(306,478,o),
(341,478,c)
);
}
);
width = 488;
}
);
unicode = 255;
},
{
glyphname = z;
lastChange = "2023-05-15 06:06:27 +0000";
layers = (
{
layerId = m01;
shapes = (
{
closed = 1;
nodes = (
(105,-2,o),
(274,-1,o),
(340,-2,c),
(345,-1,o),
(352,3,o),
(355,9,c),
(395,119,l),
(401,137,o),
(366,140,o),
(359,125,c),
(355,120,l),
(332,67,o),
(326,57,o),
(295,57,c),
(237,55,o),
(197,56,o),
(161,56,c),
(154,56,o),
(150,62,o),
(154,67,c),
(190,120,o),
(297,275,o),
(379,383,c),
(385,390,o),
(384,401,o),
(382,411,c),
(372,421,o),
(358,417,o),
(347,418,c),
(291,418,o),
(192,417,o),
(135,416,c),
(102,415,o),
(99,418,o),
(99,436,c),
(99,444,o),
(64,444,o),
(61,438,c),
(54,410,o),
(40,331,o),
(32,282,c),
(31,281,o),
(31,279,o),
(31,278,c),
(28,258,o),
(64,256,o),
(70,270,c),
(91,354,o),
(100,357,o),
(121,357,c),
(165,357,o),
(198,360,o),
(241,360,c),
(250,360,o),
(255,357,o),
(250,350,c),
(24,37,l),
(21,31,o),
(16,30,o),
(15,23,c),
(13,12,o),
(16,-2,o),
(21,-2,c)
);
}
);
width = 410;
}
);
unicode = 122;
},
{
glyphname = zcaron;
lastChange = "2023-05-15 06:06:27 +0000";
layers = (
{
layerId = m01;
shapes = (
{
closed = 1;
nodes = (
(105,-2,o),
(274,-1,o),
(340,-2,c),
(345,-1,o),
(352,3,o),
(355,9,c),
(395,119,l),
(401,137,o),
(366,140,o),
(359,125,c),
(355,120,l),
(332,67,o),
(326,57,o),
(295,57,c),
(237,55,o),
(197,56,o),
(161,56,c),
(154,56,o),
(150,62,o),
(154,67,c),
(190,120,o),
(297,275,o),
(379,383,c),
(385,390,o),
(384,401,o),
(382,411,c),
(372,421,o),
(358,417,o),
(347,418,c),
(291,418,o),
(192,417,o),
(135,416,c),
(102,415,o),
(99,418,o),
(99,436,c),
(99,444,o),
(64,444,o),
(61,438,c),
(54,410,o),
(40,331,o),
(32,282,c),
(31,281,o),
(31,279,o),
(31,278,c),
(28,258,o),
(64,256,o),
(70,270,c),
(91,354,o),
(100,357,o),
(121,357,c),
(165,357,o),
(198,360,o),
(241,360,c),
(250,360,o),
(255,357,o),
(250,350,c),
(24,37,l),
(21,31,o),
(16,30,o),
(15,23,c),
(13,12,o),
(16,-2,o),
(21,-2,c)
);
},
{
closed = 1;
nodes = (
(253,473,l),
(260,473,o),
(265,474,o),
(270,481,c),
(364,649,l),
(366,655,o),
(359,662,o),
(349,662,c),
(342,662,o),
(334,660,o),
(330,657,c),
(223,556,l),
(97,657,l),
(93,661,o),
(84,663,o),
(77,663,c),
(69,663,o),
(58,659,o),
(62,648,c),
(156,484,l),
(158,476,o),
(167,473,o),
(178,473,c)
);
}
);
width = 410;
}
);
unicode = 382;
},
{
glyphname = f_f;
lastChange = "2023-05-15 06:06:27 +0000";
layers = (
{
layerId = m01;
shapes = (
{
closed = 1;
nodes = (
(403,-4,o),
(523,-3,o),
(586,-5,c),
(595,-5,o),
(600,-1,o),
(598,17,c),
(598,20,o),
(599,24,o),
(598,28,c),
(594,42,o),
(593,42,o),
(580,43,c),
(571,44,o),
(557,44,o),
(548,42,c),
(488,42,o),
(484,57,o),
(484,137,c),
(484,322,l),
(484,338,o),
(495,348,o),
(499,348,c),
(577,347,l),
(587,347,o),
(597,348,o),
(597,359,c),
(596,369,o),
(592,402,o),
(589,410,c),
(583,419,o),
(580,420,o),
(568,420,c),
(501,419,l),
(487,418,o),
(484,420,o),
(484,431,c),
(483,485,o),
(478,542,o),
(496,595,c),
(510,632,o),
(545,656,o),
(583,656,c),
(610,656,o),
(648,641,o),
(674,620,c),
(690,607,o),
(707,594,o),
(723,619,c),
(733,634,o),
(743,653,o),
(743,664,c),
(743,667,o),
(742,674,o),
(739,678,c),
(716,711,o),
(659,724,o),
(626,724,c),
(578,724,o),
(535,707,o),
(490,665,c),
(489,665,o),
(483,662,o),
(475,672,c),
(393,740,o),
(263,691,o),
(197,631,c),
(143,582,o),
(119,552,o),
(111,480,c),
(109,462,o),
(108,440,o),
(105,414,c),
(84,401,o),
(67,398,o),
(42,393,c),
(38,392,o),
(31,389,o),
(27,385,c),
(22,379,o),
(24,364,o),
(26,358,c),
(27,355,o),
(29,352,o),
(33,348,c),
(43,347,o),
(51,347,o),
(51,347,c),
(95,347,l),
(97,347,o),
(105,347,o),
(105,340,c),
(105,100,l),
(105,49,o),
(99,42,o),
(47,42,c),
(42,43,o),
(40,41,o),
(36,41,c),
(14,37,o),
(17,10,o),
(22,3,c),
(24,-2,o),
(34,-4,o),
(38,-4,c),
(103,-2,o),
(185,-2,o),
(274,-4,c),
(279,-4,o),
(286,-4,o),
(289,2,c),
(291,8,o),
(293,23,o),
(290,31,c),
(288,36,o),
(282,38,o),
(278,40,c),
(261,43,o),
(249,41,o),
(232,42,c),
(199,44,o),
(200,72,o),
(199,98,c),
(197,180,o),
(199,253,o),
(199,333,c),
(201,340,o),
(206,348,o),
(216,348,c),
(268,349,o),
(324,350,o),
(378,349,c),
(387,348,o),
(391,341,o),
(392,334,c),
(392,141,l),
(392,53,o),
(396,42,o),
(349,42,c),
(340,42,o),
(331,40,o),
(327,32,c),
(324,26,o),
(327,16,o),
(327,10,c),
(327,1,o),
(331,-5,o),
(342,-5,c)
);
},
{
closed = 1;
nodes = (
(202,417,o),
(199,425,o),
(199,430,c),
(199,505,o),
(201,521,o),
(206,545,c),
(218,598,o),
(268,641,o),
(320,641,c),
(354,641,o),
(376,636,o),
(407,607,c),
(411,603,o),
(415,599,o),
(419,595,c),
(423,589,o),
(423,586,o),
(423,585,c),
(397,537,o),
(394,482,o),
(393,428,c),
(392,418,o),
(383,417,o),
(370,417,c),
(322,415,o),
(253,414,o),
(209,417,c)
);
}
);
width = 627;
}
);
},
{
glyphname = f_f_i;
lastChange = "2023-05-15 06:06:27 +0000";
layers = (
{
layerId = m01;
shapes = (
{
closed = 1;
nodes = (
(106,-2,o),
(191,-2,o),
(285,-5,c),
(298,-7,o),
(306,33,o),
(287,41,c),
(276,43,o),
(266,42,o),
(255,42,c),
(210,42,o),
(204,49,o),
(203,90,c),
(201,171,o),
(203,256,o),
(203,334,c),
(204,344,o),
(209,350,o),
(214,351,c),
(243,354,o),
(343,355,o),
(389,352,c),
(399,351,o),
(401,340,o),
(402,331,c),
(402,133,l),
(402,41,o),
(401,39,o),
(352,39,c),
(343,39,l),
(335,36,o),
(331,24,o),
(331,15,c),
(331,5,o),
(336,-5,o),
(344,-5,c),
(412,-3,o),
(486,-2,o),
(581,-4,c),
(585,-4,o),
(592,6,o),
(592,17,c),
(592,31,o),
(592,41,o),
(571,41,c),
(552,41,l),
(496,41,o),
(496,59,o),
(497,135,c),
(498,344,l),
(499,348,o),
(505,357,o),
(512,358,c),
(552,360,o),
(619,357,o),
(649,357,c),
(693,355,o),
(699,328,o),
(699,287,c),
(699,135,l),
(699,46,o),
(701,41,o),
(650,41,c),
(629,44,o),
(628,30,o),
(628,17,c),
(628,6,o),
(633,-4,o),
(640,-4,c),
(709,-2,o),
(794,-2,o),
(849,-4,c),
(858,-1,o),
(867,38,o),
(850,41,c),
(845,42,o),
(839,42,o),
(834,41,c),
(799,41,o),
(791,43,o),
(791,92,c),
(791,411,l),
(791,423,o),
(781,445,o),
(766,440,c),
(722,425,o),
(710,425,o),
(681,424,c),
(611,421,o),
(538,420,o),
(509,423,c),
(501,424,o),
(497,436,o),
(497,443,c),
(497,517,o),
(498,538,o),
(504,561,c),
(515,614,o),
(567,658,o),
(619,658,c),
(654,658,o),
(675,648,o),
(706,619,c),
(714,611,o),
(721,604,o),
(733,604,c),
(751,604,o),
(791,635,o),
(791,653,c),
(791,665,o),
(784,680,o),
(773,689,c),
(700,750,o),
(587,715,o),
(518,665,c),
(513,662,o),
(500,655,o),
(484,672,c),
(403,740,o),
(266,690,o),
(200,631,c),
(158,592,o),
(136,565,o),
(125,533,c),
(113,501,o),
(111,449,o),
(108,414,c),
(87,401,o),
(69,398,o),
(43,393,c),
(38,390,o),
(34,389,o),
(29,385,c),
(26,378,o),
(26,364,o),
(28,357,c),
(32,345,o),
(43,347,o),
(53,347,c),
(96,347,l),
(98,347,o),
(107,340,o),
(107,334,c),
(107,96,l),
(107,48,o),
(101,39,o),
(52,39,c),
(45,39,o),
(39,41,o),
(33,36,c),
(17,26,o),
(25,-6,o),
(39,-5,c)
);
},
{
closed = 1;
nodes = (
(204,417,o),
(203,429,o),
(203,434,c),
(203,509,o),
(204,521,o),
(209,545,c),
(221,598,o),
(272,641,o),
(324,641,c),
(358,641,o),
(386,636,o),
(417,607,c),
(422,602,o),
(436,590,o),
(431,582,c),
(412,547,o),
(406,511,o),
(404,464,c),
(403,453,o),
(409,420,o),
(393,419,c),
(330,414,o),
(257,414,o),
(211,417,c)
);
}
);
width = 880;
}
);
},
{
glyphname = f_f_l;
lastChange = "2023-05-15 06:06:27 +0000";
layers = (
{
layerId = m01;
shapes = (
{
closed = 1;
nodes = (
(103,-2,o),
(192,-1,o),
(286,-5,c),
(300,-6,o),
(306,29,o),
(288,37,c),
(278,39,o),
(265,41,o),
(257,39,c),
(220,39,o),
(218,43,o),
(212,53,c),
(205,63,o),
(204,63,o),
(204,134,c),
(204,337,l),
(206,348,o),
(211,351,o),
(218,351,c),
(259,349,o),
(337,350,o),
(377,351,c),
(391,351,o),
(392,347,o),
(392,327,c),
(392,135,l),
(392,112,o),
(392,96,o),
(391,85,c),
(390,41,o),
(381,43,o),
(341,38,c),
(326,37,o),
(323,16,o),
(329,5,c),
(332,0,o),
(336,-4,o),
(339,-4,c),
(413,-3,o),
(488,-2,o),
(550,-4,c),
(568,-4,o),
(567,34,o),
(552,37,c),
(548,38,o),
(543,38,o),
(539,37,c),
(494,37,o),
(487,46,o),
(487,91,c),
(487,337,l),
(491,352,o),
(493,355,o),
(502,356,c),
(542,360,o),
(616,357,o),
(666,356,c),
(672,355,o),
(678,351,o),
(678,336,c),
(677,135,l),
(677,49,o),
(674,43,o),
(647,40,c),
(637,39,o),
(627,42,o),
(618,40,c),
(609,38,o),
(605,36,o),
(601,26,c),
(599,20,o),
(600,12,o),
(602,6,c),
(605,-3,o),
(610,-4,o),
(618,-4,c),
(675,-2,o),
(771,-2,o),
(817,-4,c),
(820,-4,o),
(823,-5,o),
(826,-4,c),
(831,-3,o),
(833,0,o),
(835,6,c),
(837,12,o),
(837,24,o),
(835,30,c),
(831,45,o),
(813,41,o),
(802,41,c),
(768,43,o),
(769,45,o),
(769,91,c),
(769,718,l),
(769,735,o),
(744,735,o),
(729,729,c),
(714,710,o),
(704,706,o),
(687,706,c),
(666,706,o),
(645,711,o),
(624,711,c),
(575,711,o),
(536,696,o),
(498,664,c),
(493,659,o),
(488,665,o),
(479,673,c),
(398,741,o),
(268,691,o),
(201,631,c),
(159,593,o),
(136,565,o),
(125,533,c),
(113,498,o),
(111,451,o),
(108,414,c),
(87,401,o),
(71,398,o),
(44,393,c),
(39,390,o),
(34,392,o),
(31,385,c),
(27,380,o),
(28,365,o),
(29,357,c),
(35,345,o),
(44,347,o),
(55,347,c),
(100,347,l),
(103,347,o),
(108,344,o),
(108,336,c),
(108,96,l),
(108,48,o),
(97,42,o),
(69,40,c),
(58,40,o),
(49,42,o),
(39,39,c),
(13,32,o),
(21,-6,o),
(37,-5,c)
);
},
{
closed = 1;
nodes = (
(208,417,o),
(204,425,o),
(204,430,c),
(204,505,o),
(205,521,o),
(210,545,c),
(222,598,o),
(273,641,o),
(324,641,c),
(359,641,o),
(380,637,o),
(411,607,c),
(418,601,o),
(421,598,o),
(424,594,c),
(428,588,o),
(431,582,o),
(426,570,c),
(406,527,o),
(396,478,o),
(393,430,c),
(392,417,o),
(389,417,o),
(373,417,c),
(324,416,o),
(260,414,o),
(214,417,c)
);
},
{
closed = 1;
nodes = (
(488,422,o),
(487,426,o),
(487,436,c),
(488,532,o),
(505,592,o),
(525,620,c),
(540,641,o),
(559,655,o),
(583,655,c),
(610,655,o),
(645,642,o),
(677,620,c),
(677,436,l),
(677,425,o),
(667,422,o),
(661,422,c),
(622,422,o),
(567,419,o),
(506,422,c)
);
}
);
width = 860;
}
);
},
{
glyphname = fi;
lastChange = "2023-05-15 06:06:27 +0000";
layers = (
{
layerId = m01;
shapes = (
{
closed = 1;
nodes = (
(88,-2,o),
(113,-1,o),
(145,-1,c),
(179,-1,o),
(208,-2,o),
(249,-4,c),
(263,0,o),
(267,34,o),
(251,35,c),
(222,38,l),
(194,41,o),
(191,44,o),
(191,117,c),
(191,322,l),
(191,344,o),
(195,344,o),
(207,345,c),
(235,346,o),
(303,345,o),
(332,345,c),
(369,344,o),
(372,342,o),
(372,287,c),
(372,117,l),
(372,45,o),
(373,42,o),
(343,38,c),
(325,36,o),
(306,36,o),
(314,9,c),
(317,0,o),
(321,-3,o),
(330,-3,c),
(358,0,o),
(388,-2,o),
(417,-2,c),
(451,-2,o),
(480,-2,o),
(511,-4,c),
(524,2,o),
(530,33,o),
(511,35,c),
(491,38,l),
(462,42,o),
(459,45,o),
(459,117,c),
(459,280,l),
(459,320,o),
(461,368,o),
(463,405,c),
(457,415,o),
(449,416,o),
(439,413,c),
(433,410,l),
(406,405,o),
(356,404,o),
(320,403,c),
(295,402,o),
(243,402,o),
(212,403,c),
(199,403,o),
(195,407,o),
(194,412,c),
(191,418,o),
(191,429,o),
(191,436,c),
(191,589,o),
(224,665,o),
(294,665,c),
(316,665,o),
(351,649,o),
(379,602,c),
(384,593,o),
(394,585,o),
(410,585,c),
(426,585,o),
(456,597,o),
(456,632,c),
(456,679,o),
(396,715,o),
(329,715,c),
(216,715,o),
(156,630,o),
(134,579,c),
(112,525,o),
(104,468,o),
(104,411,c),
(104,400,o),
(89,394,o),
(80,391,c),
(72,387,o),
(56,383,o),
(50,378,c),
(37,370,o),
(45,351,o),
(54,346,c),
(89,343,l),
(101,342,o),
(104,338,o),
(104,322,c),
(104,117,l),
(104,45,o),
(102,42,o),
(73,38,c),
(50,35,l),
(37,29,o),
(37,15,o),
(40,7,c),
(45,-4,o),
(52,-4,o),
(60,-4,c)
);
}
);
width = 559;
}
);
unicode = 64257;
},
{
glyphname = fl;
lastChange = "2023-05-15 06:06:27 +0000";
layers = (
{
layerId = m01;
shapes = (
{
closed = 1;
nodes = (
(118,1,o),
(207,-3,o),
(241,-3,c),
(247,-3,l),
(262,0,o),
(261,35,o),
(246,38,c),
(243,39,o),
(238,39,o),
(234,38,c),
(189,38,o),
(183,47,o),
(183,92,c),
(183,341,l),
(184,347,o),
(187,357,o),
(194,357,c),
(239,357,o),
(307,358,o),
(356,358,c),
(363,357,o),
(369,344,o),
(369,336,c),
(369,136,l),
(369,40,o),
(369,38,o),
(312,38,c),
(304,38,l),
(292,37,o),
(288,18,o),
(292,7,c),
(295,-1,o),
(300,-3,o),
(306,-3,c),
(310,-3,l),
(370,-3,o),
(456,-1,o),
(515,-3,c),
(535,-4,o),
(529,36,o),
(518,38,c),
(512,39,o),
(508,42,o),
(503,40,c),
(462,40,o),
(459,51,o),
(459,92,c),
(459,728,l),
(457,739,o),
(436,739,o),
(421,733,c),
(407,714,o),
(397,710,o),
(380,710,c),
(359,710,o),
(340,715,o),
(318,715,c),
(257,715,o),
(212,688,o),
(168,640,c),
(115,581,o),
(95,501,o),
(91,424,c),
(90,422,o),
(89,419,o),
(86,417,c),
(37,396,l),
(32,395,o),
(27,390,o),
(25,385,c),
(22,377,o),
(25,356,o),
(35,356,c),
(80,356,l),
(86,355,o),
(91,352,o),
(91,343,c),
(91,136,l),
(91,66,o),
(89,61,o),
(82,51,c),
(77,44,o),
(73,41,o),
(43,38,c),
(40,38,o),
(37,39,o),
(34,38,c),
(16,34,o),
(16,-4,o),
(43,-3,c)
);
},
{
closed = 1;
nodes = (
(196,423,o),
(183,422,o),
(183,427,c),
(183,529,o),
(198,592,o),
(219,621,c),
(234,642,o),
(253,656,o),
(278,656,c),
(304,656,o),
(337,643,o),
(369,621,c),
(369,439,l),
(368,428,o),
(361,423,o),
(355,423,c),
(318,423,o),
(260,420,o),
(199,423,c)
);
}
);
width = 539;
}
);
unicode = 64258;
},
{
glyphname = ordfeminine;
lastChange = "2023-05-15 06:06:27 +0000";
layers = (
{
layerId = m01;
shapes = (
{
closed = 1;
nodes = (
(116,402,o),
(131,409,o),
(155,427,c),
(161,431,o),
(162,426,o),
(163,423,c),
(170,410,o),
(181,402,o),
(198,402,c),
(214,402,o),
(240,417,o),
(268,439,c),
(273,443,o),
(272,446,o),
(271,449,c),
(265,464,l),
(265,466,o),
(261,470,o),
(256,467,c),
(236,454,o),
(233,453,o),
(228,453,c),
(223,453,o),
(221,456,o),
(221,474,c),
(221,501,l),
(221,580,l),
(221,646,o),
(194,674,o),
(133,674,c),
(111,674,o),
(94,667,o),
(70,650,c),
(47,633,o),
(27,613,o),
(27,595,c),
(27,592,o),
(27,589,o),
(32,578,c),
(33,573,o),
(38,573,o),
(41,574,c),
(96,599,l),
(92,613,o),
(88,616,o),
(97,627,c),
(105,633,o),
(112,636,o),
(119,636,c),
(143,636,o),
(155,622,o),
(155,592,c),
(155,550,l),
(135,539,o),
(118,533,o),
(95,528,c),
(52,518,o),
(23,498,o),
(23,463,c),
(23,426,o),
(53,402,o),
(91,402,c)
);
},
{
closed = 1;
nodes = (
(97,444,o),
(86,455,o),
(86,470,c),
(86,482,o),
(86,487,o),
(133,505,c),
(140,508,o),
(145,511,o),
(150,513,c),
(153,514,o),
(155,511,o),
(155,505,c),
(155,476,l),
(155,465,o),
(127,444,o),
(113,444,c)
);
}
);
width = 272;
}
);
unicode = 170;
},
{
glyphname = ordmasculine;
lastChange = "2023-05-15 06:06:27 +0000";
layers = (
{
layerId = m01;
shapes = (
{
closed = 1;
nodes = (
(264,402,o),
(331,461,o),
(331,538,c),
(331,616,o),
(264,674,o),
(180,674,c),
(96,674,o),
(29,616,o),
(29,538,c),
(29,460,o),
(97,402,o),
(182,402,c)
);
},
{
closed = 1;
nodes = (
(143,439,o),
(100,488,o),
(100,556,c),
(100,605,o),
(132,638,o),
(171,638,c),
(218,638,o),
(261,589,o),
(261,524,c),
(261,473,o),
(229,439,o),
(190,439,c)
);
}
);
width = 360;
}
);
unicode = 186;
},
{
glyphname = zero;
lastChange = "2023-05-15 06:39:53 +0000";
layers = (
{
layerId = m01;
shapes = (
{
closed = 1;
nodes = (
(375,-14,o),
(463,83,o),
(463,218,c),
(463,355,o),
(375,455,o),
(250,455,c),
(127,455,o),
(38,354,o),
(38,215,c),
(38,84,o),
(128,-14,o),
(249,-14,c)
);
},
{
closed = 1;
nodes = (
(170,46,o),
(120,108,o),
(120,221,c),
(120,333,o),
(172,397,o),
(248,397,c),
(332,397,o),
(382,336,o),
(382,220,c),
(382,107,o),
(331,46,o),
(249,46,c)
);
}
);
width = 489;
}
);
unicode = 48;
},
{
glyphname = one;
lastChange = "2023-05-15 06:39:53 +0000";
layers = (
{
layerId = m01;
shapes = (
{
closed = 1;
nodes = (
(152,-1,o),
(252,-3,o),
(330,-4,c),
(346,-4,o),
(345,43,o),
(332,46,c),
(326,47,o),
(320,47,o),
(315,47,c),
(307,47,o),
(289,45,o),
(274,50,c),
(265,50,o),
(262,51,o),
(260,53,c),
(254,58,o),
(254,69,o),
(254,89,c),
(254,433,l),
(254,448,o),
(209,444,o),
(203,440,c),
(178,405,o),
(135,366,o),
(100,342,c),
(86,333,o),
(76,327,o),
(59,315,c),
(51,308,o),
(63,273,o),
(78,281,c),
(109,296,o),
(135,304,o),
(163,325,c),
(172,333,o),
(171,314,o),
(171,312,c),
(171,86,l),
(171,58,o),
(159,49,o),
(134,48,c),
(126,46,o),
(117,47,o),
(108,47,c),
(103,48,o),
(94,48,o),
(87,44,c),
(72,36,o),
(76,-5,o),
(93,-4,c)
);
}
);
width = 388;
}
);
unicode = 49;
},
{
glyphname = two;
lastChange = "2023-05-15 06:06:27 +0000";
layers = (
{
layerId = m01;
shapes = (
{
closed = 1;
nodes = (
(366,-4,l),
(374,-4,l),
(386,-4,o),
(402,-1,o),
(406,14,c),
(439,150,l),
(443,166,o),
(414,173,o),
(402,161,c),
(391,132,o),
(381,112,o),
(373,99,c),
(364,81,o),
(359,80,o),
(336,79,c),
(283,77,o),
(251,78,o),
(199,78,c),
(197,78,o),
(169,76,o),
(182,85,c),
(260,140,o),
(385,231,o),
(385,335,c),
(385,404,o),
(321,455,o),
(245,455,c),
(178,455,o),
(128,427,o),
(68,359,c),
(57,335,o),
(92,329,o),
(98,334,c),
(140,373,o),
(171,386,o),
(207,386,c),
(259,386,o),
(294,350,o),
(294,297,c),
(294,259,o),
(273,223,o),
(213,169,c),
(164,126,o),
(120,90,o),
(38,33,c),
(33,27,o),
(28,3,o),
(42,-4,c)
);
}
);
width = 481;
}
);
unicode = 50;
},
{
glyphname = three;
lastChange = "2023-05-15 06:06:27 +0000";
layers = (
{
layerId = m01;
shapes = (
{
closed = 1;
nodes = (
(257,-180,o),
(345,-72,o),
(345,51,c),
(345,108,o),
(319,145,o),
(284,175,c),
(277,181,o),
(265,187,o),
(253,191,c),
(249,192,o),
(247,195,o),
(251,200,c),
(296,243,o),
(330,264,o),
(330,333,c),
(330,403,o),
(278,458,o),
(212,458,c),
(152,458,o),
(101,419,o),
(68,353,c),
(65,343,o),
(70,335,o),
(75,330,c),
(103,307,o),
(115,382,o),
(184,382,c),
(219,382,o),
(243,359,o),
(243,313,c),
(243,259,o),
(207,202,o),
(125,151,c),
(116,145,o),
(118,108,o),
(139,114,c),
(170,123,o),
(193,123,o),
(217,102,c),
(243,78,o),
(254,50,o),
(254,-13,c),
(254,-85,o),
(226,-125,o),
(195,-125,c),
(180,-125,o),
(166,-120,o),
(135,-96,c),
(129,-92,o),
(124,-87,o),
(118,-83,c),
(92,-68,o),
(54,-83,o),
(54,-119,c),
(54,-160,o),
(94,-180,o),
(149,-180,c)
);
}
);
width = 407;
}
);
unicode = 51;
},
{
glyphname = four;
lastChange = "2023-05-15 06:39:53 +0000";
layers = (
{
layerId = m01;
shapes = (
{
closed = 1;
nodes = (
(328,-178,l),
(347,-178,o),
(342,-163,o),
(342,-154,c),
(343,-123,o),
(344,-60,o),
(342,-10,c),
(342,-9,o),
(348,-3,o),
(350,-3,c),
(435,-4,l),
(447,-6,o),
(457,-2,o),
(457,14,c),
(457,25,o),
(458,43,o),
(456,53,c),
(452,69,o),
(450,64,o),
(439,67,c),
(351,66,l),
(345,69,o),
(343,71,o),
(342,78,c),
(342,449,l),
(342,452,o),
(339,455,o),
(334,457,c),
(328,458,o),
(316,456,o),
(311,454,c),
(307,452,o),
(304,450,o),
(302,447,c),
(30,32,l),
(24,23,o),
(25,-1,o),
(37,-3,c),
(109,-3,o),
(172,-3,o),
(237,-3,c),
(244,-3,o),
(251,-8,o),
(251,-11,c),
(251,-55,o),
(250,-138,o),
(250,-164,c),
(250,-169,o),
(258,-179,o),
(272,-178,c)
);
},
{
closed = 1;
nodes = (
(119,66,o),
(109,69,o),
(111,72,c),
(248,283,l),
(252,289,o),
(255,289,o),
(255,277,c),
(253,206,o),
(251,137,o),
(252,82,c),
(252,73,o),
(246,66,o),
(242,66,c),
(197,66,o),
(177,64,o),
(122,66,c)
);
}
);
width = 489;
}
);
unicode = 52;
},
{
glyphname = five;
lastChange = "2023-05-15 06:39:53 +0000";
layers = (
{
layerId = m01;
shapes = (
{
closed = 1;
nodes = (
(150,-177,o),
(206,-161,o),
(253,-130,c),
(317,-88,o),
(358,-26,o),
(358,42,c),
(358,104,o),
(320,171,o),
(263,225,c),
(230,257,o),
(211,273,o),
(172,298,c),
(160,305,o),
(162,305,o),
(172,316,c),
(210,364,l),
(214,370,o),
(215,369,o),
(222,369,c),
(313,357,l),
(323,357,o),
(327,358,o),
(334,365,c),
(339,370,o),
(364,404,o),
(367,418,c),
(372,435,o),
(363,439,o),
(346,441,c),
(236,454,l),
(227,455,o),
(224,453,o),
(218,446,c),
(180,405,o),
(112,318,o),
(80,273,c),
(77,269,o),
(69,253,o),
(82,245,c),
(165,193,o),
(276,114,o),
(276,11,c),
(276,-58,o),
(229,-113,o),
(179,-113,c),
(168,-113,o),
(152,-109,o),
(110,-94,c),
(100,-90,o),
(90,-88,o),
(83,-88,c),
(60,-88,o),
(43,-108,o),
(43,-131,c),
(43,-161,o),
(68,-177,o),
(99,-177,c)
);
}
);
width = 437;
}
);
unicode = 53;
},
{
glyphname = six;
lastChange = "2023-05-15 06:06:27 +0000";
layers = (
{
layerId = m01;
shapes = (
{
closed = 1;
nodes = (
(367,-14,o),
(453,78,o),
(453,199,c),
(453,317,o),
(371,399,o),
(255,399,c),
(246,399,o),
(237,399,o),
(228,398,c),
(225,397,o),
(200,395,o),
(208,406,c),
(270,490,o),
(339,535,o),
(440,581,c),
(461,609,o),
(434,621,o),
(411,614,c),
(240,560,o),
(45,432,o),
(45,221,c),
(45,87,o),
(135,-14,o),
(255,-14,c)
);
},
{
closed = 1;
nodes = (
(187,25,o),
(143,86,o),
(143,199,c),
(143,251,o),
(149,280,o),
(174,343,c),
(206,358,o),
(221,361,o),
(242,361,c),
(313,361,o),
(357,300,o),
(357,183,c),
(357,120,o),
(344,78,o),
(318,52,c),
(301,35,o),
(277,25,o),
(252,25,c)
);
}
);
width = 503;
}
);
unicode = 54;
},
{
glyphname = seven;
lastChange = "2023-05-15 06:39:53 +0000";
layers = (
{
layerId = m01;
shapes = (
{
closed = 1;
nodes = (
(193,-180,o),
(198,-170,o),
(201,-162,c),
(249,-63,o),
(348,175,o),
(438,412,c),
(438,435,l),
(434,443,o),
(420,442,o),
(411,442,c),
(333,445,o),
(176,445,o),
(97,442,c),
(89,442,o),
(69,439,o),
(62,421,c),
(42,272,l),
(39,251,o),
(75,256,o),
(80,262,c),
(92,312,l),
(104,357,o),
(115,357,o),
(137,357,c),
(184,358,o),
(266,358,o),
(341,359,c),
(344,360,o),
(353,354,o),
(351,349,c),
(129,-150,l),
(122,-165,o),
(135,-173,o),
(144,-174,c),
(182,-179,l)
);
}
);
width = 489;
}
);
unicode = 55;
},
{
glyphname = eight;
lastChange = "2023-05-15 06:06:27 +0000";
layers = (
{
layerId = m01;
shapes = (
{
closed = 1;
nodes = (
(337,-14,o),
(419,54,o),
(419,149,c),
(419,215,o),
(385,259,o),
(312,321,c),
(308,325,o),
(307,331,o),
(311,334,c),
(373,376,o),
(398,417,o),
(398,474,c),
(398,557,o),
(333,614,o),
(245,614,c),
(153,614,o),
(86,555,o),
(86,467,c),
(86,406,o),
(111,356,o),
(172,307,c),
(178,302,o),
(174,296,o),
(167,292,c),
(113,257,o),
(64,216,o),
(64,142,c),
(64,50,o),
(144,-14,o),
(239,-14,c)
);
},
{
closed = 1;
nodes = (
(186,29,o),
(145,79,o),
(145,144,c),
(145,193,o),
(162,241,o),
(206,272,c),
(212,275,o),
(220,271,o),
(225,267,c),
(308,207,o),
(334,171,o),
(334,117,c),
(334,67,o),
(297,29,o),
(246,29,c)
);
},
{
closed = 1;
nodes = (
(188,412,o),
(158,456,o),
(158,500,c),
(158,544,o),
(191,575,o),
(240,575,c),
(291,575,o),
(327,535,o),
(327,464,c),
(327,434,o),
(319,404,o),
(305,383,c),
(300,373,o),
(293,367,o),
(281,359,c),
(277,357,o),
(270,353,o),
(266,356,c)
);
}
);
width = 464;
}
);
unicode = 56;
},
{
glyphname = nine;
lastChange = "2023-05-15 06:06:27 +0000";
layers = (
{
layerId = m01;
shapes = (
{
closed = 1;
nodes = (
(265,-129,o),
(443,-17,o),
(443,214,c),
(443,350,o),
(357,456,o),
(234,456,c),
(121,456,o),
(35,369,o),
(35,248,c),
(35,135,o),
(120,42,o),
(230,42,c),
(257,42,o),
(271,46,o),
(297,52,c),
(303,54,o),
(297,38,o),
(294,33,c),
(241,-52,o),
(144,-100,o),
(52,-134,c),
(31,-142,o),
(43,-182,o),
(70,-176,c)
);
},
{
closed = 1;
nodes = (
(176,80,o),
(131,142,o),
(131,258,c),
(131,329,o),
(150,417,o),
(238,417,c),
(301,417,o),
(346,358,o),
(346,245,c),
(346,198,o),
(344,167,o),
(330,119,c),
(326,105,o),
(325,103,o),
(314,97,c),
(286,83,o),
(268,80,o),
(246,80,c)
);
}
);
width = 489;
}
);
unicode = 57;
},
{
glyphname = fraction;
lastChange = "2023-05-15 06:06:27 +0000";
layers = (
{
layerId = m01;
shapes = (
{
closed = 1;
nodes = (
(-2,-204,l),
(345,691,l),
(288,691,l),
(-59,-204,l)
);
}
);
width = 242;
}
);
unicode = 8260;
},
{
glyphname = onehalf;
lastChange = "2023-05-15 06:06:27 +0000";
layers = (
{
layerId = m01;
shapes = (
{
closed = 1;
nodes = (
(145,-37,o),
(144,-44,o),
(158,-24,c),
(624,637,l),
(631,647,o),
(625,653,o),
(616,655,c),
(582,662,l),
(575,660,o),
(571,664,o),
(562,652,c),
(94,-12,l),
(91,-17,o),
(90,-27,o),
(107,-31,c),
(134,-37,l)
);
},
{
closed = 1;
nodes = (
(132,301,o),
(187,301,o),
(236,299,c),
(241,299,o),
(248,309,o),
(248,320,c),
(247,343,o),
(248,340,o),
(230,343,c),
(226,342,o),
(209,344,o),
(204,344,c),
(194,345,o),
(196,347,o),
(196,357,c),
(196,634,l),
(196,643,o),
(151,645,o),
(147,640,c),
(129,617,o),
(89,586,o),
(51,562,c),
(41,551,o),
(51,529,o),
(69,531,c),
(88,538,o),
(107,545,o),
(124,556,c),
(124,356,l),
(124,346,o),
(123,345,o),
(110,344,c),
(83,341,l),
(76,340,o),
(71,329,o),
(71,320,c),
(71,310,o),
(77,299,o),
(84,299,c)
);
},
{
closed = 1;
nodes = (
(658,-6,l),
(664,-6,o),
(678,-7,o),
(681,11,c),
(686,39,o),
(687,54,o),
(691,84,c),
(691,90,o),
(691,96,o),
(679,96,c),
(671,96,o),
(662,96,o),
(658,96,c),
(652,96,o),
(646,94,o),
(645,87,c),
(643,78,o),
(642,66,o),
(636,60,c),
(630,56,o),
(610,57,o),
(603,57,c),
(528,57,l),
(521,57,o),
(516,58,o),
(521,62,c),
(544,82,o),
(562,96,o),
(582,109,c),
(627,141,o),
(679,173,o),
(679,237,c),
(679,298,o),
(623,339,o),
(557,339,c),
(487,339,o),
(433,295,o),
(426,222,c),
(426,211,o),
(465,210,o),
(469,218,c),
(482,258,o),
(510,279,o),
(541,279,c),
(574,279,o),
(597,257,o),
(597,230,c),
(597,179,o),
(536,133,o),
(500,102,c),
(460,67,o),
(437,44,o),
(420,24,c),
(420,7,l),
(420,-5,o),
(423,-6,o),
(435,-6,c)
);
}
);
width = 715;
}
);
unicode = 189;
},
{
glyphname = onequarter;
lastChange = "2023-05-15 06:06:27 +0000";
layers = (
{
layerId = m01;
shapes = (
{
closed = 1;
nodes = (
(140,-34,l),
(148,-34,o),
(154,-30,o),
(158,-24,c),
(624,637,l),
(633,649,o),
(625,660,o),
(619,660,c),
(578,660,l),
(575,660,l),
(571,660,o),
(568,660,o),
(564,656,c),
(562,651,l),
(97,-7,l),
(91,-15,o),
(93,-34,o),
(108,-34,c)
);
},
{
closed = 1;
nodes = (
(136,295,o),
(193,295,o),
(245,293,c),
(251,293,o),
(257,301,o),
(257,314,c),
(257,345,o),
(232,337,o),
(213,338,c),
(203,339,o),
(203,339,o),
(203,351,c),
(203,634,l),
(203,644,o),
(155,645,o),
(151,640,c),
(133,617,o),
(91,585,o),
(51,561,c),
(41,548,o),
(52,528,o),
(70,528,c),
(89,537,o),
(109,543,o),
(127,554,c),
(127,350,l),
(127,339,o),
(126,338,o),
(115,337,c),
(85,335,l),
(79,335,o),
(73,324,o),
(72,314,c),
(72,303,o),
(78,293,o),
(86,293,c)
);
},
{
closed = 1;
nodes = (
(540,228,l),
(540,146,l),
(540,141,o),
(533,141,o),
(528,141,c),
(475,141,l)
);
},
{
closed = 1;
nodes = (
(558,-22,o),
(601,-20,o),
(602,-20,c),
(618,-20,o),
(617,-15,o),
(617,-3,c),
(616,67,l),
(616,79,o),
(616,83,o),
(621,84,c),
(665,84,l),
(669,84,o),
(674,87,o),
(677,92,c),
(680,99,o),
(679,120,o),
(679,124,c),
(679,135,o),
(675,141,o),
(660,141,c),
(620,141,l),
(619,141,o),
(616,144,o),
(616,151,c),
(616,327,l),
(617,338,o),
(609,343,o),
(602,345,c),
(589,348,o),
(582,346,o),
(570,342,c),
(394,117,l),
(394,95,l),
(393,86,o),
(398,84,o),
(409,84,c),
(534,84,l),
(537,84,o),
(539,83,o),
(541,65,c),
(540,-7,l),
(542,-15,o),
(546,-19,o),
(553,-20,c)
);
}
);
width = 715;
}
);
unicode = 188;
},
{
glyphname = threequarters;
lastChange = "2023-05-15 06:06:27 +0000";
layers = (
{
layerId = m01;
shapes = (
{
closed = 1;
nodes = (
(142,-41,o),
(150,-35,o),
(158,-24,c),
(621,633,l),
(627,641,o),
(623,647,o),
(610,653,c),
(589,662,l),
(580,666,o),
(568,661,o),
(562,652,c),
(96,-10,l),
(96,-9,l),
(93,-14,o),
(91,-26,o),
(108,-31,c),
(131,-38,l)
);
},
{
closed = 1;
nodes = (
(205,286,o),
(285,344,o),
(285,418,c),
(285,463,o),
(260,496,o),
(219,511,c),
(239,528,o),
(252,548,o),
(252,572,c),
(252,617,o),
(206,643,o),
(158,643,c),
(104,643,o),
(56,612,o),
(32,556,c),
(24,536,o),
(66,528,o),
(75,537,c),
(92,571,o),
(117,585,o),
(138,585,c),
(162,585,o),
(175,571,o),
(175,556,c),
(175,542,o),
(155,515,o),
(103,482,c),
(88,472,o),
(98,455,o),
(107,446,c),
(115,438,o),
(118,439,o),
(131,448,c),
(145,458,o),
(153,459,o),
(162,459,c),
(184,459,o),
(205,438,o),
(205,406,c),
(205,365,o),
(173,332,o),
(141,332,c),
(107,332,o),
(89,372,o),
(55,372,c),
(36,372,o),
(17,357,o),
(17,338,c),
(17,302,o),
(77,286,o),
(122,286,c)
);
},
{
closed = 1;
nodes = (
(530,228,l),
(530,146,l),
(530,141,o),
(523,141,o),
(518,141,c),
(465,141,l)
);
},
{
closed = 1;
nodes = (
(548,-19,o),
(591,-17,o),
(592,-17,c),
(608,-17,o),
(607,-12,o),
(607,0,c),
(606,67,l),
(606,79,o),
(606,83,o),
(611,84,c),
(655,84,l),
(659,84,o),
(664,87,o),
(667,92,c),
(670,99,o),
(669,120,o),
(669,124,c),
(669,135,o),
(665,141,o),
(650,141,c),
(610,141,l),
(609,141,o),
(606,144,o),
(606,151,c),
(606,327,l),
(607,338,o),
(599,343,o),
(592,345,c),
(579,348,o),
(572,346,o),
(560,342,c),
(384,117,l),
(384,100,l),
(384,100,l),
(383,91,o),
(386,84,o),
(403,84,c),
(524,84,l),
(527,84,o),
(529,83,o),
(531,65,c),
(530,-4,l),
(532,-12,o),
(536,-16,o),
(543,-17,c)
);
}
);
width = 715;
}
);
unicode = 190;
},
{
glyphname = onesuperior;
lastChange = "2023-05-15 06:06:27 +0000";
layers = (
{
layerId = m01;
shapes = (
{
closed = 1;
nodes = (
(132,301,o),
(187,301,o),
(236,299,c),
(241,299,o),
(248,309,o),
(248,320,c),
(247,343,o),
(248,340,o),
(230,343,c),
(226,342,o),
(209,344,o),
(204,344,c),
(194,345,o),
(196,347,o),
(196,357,c),
(196,634,l),
(196,643,o),
(151,645,o),
(147,640,c),
(129,617,o),
(89,586,o),
(51,562,c),
(41,551,o),
(51,529,o),
(69,531,c),
(88,538,o),
(107,545,o),
(124,556,c),
(124,356,l),
(124,346,o),
(123,345,o),
(110,344,c),
(83,341,l),
(76,340,o),
(71,329,o),
(71,320,c),
(71,310,o),
(77,299,o),
(84,299,c)
);
}
);
width = 300;
}
);
unicode = 185;
},
{
glyphname = twosuperior;
lastChange = "2023-05-15 06:06:27 +0000";
layers = (
{
layerId = m01;
shapes = (
{
closed = 1;
nodes = (
(247,301,l),
(253,301,o),
(267,300,o),
(270,318,c),
(276,346,o),
(276,361,o),
(280,391,c),
(280,397,o),
(280,403,o),
(268,403,c),
(261,403,o),
(251,403,o),
(247,403,c),
(241,403,o),
(235,401,o),
(234,394,c),
(232,386,o),
(231,373,o),
(225,367,c),
(219,363,o),
(199,364,o),
(192,364,c),
(118,364,l),
(110,364,o),
(105,365,o),
(110,369,c),
(133,389,o),
(151,403,o),
(171,416,c),
(217,448,o),
(268,480,o),
(268,544,c),
(268,605,o),
(212,646,o),
(146,646,c),
(76,646,o),
(22,602,o),
(15,529,c),
(15,518,o),
(55,517,o),
(59,525,c),
(72,565,o),
(100,586,o),
(131,586,c),
(163,586,o),
(186,564,o),
(186,537,c),
(186,486,o),
(125,440,o),
(90,409,c),
(49,374,o),
(26,351,o),
(9,331,c),
(9,314,l),
(9,302,o),
(12,301,o),
(24,301,c)
);
}
);
width = 300;
}
);
unicode = 178;
},
{
glyphname = threesuperior;
lastChange = "2023-05-15 06:06:27 +0000";
layers = (
{
layerId = m01;
shapes = (
{
closed = 1;
nodes = (
(197,294,o),
(276,352,o),
(276,425,c),
(276,469,o),
(250,502,o),
(209,515,c),
(231,533,o),
(242,552,o),
(242,576,c),
(242,620,o),
(199,646,o),
(152,646,c),
(99,646,o),
(53,614,o),
(28,560,c),
(24,548,o),
(51,516,o),
(70,543,c),
(88,575,o),
(111,589,o),
(133,589,c),
(155,589,o),
(169,575,o),
(169,560,c),
(169,546,o),
(148,519,o),
(98,487,c),
(91,483,o),
(87,468,o),
(92,460,c),
(101,445,o),
(117,448,o),
(125,453,c),
(138,463,o),
(145,465,o),
(156,465,c),
(176,465,o),
(197,444,o),
(197,413,c),
(197,371,o),
(166,340,o),
(135,340,c),
(104,340,o),
(83,378,o),
(50,378,c),
(31,378,o),
(14,365,o),
(14,345,c),
(14,310,o),
(73,294,o),
(115,294,c)
);
}
);
width = 300;
}
);
unicode = 179;
},
{
glyphname = period;
lastChange = "2023-05-15 06:06:27 +0000";
layers = (
{
layerId = m01;
shapes = (
{
closed = 1;
nodes = (
(161,-18,o),
(184,7,o),
(184,40,c),
(184,74,o),
(161,97,o),
(126,97,c),
(91,97,o),
(65,74,o),
(65,39,c),
(65,6,o),
(92,-18,o),
(126,-18,c)
);
}
);
width = 217;
}
);
unicode = 46;
},
{
glyphname = comma;
lastChange = "2023-05-15 06:06:27 +0000";
layers = (
{
layerId = m01;
shapes = (
{
closed = 1;
nodes = (
(156,-110,o),
(190,-53,o),
(190,2,c),
(190,48,o),
(165,82,o),
(125,82,c),
(96,82,o),
(70,60,o),
(70,28,c),
(70,-5,o),
(96,-29,o),
(128,-22,c),
(136,-19,o),
(137,-18,o),
(137,-26,c),
(137,-52,o),
(119,-79,o),
(78,-104,c),
(70,-107,o),
(70,-119,o),
(73,-128,c),
(76,-130,o),
(77,-133,o),
(79,-135,c),
(84,-140,o),
(96,-139,o),
(103,-136,c)
);
}
);
width = 251;
}
);
unicode = 44;
},
{
glyphname = colon;
lastChange = "2023-05-15 06:06:27 +0000";
layers = (
{
layerId = m01;
shapes = (
{
closed = 1;
nodes = (
(159,292,o),
(182,314,o),
(182,346,c),
(182,379,o),
(159,401,o),
(129,401,c),
(99,401,o),
(76,379,o),
(76,346,c),
(76,314,o),
(99,292,o),
(129,292,c)
);
},
{
closed = 1;
nodes = (
(159,-10,o),
(182,13,o),
(182,45,c),
(182,78,o),
(159,99,o),
(129,99,c),
(99,99,o),
(76,78,o),
(76,45,c),
(76,14,o),
(99,-10,o),
(129,-10,c)
);
}
);
width = 257;
}
);
unicode = 58;
},
{
glyphname = semicolon;
lastChange = "2023-05-15 06:06:27 +0000";
layers = (
{
layerId = m01;
shapes = (
{
closed = 1;
nodes = (
(147,-118,o),
(191,-55,o),
(191,8,c),
(191,58,o),
(161,94,o),
(120,94,c),
(89,94,o),
(63,71,o),
(63,38,c),
(63,9,o),
(83,-16,o),
(110,-16,c),
(118,-16,o),
(125,-13,o),
(133,-13,c),
(134,-13,o),
(134,-15,o),
(134,-21,c),
(134,-49,o),
(115,-79,o),
(71,-107,c),
(55,-115,o),
(68,-150,o),
(85,-144,c)
);
},
{
closed = 1;
nodes = (
(148,289,o),
(173,312,o),
(173,344,c),
(173,377,o),
(148,399,o),
(118,399,c),
(87,399,o),
(64,376,o),
(64,344,c),
(64,312,o),
(87,289,o),
(118,289,c)
);
}
);
width = 230;
}
);
unicode = 59;
},
{
glyphname = ellipsis;
lastChange = "2023-05-15 06:06:27 +0000";
layers = (
{
layerId = m01;
shapes = (
{
closed = 1;
nodes = (
(229,-17,o),
(255,7,o),
(255,39,c),
(255,72,o),
(229,101,o),
(192,101,c),
(155,101,o),
(126,75,o),
(126,42,c),
(126,9,o),
(154,-17,o),
(192,-17,c)
);
},
{
closed = 1;
nodes = (
(572,-17,o),
(598,5,o),
(598,38,c),
(598,71,o),
(571,100,o),
(534,100,c),
(497,100,o),
(469,72,o),
(469,38,c),
(469,6,o),
(497,-17,o),
(535,-17,c)
);
},
{
closed = 1;
nodes = (
(912,-17,o),
(937,6,o),
(937,39,c),
(937,72,o),
(911,101,o),
(873,101,c),
(837,101,o),
(809,76,o),
(809,42,c),
(809,10,o),
(837,-17,o),
(874,-17,c)
);
}
);
width = 1056;
}
);
unicode = 8230;
},
{
glyphname = exclam;
lastChange = "2023-05-15 06:06:27 +0000";
layers = (
{
layerId = m01;
shapes = (
{
closed = 1;
nodes = (
(128,164,o),
(150,173,o),
(155,184,c),
(189,642,l),
(192,678,o),
(193,690,o),
(154,690,c),
(118,690,l),
(84,690,o),
(83,669,o),
(85,642,c),
(119,184,l)
);
},
{
closed = 1;
nodes = (
(169,-15,o),
(195,9,o),
(195,43,c),
(195,78,o),
(168,100,o),
(137,100,c),
(105,100,o),
(80,77,o),
(80,43,c),
(80,9,o),
(105,-15,o),
(137,-15,c)
);
}
);
width = 272;
}
);
unicode = 33;
},
{
glyphname = exclamdown;
lastChange = "2023-05-15 06:06:27 +0000";
layers = (
{
layerId = m01;
shapes = (
{
closed = 1;
nodes = (
(153,-249,l),
(189,-249,o),
(193,-233,o),
(190,-204,c),
(154,254,l),
(149,266,o),
(124,266,o),
(119,254,c),
(85,-203,l),
(83,-232,o),
(85,-249,o),
(124,-249,c)
);
},
{
closed = 1;
nodes = (
(170,313,o),
(195,339,o),
(195,374,c),
(195,409,o),
(170,434,o),
(137,434,c),
(104,434,o),
(79,408,o),
(79,374,c),
(79,339,o),
(104,313,o),
(137,313,c)
);
}
);
width = 272;
}
);
unicode = 161;
},
{
glyphname = question;
lastChange = "2023-05-15 06:06:27 +0000";
layers = (
{
layerId = m01;
shapes = (
{
closed = 1;
nodes = (
(181,163,o),
(188,175,o),
(184,180,c),
(152,219,o),
(144,235,o),
(144,252,c),
(144,267,o),
(151,277,o),
(181,288,c),
(218,302,o),
(229,309,o),
(251,324,c),
(298,357,o),
(325,408,o),
(325,475,c),
(325,590,o),
(248,670,o),
(140,670,c),
(86,670,o),
(42,653,o),
(42,610,c),
(42,576,o),
(71,561,o),
(110,561,c),
(135,561,o),
(157,568,o),
(185,568,c),
(244,568,o),
(276,539,o),
(276,490,c),
(276,442,o),
(256,417,o),
(171,384,c),
(113,362,o),
(89,336,o),
(89,285,c),
(89,249,o),
(106,215,o),
(141,171,c),
(148,163,o),
(166,158,o),
(176,161,c)
);
},
{
closed = 1;
nodes = (
(191,-17,o),
(218,8,o),
(218,43,c),
(218,78,o),
(191,102,o),
(156,102,c),
(122,102,o),
(94,79,o),
(94,43,c),
(94,8,o),
(122,-17,o),
(156,-17,c)
);
}
);
width = 362;
}
);
unicode = 63;
},
{
glyphname = questiondown;
lastChange = "2023-05-15 06:06:27 +0000";
layers = (
{
layerId = m01;
shapes = (
{
closed = 1;
nodes = (
(276,-249,o),
(320,-232,o),
(320,-189,c),
(320,-155,o),
(290,-142,o),
(251,-142,c),
(226,-142,o),
(204,-149,o),
(176,-149,c),
(117,-149,o),
(85,-118,o),
(85,-69,c),
(85,-21,o),
(106,3,o),
(192,37,c),
(249,59,o),
(273,85,o),
(273,136,c),
(273,172,o),
(257,206,o),
(222,250,c),
(215,260,o),
(196,263,o),
(186,258,c),
(183,257,o),
(170,249,o),
(182,235,c),
(215,196,o),
(218,186,o),
(218,169,c),
(218,153,o),
(211,143,o),
(181,132,c),
(144,118,o),
(133,113,o),
(111,96,c),
(64,63,o),
(40,11,o),
(40,-54,c),
(40,-169,o),
(114,-249,o),
(222,-249,c)
);
},
{
closed = 1;
nodes = (
(240,313,o),
(268,339,o),
(268,374,c),
(268,409,o),
(240,434,o),
(206,434,c),
(171,434,o),
(144,408,o),
(144,374,c),
(144,339,o),
(171,313,o),
(206,313,c)
);
}
);
width = 371;
}
);
unicode = 191;
},
{
glyphname = periodcentered;
lastChange = "2023-05-15 06:06:27 +0000";
layers = (
{
layerId = m01;
shapes = (
{
closed = 1;
nodes = (
(159,287,o),
(184,314,o),
(184,343,c),
(184,373,o),
(159,399,o),
(129,399,c),
(100,399,o),
(74,373,o),
(74,343,c),
(74,314,o),
(100,287,o),
(129,287,c)
);
}
);
width = 257;
}
);
unicode = 183;
},
{
glyphname = bullet;
lastChange = "2023-05-15 06:06:27 +0000";
layers = (
{
layerId = m01;
shapes = (
{
closed = 1;
nodes = (
(248,215,o),
(299,265,o),
(299,328,c),
(299,390,o),
(248,441,o),
(186,441,c),
(124,441,o),
(75,390,o),
(75,328,c),
(75,265,o),
(124,215,o),
(186,215,c)
);
}
);
width = 371;
}
);
unicode = 8226;
},
{
glyphname = asterisk;
lastChange = "2023-05-15 06:06:27 +0000";
layers = (
{
layerId = m01;
shapes = (
{
closed = 1;
nodes = (
(300,225,o),
(316,249,o),
(316,274,c),
(316,286,o),
(315,296,o),
(312,303,c),
(310,311,o),
(307,319,o),
(303,329,c),
(297,345,o),
(291,364,o),
(290,414,c),
(290,419,o),
(296,420,o),
(297,420,c),
(335,396,o),
(351,375,o),
(366,356,c),
(382,335,o),
(396,317,o),
(426,317,c),
(451,317,o),
(467,339,o),
(467,357,c),
(467,414,o),
(398,412,o),
(360,424,c),
(344,429,o),
(332,434,o),
(310,447,c),
(307,448,o),
(309,454,o),
(312,455,c),
(334,466,o),
(345,470,o),
(361,475,c),
(398,487,o),
(467,488,o),
(467,543,c),
(467,553,o),
(460,584,o),
(422,584,c),
(398,584,o),
(381,563,o),
(367,546,c),
(351,527,o),
(335,507,o),
(298,483,c),
(296,482,o),
(289,482,o),
(289,486,c),
(290,526,o),
(296,545,o),
(302,566,c),
(308,586,o),
(315,605,o),
(315,627,c),
(315,649,o),
(301,674,o),
(272,674,c),
(243,674,o),
(229,649,o),
(229,627,c),
(229,605,o),
(237,586,o),
(243,566,c),
(248,546,o),
(254,524,o),
(256,486,c),
(256,478,o),
(254,479,o),
(249,482,c),
(213,504,o),
(193,528,o),
(177,546,c),
(163,562,o),
(147,584,o),
(123,584,c),
(85,584,o),
(77,553,o),
(77,543,c),
(77,506,o),
(99,497,o),
(130,489,c),
(145,484,o),
(163,482,o),
(184,475,c),
(199,470,o),
(214,466,o),
(234,456,c),
(239,452,o),
(240,450,o),
(236,447,c),
(235,446,l),
(235,446,o),
(170,420,o),
(131,410,c),
(100,403,o),
(77,396,o),
(77,357,c),
(77,339,o),
(94,317,o),
(118,317,c),
(149,317,o),
(162,335,o),
(179,356,c),
(194,375,o),
(213,398,o),
(250,421,c),
(253,423,o),
(255,415,o),
(255,413,c),
(253,363,o),
(247,345,o),
(242,329,c),
(234,307,o),
(228,299,o),
(228,274,c),
(228,249,o),
(244,225,o),
(272,225,c)
);
}
);
width = 534;
}
);
unicode = 42;
},
{
glyphname = numbersign;
lastChange = "2023-05-15 06:06:27 +0000";
layers = (
{
layerId = m01;
shapes = (
{
closed = 1;
nodes = (
(427,-29,l),
(447,-29,o),
(451,-18,o),
(455,-2,c),
(487,157,l),
(491,174,o),
(485,179,o),
(512,178,c),
(539,177,o),
(580,177,o),
(609,178,c),
(626,179,o),
(638,178,o),
(642,201,c),
(648,230,l),
(653,256,o),
(632,253,o),
(615,253,c),
(580,251,o),
(545,252,o),
(517,253,c),
(512,253,o),
(506,255,o),
(508,264,c),
(536,402,l),
(537,407,o),
(538,411,o),
(539,414,c),
(541,424,o),
(544,428,o),
(555,427,c),
(574,427,o),
(606,427,o),
(625,427,c),
(641,428,o),
(651,430,o),
(653,441,c),
(656,456,o),
(658,466,o),
(661,482,c),
(662,497,o),
(657,500,o),
(643,501,c),
(618,502,o),
(590,500,o),
(565,502,c),
(560,502,o),
(557,503,o),
(559,511,c),
(591,666,o),
(612,713,o),
(571,710,c),
(547,708,l),
(523,706,o),
(523,693,o),
(519,674,c),
(512,643,o),
(486,515,o),
(486,515,c),
(484,506,o),
(483,503,o),
(473,502,c),
(427,500,o),
(341,505,o),
(295,502,c),
(291,502,o),
(287,505,o),
(289,511,c),
(322,679,l),
(327,703,o),
(323,705,o),
(299,707,c),
(292,708,o),
(286,709,o),
(281,709,c),
(262,712,o),
(256,708,o),
(251,687,c),
(215,512,l),
(213,502,o),
(212,502,o),
(203,502,c),
(170,504,o),
(126,503,o),
(88,502,c),
(70,501,o),
(62,493,o),
(62,485,c),
(60,475,o),
(54,460,o),
(56,448,c),
(55,431,o),
(66,427,o),
(86,427,c),
(114,428,o),
(161,427,o),
(189,427,c),
(195,427,o),
(196,422,o),
(195,418,c),
(164,266,l),
(161,254,o),
(159,253,o),
(147,253,c),
(68,253,l),
(49,253,o),
(41,247,o),
(41,232,c),
(39,220,o),
(37,214,o),
(36,200,c),
(36,178,o),
(45,178,o),
(62,178,c),
(130,178,l),
(142,178,o),
(145,175,o),
(143,165,c),
(111,7,l),
(110,0,o),
(108,-1,o),
(108,-8,c),
(108,-28,o),
(126,-29,o),
(139,-28,c),
(162,-27,o),
(177,-31,o),
(183,-1,c),
(216,160,l),
(220,180,o),
(221,177,o),
(240,178,c),
(281,180,o),
(352,180,o),
(404,178,c),
(415,177,o),
(416,176,o),
(413,159,c),
(383,17,o),
(364,-29,o),
(398,-29,c)
);
},
{
closed = 1;
nodes = (
(236,256,o),
(235,257,o),
(236,264,c),
(268,413,l),
(271,429,o),
(273,427,o),
(287,427,c),
(318,428,o),
(418,428,o),
(457,427,c),
(467,427,o),
(468,424,o),
(465,410,c),
(435,267,l),
(432,254,o),
(426,253,o),
(414,254,c),
(373,255,o),
(288,256,o),
(241,254,c)
);
}
);
width = 699;
}
);
unicode = 35;
},
{
glyphname = slash;
lastChange = "2023-05-15 06:06:27 +0000";
layers = (
{
layerId = m01;
shapes = (
{
closed = 1;
nodes = (
(106,-21,o),
(109,-23,o),
(121,1,c),
(449,640,l),
(461,657,o),
(454,673,o),
(441,675,c),
(412,680,o),
(386,688,o),
(371,658,c),
(258,441,o),
(152,230,o),
(41,13,c),
(29,-9,o),
(45,-18,o),
(59,-20,c),
(66,-21,o),
(74,-21,o),
(80,-21,c)
);
}
);
width = 479;
}
);
unicode = 47;
},
{
glyphname = backslash;
lastChange = "2023-05-15 06:06:27 +0000";
layers = (
{
layerId = m01;
shapes = (
{
closed = 1;
nodes = (
(423,-14,l),
(447,-11,o),
(441,6,o),
(435,16,c),
(125,656,l),
(115,676,o),
(112,674,o),
(94,674,c),
(74,674,l),
(58,674,o),
(32,669,o),
(41,651,c),
(356,0,l),
(362,-13,o),
(366,-21,o),
(383,-19,c)
);
}
);
width = 479;
}
);
unicode = 92;
},
{
glyphname = hyphen;
lastChange = "2023-05-15 06:39:53 +0000";
layers = (
{
layerId = m01;
shapes = (
{
closed = 1;
nodes = (
(198,197,o),
(254,197,o),
(379,199,c),
(386,200,o),
(391,204,o),
(394,215,c),
(396,249,l),
(396,258,o),
(387,268,o),
(377,268,c),
(297,265,o),
(143,266,o),
(68,268,c),
(60,268,o),
(44,263,o),
(44,249,c),
(44,214,l),
(46,208,o),
(49,199,o),
(59,199,c)
);
}
);
width = 435;
}
);
unicode = 45;
},
{
glyphname = endash;
lastChange = "2023-05-15 06:06:27 +0000";
layers = (
{
layerId = m01;
shapes = (
{
closed = 1;
nodes = (
(207,211,o),
(431,210,o),
(553,212,c),
(562,212,o),
(573,214,o),
(574,224,c),
(574,255,l),
(574,262,o),
(566,271,o),
(555,271,c),
(448,273,o),
(207,275,o),
(56,271,c),
(32,267,o),
(39,242,o),
(38,228,c),
(38,221,o),
(46,212,o),
(54,212,c)
);
}
);
width = 610;
}
);
unicode = 8211;
},
{
glyphname = emdash;
lastChange = "2023-05-15 06:06:27 +0000";
layers = (
{
layerId = m01;
shapes = (
{
closed = 1;
nodes = (
(290,200,o),
(585,199,o),
(742,201,c),
(751,201,o),
(758,208,o),
(761,214,c),
(762,222,o),
(763,228,o),
(764,233,c),
(767,250,o),
(762,258,o),
(742,263,c),
(582,262,o),
(266,262,o),
(110,263,c),
(90,263,o),
(85,250,o),
(84,243,c),
(83,232,o),
(86,226,o),
(86,217,c),
(85,204,o),
(99,201,o),
(107,201,c)
);
}
);
width = 855;
}
);
unicode = 8212;
},
{
glyphname = underscore;
lastChange = "2023-05-15 06:06:27 +0000";
layers = (
{
layerId = m01;
shapes = (
{
closed = 1;
nodes = (
(500,-232,l),
(507,-232,o),
(514,-233,o),
(522,-232,c),
(530,-231,o),
(536,-227,o),
(536,-218,c),
(536,-193,l),
(536,-184,o),
(525,-179,o),
(511,-179,c),
(347,-174,o),
(180,-178,o),
(15,-178,c),
(-1,-178,o),
(-10,-182,o),
(-10,-190,c),
(-10,-213,l),
(-10,-228,o),
(10,-232,o),
(33,-232,c)
);
}
);
width = 523;
}
);
unicode = 95;
},
{
glyphname = parenleft;
lastChange = "2023-05-15 06:06:27 +0000";
layers = (
{
layerId = m01;
shapes = (
{
closed = 1;
nodes = (
(298,-215,o),
(313,-201,o),
(306,-185,c),
(278,-151,o),
(270,-139,o),
(244,-93,c),
(181,22,o),
(157,112,o),
(157,240,c),
(157,327,o),
(168,392,o),
(193,461,c),
(220,533,o),
(265,617,o),
(306,664,c),
(320,687,o),
(289,723,o),
(264,704,c),
(153,579,o),
(77,411,o),
(77,240,c),
(77,75,o),
(149,-93,o),
(255,-214,c),
(261,-221,o),
(270,-229,o),
(281,-223,c)
);
}
);
width = 326;
}
);
unicode = 40;
},
{
glyphname = parenright;
lastChange = "2023-05-15 06:06:27 +0000";
layers = (
{
layerId = m01;
shapes = (
{
closed = 1;
nodes = (
(169,-99,o),
(241,71,o),
(241,242,c),
(241,408,o),
(172,574,o),
(63,697,c),
(54,708,o),
(37,710,o),
(23,699,c),
(10,688,o),
(11,669,o),
(20,658,c),
(43,632,o),
(51,617,o),
(75,575,c),
(138,459,o),
(163,369,o),
(163,242,c),
(163,154,o),
(152,89,o),
(127,20,c),
(100,-52,o),
(55,-135,o),
(13,-183,c),
(-7,-215,o),
(33,-240,o),
(55,-223,c)
);
}
);
width = 316;
}
);
unicode = 41;
},
{
glyphname = braceleft;
lastChange = "2023-05-15 06:06:27 +0000";
layers = (
{
layerId = m01;
shapes = (
{
closed = 1;
nodes = (
(390,-250,o),
(396,-249,o),
(400,-242,c),
(403,-234,o),
(403,-228,o),
(400,-219,c),
(400,-218,o),
(399,-216,o),
(397,-215,c),
(395,-212,o),
(391,-210,o),
(387,-209,c),
(316,-189,o),
(285,-151,o),
(285,-97,c),
(285,-79,o),
(288,-53,o),
(294,-25,c),
(300,7,o),
(304,43,o),
(304,61,c),
(304,130,o),
(264,187,o),
(195,225,c),
(186,229,o),
(185,232,o),
(194,236,c),
(215,246,o),
(229,257,o),
(249,276,c),
(284,311,o),
(304,353,o),
(304,400,c),
(304,422,o),
(300,452,o),
(293,488,c),
(287,517,o),
(284,541,o),
(284,560,c),
(284,614,o),
(318,654,o),
(385,670,c),
(390,672,o),
(399,678,o),
(399,685,c),
(399,684,l),
(399,687,o),
(399,693,o),
(397,702,c),
(395,709,o),
(389,711,o),
(385,711,c),
(272,694,o),
(193,607,o),
(193,503,c),
(193,480,o),
(196,452,o),
(203,420,c),
(211,386,o),
(215,362,o),
(215,347,c),
(215,304,o),
(179,265,o),
(116,251,c),
(111,250,o),
(106,245,o),
(105,238,c),
(103,233,o),
(103,228,o),
(105,223,c),
(105,218,o),
(108,212,o),
(114,210,c),
(182,195,o),
(216,158,o),
(216,112,c),
(216,99,o),
(211,69,o),
(204,38,c),
(198,8,o),
(194,-20,o),
(194,-42,c),
(194,-146,o),
(271,-231,o),
(384,-249,c)
);
}
);
width = 501;
}
);
unicode = 123;
},
